<svg width="284" height="150" viewBox="0 0 284 150" fill="none" xmlns="http://www.w3.org/2000/svg">
<mask id="path-1-outside-1_27_17" maskUnits="userSpaceOnUse" x="0" y="0" width="284" height="150" fill="black">
<rect fill="white" width="284" height="150"/>
<path d="M1.78 63V2.99H15.125V63H1.78ZM38.925 63V2.99H52.355V63H38.925ZM9.77 37.925V26.365H43.345V37.925H9.77ZM62.6798 63V21.69H75.6848V63H62.6798ZM69.2248 15.995C67.1848 15.995 65.4848 15.315 64.1248 13.955C62.8215 12.5383 62.1698 10.8383 62.1698 8.855C62.1698 6.815 62.8215 5.115 64.1248 3.755C65.4848 2.395 67.1848 1.715 69.2248 1.715C71.2648 1.715 72.9365 2.395 74.2398 3.755C75.5432 5.115 76.1948 6.815 76.1948 8.855C76.1948 10.8383 75.5432 12.5383 74.2398 13.955C72.9365 15.315 71.2648 15.995 69.2248 15.995ZM84.8429 73.2L91.0479 61.64L94.8729 60.535C94.4763 61.385 93.9946 62.0933 93.4279 62.66C92.8613 63.17 92.2096 63.425 91.4729 63.425C89.8296 63.425 88.3279 62.745 86.9679 61.385C85.6079 60.025 84.9279 58.325 84.9279 56.285C84.9279 54.075 85.6646 52.1767 87.1379 50.59C88.6679 49.0033 90.5379 48.21 92.7479 48.21C94.8446 48.21 96.6579 49.0033 98.1879 50.59C99.7746 52.12 100.568 54.0183 100.568 56.285C100.568 57.1917 100.398 58.24 100.058 59.43C99.7179 60.62 99.0379 62.1783 98.0179 64.105L91.1329 76.685L84.8429 73.2ZM126.292 63V2.99H139.637V63H126.292ZM183.446 63.85C179.649 63.85 176.249 62.915 173.246 61.045C170.299 59.175 167.947 56.625 166.191 53.395C164.491 50.165 163.641 46.4817 163.641 42.345C163.641 38.2083 164.491 34.525 166.191 31.295C167.947 28.065 170.299 25.515 173.246 23.645C176.249 21.775 179.649 20.84 183.446 20.84C186.222 20.84 188.716 21.3783 190.926 22.455C193.192 23.5317 195.034 25.0333 196.451 26.96C197.867 28.83 198.661 30.9833 198.831 33.42V51.27C198.661 53.7067 197.867 55.8883 196.451 57.815C195.091 59.685 193.277 61.1583 191.011 62.235C188.744 63.3117 186.222 63.85 183.446 63.85ZM186.081 52.12C188.857 52.12 191.096 51.2133 192.796 49.4C194.496 47.53 195.346 45.1783 195.346 42.345C195.346 40.4183 194.949 38.7183 194.156 37.245C193.419 35.7717 192.342 34.6383 190.926 33.845C189.566 32.995 187.979 32.57 186.166 32.57C184.352 32.57 182.737 32.995 181.321 33.845C179.961 34.6383 178.856 35.7717 178.006 37.245C177.212 38.7183 176.816 40.4183 176.816 42.345C176.816 44.215 177.212 45.8867 178.006 47.36C178.799 48.8333 179.904 49.995 181.321 50.845C182.737 51.695 184.324 52.12 186.081 52.12ZM194.836 63V51.865L196.791 41.835L194.836 31.805V21.69H207.586V63H194.836ZM216.742 63V21.69H229.747V63H216.742ZM243.177 63V38.86C243.177 36.7633 242.526 35.1483 241.222 34.015C239.976 32.825 238.417 32.23 236.547 32.23C235.244 32.23 234.082 32.5133 233.062 33.08C232.042 33.59 231.221 34.3267 230.597 35.29C230.031 36.2533 229.747 37.4433 229.747 38.86L224.732 36.65C224.732 33.3633 225.441 30.5583 226.857 28.235C228.274 25.855 230.201 24.0417 232.637 22.795C235.074 21.4917 237.822 20.84 240.882 20.84C243.772 20.84 246.351 21.4917 248.617 22.795C250.941 24.0983 252.782 25.9117 254.142 28.235C255.502 30.5583 256.182 33.335 256.182 36.565V63H243.177ZM269.612 63V38.86C269.612 36.7633 268.961 35.1483 267.657 34.015C266.411 32.825 264.852 32.23 262.982 32.23C261.679 32.23 260.517 32.5133 259.497 33.08C258.477 33.59 257.656 34.3267 257.032 35.29C256.466 36.2533 256.182 37.4433 256.182 38.86L248.702 37.84C248.816 34.3267 249.637 31.3233 251.167 28.83C252.754 26.28 254.822 24.325 257.372 22.965C259.979 21.5483 262.897 20.84 266.127 20.84C269.301 20.84 272.106 21.52 274.542 22.88C277.036 24.1833 278.991 26.0817 280.407 28.575C281.881 31.0117 282.617 33.9583 282.617 37.415V63H269.612ZM1.78 147V86.99H11.3L34.93 123.795H30.085L53.63 86.99H63.235V147H49.89V109.515L52.27 110.11L36.885 134.08H28.045L12.745 110.11L15.04 109.515V147H1.78ZM90.8089 147.85C87.0122 147.85 83.6122 146.915 80.6089 145.045C77.6622 143.175 75.3105 140.625 73.5539 137.395C71.8539 134.165 71.0039 130.482 71.0039 126.345C71.0039 122.208 71.8539 118.525 73.5539 115.295C75.3105 112.065 77.6622 109.515 80.6089 107.645C83.6122 105.775 87.0122 104.84 90.8089 104.84C93.5855 104.84 96.0789 105.378 98.2889 106.455C100.556 107.532 102.397 109.033 103.814 110.96C105.231 112.83 106.024 114.983 106.194 117.42V135.27C106.024 137.707 105.231 139.888 103.814 141.815C102.454 143.685 100.641 145.158 98.3739 146.235C96.1072 147.312 93.5855 147.85 90.8089 147.85ZM93.4439 136.12C96.2205 136.12 98.4589 135.213 100.159 133.4C101.859 131.53 102.709 129.178 102.709 126.345C102.709 124.418 102.312 122.718 101.519 121.245C100.782 119.772 99.7055 118.638 98.2889 117.845C96.9289 116.995 95.3422 116.57 93.5289 116.57C91.7155 116.57 90.1005 116.995 88.6839 117.845C87.3239 118.638 86.2189 119.772 85.3689 121.245C84.5755 122.718 84.1789 124.418 84.1789 126.345C84.1789 128.215 84.5755 129.887 85.3689 131.36C86.1622 132.833 87.2672 133.995 88.6839 134.845C90.1005 135.695 91.6872 136.12 93.4439 136.12ZM102.199 147V135.865L104.154 125.835L102.199 115.805V105.69H114.949V147H102.199ZM124.106 147V105.69H137.111V147H124.106ZM137.111 124.305L131.671 120.055C132.747 115.238 134.561 111.498 137.111 108.835C139.661 106.172 143.202 104.84 147.736 104.84C149.719 104.84 151.447 105.152 152.921 105.775C154.451 106.342 155.782 107.248 156.916 108.495L149.181 118.27C148.614 117.647 147.906 117.165 147.056 116.825C146.206 116.485 145.242 116.315 144.166 116.315C142.012 116.315 140.284 116.995 138.981 118.355C137.734 119.658 137.111 121.642 137.111 124.305ZM179.193 147.935C174.943 147.935 171.09 147 167.633 145.13C164.176 143.26 161.456 140.682 159.473 137.395C157.49 134.108 156.498 130.425 156.498 126.345C156.498 122.208 157.49 118.525 159.473 115.295C161.513 112.008 164.261 109.43 167.718 107.56C171.175 105.69 175.056 104.755 179.363 104.755C182.593 104.755 185.54 105.322 188.203 106.455C190.923 107.532 193.331 109.175 195.428 111.385L187.098 119.715C186.135 118.638 185.001 117.845 183.698 117.335C182.451 116.825 181.006 116.57 179.363 116.57C177.493 116.57 175.821 116.995 174.348 117.845C172.931 118.638 171.798 119.772 170.948 121.245C170.155 122.662 169.758 124.333 169.758 126.26C169.758 128.187 170.155 129.887 170.948 131.36C171.798 132.833 172.96 133.995 174.433 134.845C175.906 135.695 177.55 136.12 179.363 136.12C181.063 136.12 182.565 135.837 183.868 135.27C185.228 134.647 186.39 133.797 187.353 132.72L195.598 141.05C193.445 143.317 191.008 145.045 188.288 146.235C185.568 147.368 182.536 147.935 179.193 147.935ZM220.28 147.935C216.03 147.935 212.176 147 208.72 145.13C205.32 143.203 202.628 140.597 200.645 137.31C198.661 134.023 197.67 130.34 197.67 126.26C197.67 122.18 198.661 118.525 200.645 115.295C202.628 112.065 205.32 109.515 208.72 107.645C212.12 105.718 215.973 104.755 220.28 104.755C224.586 104.755 228.44 105.69 231.84 107.56C235.24 109.43 237.931 112.008 239.915 115.295C241.898 118.525 242.89 122.18 242.89 126.26C242.89 130.34 241.898 134.023 239.915 137.31C237.931 140.597 235.24 143.203 231.84 145.13C228.44 147 224.586 147.935 220.28 147.935ZM220.28 136.12C222.15 136.12 223.793 135.723 225.21 134.93C226.626 134.08 227.703 132.918 228.44 131.445C229.233 129.915 229.63 128.187 229.63 126.26C229.63 124.333 229.233 122.662 228.44 121.245C227.646 119.772 226.541 118.638 225.125 117.845C223.765 116.995 222.15 116.57 220.28 116.57C218.466 116.57 216.851 116.995 215.435 117.845C214.018 118.638 212.913 119.772 212.12 121.245C211.326 122.718 210.93 124.418 210.93 126.345C210.93 128.215 211.326 129.915 212.12 131.445C212.913 132.918 214.018 134.08 215.435 134.93C216.851 135.723 218.466 136.12 220.28 136.12ZM264.409 148.02C261.973 148.02 259.564 147.708 257.184 147.085C254.861 146.462 252.679 145.583 250.639 144.45C248.656 143.26 246.956 141.9 245.539 140.37L252.934 132.89C254.294 134.363 255.909 135.525 257.779 136.375C259.649 137.168 261.689 137.565 263.899 137.565C265.429 137.565 266.591 137.338 267.384 136.885C268.234 136.432 268.659 135.808 268.659 135.015C268.659 133.995 268.149 133.23 267.129 132.72C266.166 132.153 264.919 131.672 263.389 131.275C261.859 130.822 260.244 130.34 258.544 129.83C256.844 129.32 255.229 128.612 253.699 127.705C252.169 126.798 250.923 125.552 249.959 123.965C248.996 122.322 248.514 120.253 248.514 117.76C248.514 115.097 249.194 112.802 250.554 110.875C251.914 108.892 253.841 107.333 256.334 106.2C258.828 105.067 261.746 104.5 265.089 104.5C268.603 104.5 271.833 105.123 274.779 106.37C277.783 107.56 280.219 109.345 282.089 111.725L274.694 119.205C273.391 117.675 271.918 116.598 270.274 115.975C268.688 115.352 267.129 115.04 265.599 115.04C264.126 115.04 263.021 115.267 262.284 115.72C261.548 116.117 261.179 116.712 261.179 117.505C261.179 118.355 261.661 119.035 262.624 119.545C263.588 120.055 264.834 120.508 266.364 120.905C267.894 121.302 269.509 121.783 271.209 122.35C272.909 122.917 274.524 123.682 276.054 124.645C277.584 125.608 278.831 126.912 279.794 128.555C280.758 130.142 281.239 132.238 281.239 134.845C281.239 138.868 279.709 142.07 276.649 144.45C273.646 146.83 269.566 148.02 264.409 148.02Z"/>
</mask>
<path d="M1.78 63H0.78V64H1.78V63ZM1.78 2.99V1.99H0.78V2.99H1.78ZM15.125 2.99H16.125V1.99H15.125V2.99ZM15.125 63V64H16.125V63H15.125ZM38.925 63H37.925V64H38.925V63ZM38.925 2.99V1.99H37.925V2.99H38.925ZM52.355 2.99H53.355V1.99H52.355V2.99ZM52.355 63V64H53.355V63H52.355ZM9.77 37.925H8.77V38.925H9.77V37.925ZM9.77 26.365V25.365H8.77V26.365H9.77ZM43.345 26.365H44.345V25.365H43.345V26.365ZM43.345 37.925V38.925H44.345V37.925H43.345ZM1.78 63H2.78V2.99H1.78H0.78V63H1.78ZM1.78 2.99V3.99H15.125V2.99V1.99H1.78V2.99ZM15.125 2.99H14.125V63H15.125H16.125V2.99H15.125ZM15.125 63V62H1.78V63V64H15.125V63ZM38.925 63H39.925V2.99H38.925H37.925V63H38.925ZM38.925 2.99V3.99H52.355V2.99V1.99H38.925V2.99ZM52.355 2.99H51.355V63H52.355H53.355V2.99H52.355ZM52.355 63V62H38.925V63V64H52.355V63ZM9.77 37.925H10.77V26.365H9.77H8.77V37.925H9.77ZM9.77 26.365V27.365H43.345V26.365V25.365H9.77V26.365ZM43.345 26.365H42.345V37.925H43.345H44.345V26.365H43.345ZM43.345 37.925V36.925H9.77V37.925V38.925H43.345V37.925ZM62.6798 63H61.6798V64H62.6798V63ZM62.6798 21.69V20.69H61.6798V21.69H62.6798ZM75.6848 21.69H76.6848V20.69H75.6848V21.69ZM75.6848 63V64H76.6848V63H75.6848ZM64.1248 13.955L63.3889 14.6321L63.403 14.6474L63.4177 14.6621L64.1248 13.955ZM64.1248 3.755L63.4177 3.04789L63.4102 3.05541L63.4029 3.06309L64.1248 3.755ZM74.2398 13.955L74.9618 14.6469L74.9689 14.6395L74.9758 14.6321L74.2398 13.955ZM62.6798 63H63.6798V21.69H62.6798H61.6798V63H62.6798ZM62.6798 21.69V22.69H75.6848V21.69V20.69H62.6798V21.69ZM75.6848 21.69H74.6848V63H75.6848H76.6848V21.69H75.6848ZM75.6848 63V62H62.6798V63V64H75.6848V63ZM69.2248 15.995V14.995C67.4322 14.995 65.9922 14.4081 64.832 13.2479L64.1248 13.955L63.4177 14.6621C64.9775 16.2219 66.9375 16.995 69.2248 16.995V15.995ZM64.1248 13.955L64.8608 13.2779C63.7329 12.0519 63.1698 10.5959 63.1698 8.855H62.1698H61.1698C61.1698 11.0808 61.9102 13.0247 63.3889 14.6321L64.1248 13.955ZM62.1698 8.855H63.1698C63.1698 7.04939 63.7375 5.60446 64.8468 4.4469L64.1248 3.755L63.4029 3.06309C61.9055 4.62553 61.1698 6.5806 61.1698 8.855H62.1698ZM64.1248 3.755L64.832 4.4621C65.9922 3.3019 67.4322 2.715 69.2248 2.715V1.715V0.714999C66.9375 0.714999 64.9775 1.4881 63.4177 3.04789L64.1248 3.755ZM69.2248 1.715V2.715C71.0174 2.715 72.4198 3.30115 73.5179 4.4469L74.2398 3.755L74.9618 3.06309C73.4532 1.48885 71.5123 0.714999 69.2248 0.714999V1.715ZM74.2398 3.755L73.5179 4.4469C74.6272 5.60446 75.1948 7.04939 75.1948 8.855H76.1948H77.1948C77.1948 6.5806 76.4592 4.62553 74.9618 3.06309L74.2398 3.755ZM76.1948 8.855H75.1948C75.1948 10.5959 74.6318 12.0519 73.5039 13.2779L74.2398 13.955L74.9758 14.6321C76.4545 13.0247 77.1948 11.0808 77.1948 8.855H76.1948ZM74.2398 13.955L73.5179 13.2631C72.4198 14.4088 71.0174 14.995 69.2248 14.995V15.995V16.995C71.5123 16.995 73.4532 16.2212 74.9618 14.6469L74.2398 13.955ZM84.8429 73.2L83.9618 72.7271L83.4952 73.5965L84.3583 74.0747L84.8429 73.2ZM91.0479 61.64L90.7704 60.6793L90.3659 60.7961L90.1668 61.1671L91.0479 61.64ZM94.8729 60.535L95.7791 60.9579L96.7099 58.9634L94.5954 59.5743L94.8729 60.535ZM93.4279 62.66L94.0969 63.4033L94.1164 63.3857L94.135 63.3671L93.4279 62.66ZM86.9679 61.385L86.2608 62.0921L86.2608 62.0921L86.9679 61.385ZM87.1379 50.59L86.4181 49.8959L86.4115 49.9026L86.4051 49.9095L87.1379 50.59ZM98.1879 50.59L97.4681 51.2841L97.4807 51.2972L97.4938 51.3098L98.1879 50.59ZM100.058 59.43L99.0964 59.1553L99.0964 59.1553L100.058 59.43ZM98.0179 64.105L98.8952 64.5851L98.9017 64.5729L98.0179 64.105ZM91.1329 76.685L90.6483 77.5597L91.5276 78.0469L92.0101 77.1651L91.1329 76.685ZM84.8429 73.2L85.724 73.6729L91.929 62.1129L91.0479 61.64L90.1668 61.1671L83.9618 72.7271L84.8429 73.2ZM91.0479 61.64L91.3255 62.6007L95.1505 61.4957L94.8729 60.535L94.5954 59.5743L90.7704 60.6793L91.0479 61.64ZM94.8729 60.535L93.9667 60.1121C93.6111 60.8741 93.1923 61.4814 92.7208 61.9529L93.4279 62.66L94.135 63.3671C94.7968 62.7053 95.3414 61.8959 95.7791 60.9579L94.8729 60.535ZM93.4279 62.66L92.759 61.9167C92.3689 62.2678 91.9532 62.425 91.4729 62.425V63.425V64.425C92.466 64.425 93.3536 64.0722 94.0969 63.4033L93.4279 62.66ZM91.4729 63.425V62.425C90.1399 62.425 88.882 61.8848 87.675 60.6779L86.9679 61.385L86.2608 62.0921C87.7739 63.6052 89.5193 64.425 91.4729 64.425V63.425ZM86.9679 61.385L87.675 60.6779C86.5148 59.5177 85.9279 58.0776 85.9279 56.285H84.9279H83.9279C83.9279 58.5724 84.701 60.5323 86.2608 62.0921L86.9679 61.385ZM84.9279 56.285H85.9279C85.9279 54.3216 86.573 52.668 87.8707 51.2704L87.1379 50.59L86.4051 49.9095C84.7562 51.6854 83.9279 53.8284 83.9279 56.285H84.9279ZM87.1379 50.59L87.8578 51.2841C89.1987 49.8935 90.8086 49.21 92.7479 49.21V48.21V47.21C90.2672 47.21 88.1371 48.1132 86.4181 49.8959L87.1379 50.59ZM92.7479 48.21V49.21C94.5579 49.21 96.1157 49.8817 97.4681 51.2841L98.1879 50.59L98.9078 49.8959C97.2001 48.125 95.1313 47.21 92.7479 47.21V48.21ZM98.1879 50.59L97.4938 51.3098C98.8789 52.6454 99.5679 54.2812 99.5679 56.285H100.568H101.568C101.568 53.7555 100.67 51.5946 98.8821 49.8702L98.1879 50.59ZM100.568 56.285H99.5679C99.5679 57.0719 99.4195 58.0245 99.0964 59.1553L100.058 59.43L101.019 59.7047C101.376 58.4555 101.568 57.3114 101.568 56.285H100.568ZM100.058 59.43L99.0964 59.1553C98.7847 60.2463 98.1422 61.7331 97.1341 63.6371L98.0179 64.105L98.9017 64.5729C99.9337 62.6236 100.651 60.9937 101.019 59.7047L100.058 59.43ZM98.0179 64.105L97.1407 63.6249L90.2557 76.2049L91.1329 76.685L92.0101 77.1651L98.8951 64.5851L98.0179 64.105ZM91.1329 76.685L91.6176 75.8103L85.3276 72.3253L84.8429 73.2L84.3583 74.0747L90.6483 77.5597L91.1329 76.685ZM126.292 63H125.292V64H126.292V63ZM126.292 2.99V1.99H125.292V2.99H126.292ZM139.637 2.99H140.637V1.99H139.637V2.99ZM139.637 63V64H140.637V63H139.637ZM126.292 63H127.292V2.99H126.292H125.292V63H126.292ZM126.292 2.99V3.99H139.637V2.99V1.99H126.292V2.99ZM139.637 2.99H138.637V63H139.637H140.637V2.99H139.637ZM139.637 63V62H126.292V63V64H139.637V63ZM173.246 61.045L172.71 61.8894L172.717 61.8939L173.246 61.045ZM166.191 53.395L165.306 53.8608L165.312 53.8728L166.191 53.395ZM166.191 31.295L165.312 30.8172L165.306 30.8293L166.191 31.295ZM173.246 23.645L172.717 22.7961L172.71 22.8007L173.246 23.645ZM190.926 22.455L190.488 23.354L190.497 23.3583L190.926 22.455ZM196.451 26.96L195.645 27.5524L195.649 27.5582L195.653 27.5639L196.451 26.96ZM198.831 33.42H199.831V33.3852L199.828 33.3504L198.831 33.42ZM198.831 51.27L199.828 51.3396L199.831 51.3048V51.27H198.831ZM196.451 57.815L195.645 57.2226L195.642 57.2268L196.451 57.815ZM191.011 62.235L190.582 61.3317L190.582 61.3317L191.011 62.235ZM192.796 49.4L193.525 50.0839L193.53 50.0783L193.536 50.0727L192.796 49.4ZM194.156 37.245L193.261 37.6922L193.268 37.7058L193.275 37.7191L194.156 37.245ZM190.926 33.845L190.396 34.693L190.416 34.7057L190.437 34.7175L190.926 33.845ZM181.321 33.845L181.824 34.7088L181.835 34.7025L181.321 33.845ZM178.006 37.245L177.139 36.7453L177.132 36.758L177.125 36.7709L178.006 37.245ZM178.006 47.36L177.125 47.8341L177.125 47.8341L178.006 47.36ZM194.836 63H193.836V64H194.836V63ZM194.836 51.865L193.854 51.6737L193.836 51.7684V51.865H194.836ZM196.791 41.835L197.772 42.0263L197.809 41.835L197.772 41.6437L196.791 41.835ZM194.836 31.805H193.836V31.9015L193.854 31.9963L194.836 31.805ZM194.836 21.69V20.69H193.836V21.69H194.836ZM207.586 21.69H208.586V20.69H207.586V21.69ZM207.586 63V64H208.586V63H207.586ZM183.446 63.85V62.85C179.822 62.85 176.607 61.9601 173.774 60.1961L173.246 61.045L172.717 61.8939C175.891 63.8699 179.476 64.85 183.446 64.85V63.85ZM173.246 61.045L173.781 60.2007C170.986 58.4267 168.749 56.0062 167.069 52.9172L166.191 53.395L165.312 53.8728C167.145 57.2438 169.612 59.9233 172.71 61.8893L173.246 61.045ZM166.191 53.395L167.076 52.9293C165.461 49.861 164.641 46.3412 164.641 42.345H163.641H162.641C162.641 46.6221 163.521 50.469 165.306 53.8607L166.191 53.395ZM163.641 42.345H164.641C164.641 38.3488 165.461 34.829 167.076 31.7607L166.191 31.295L165.306 30.8293C163.521 34.221 162.641 38.0679 162.641 42.345H163.641ZM166.191 31.295L167.069 31.7728C168.749 28.6838 170.986 26.2633 173.781 24.4893L173.246 23.645L172.71 22.8007C169.612 24.7667 167.145 27.4462 165.312 30.8172L166.191 31.295ZM173.246 23.645L173.774 24.4939C176.607 22.7299 179.822 21.84 183.446 21.84V20.84V19.84C179.476 19.84 175.891 20.8201 172.717 22.7961L173.246 23.645ZM183.446 20.84V21.84C186.09 21.84 188.431 22.3519 190.488 23.354L190.926 22.455L191.364 21.556C189 20.4047 186.354 19.84 183.446 19.84V20.84ZM190.926 22.455L190.497 23.3583C192.622 24.3676 194.331 25.7655 195.645 27.5524L196.451 26.96L197.256 26.3676C195.737 24.3012 193.763 22.6957 191.355 21.5517L190.926 22.455ZM196.451 26.96L195.653 27.5639C196.948 29.2724 197.676 31.2383 197.833 33.4896L198.831 33.42L199.828 33.3504C199.645 30.7284 198.787 28.3876 197.248 26.3561L196.451 26.96ZM198.831 33.42H197.831V51.27H198.831H199.831V33.42H198.831ZM198.831 51.27L197.833 51.2004C197.676 53.4524 196.947 55.4519 195.645 57.2226L196.451 57.815L197.256 58.4074C198.788 56.3247 199.645 53.9609 199.828 51.3396L198.831 51.27ZM196.451 57.815L195.642 57.2268C194.388 58.9504 192.711 60.3205 190.582 61.3317L191.011 62.235L191.44 63.1383C193.844 61.9962 195.793 60.4196 197.259 58.4032L196.451 57.815ZM191.011 62.235L190.582 61.3317C188.463 62.3382 186.09 62.85 183.446 62.85V63.85V64.85C186.355 64.85 189.025 64.2851 191.44 63.1383L191.011 62.235ZM186.081 52.12V53.12C189.098 53.12 191.613 52.1236 193.525 50.0839L192.796 49.4L192.066 48.7161C190.578 50.303 188.617 51.12 186.081 51.12V52.12ZM192.796 49.4L193.536 50.0727C195.423 47.9959 196.346 45.3946 196.346 42.345H195.346H194.346C194.346 44.962 193.568 47.0641 192.056 48.7273L192.796 49.4ZM195.346 42.345H196.346C196.346 40.2781 195.919 38.4107 195.036 36.7709L194.156 37.245L193.275 37.7191C193.979 39.026 194.346 40.5586 194.346 42.345H195.346ZM194.156 37.245L195.05 36.7978C194.225 35.148 193.008 33.8652 191.414 32.9725L190.926 33.845L190.437 34.7175C191.676 35.4114 192.613 36.3953 193.261 37.6922L194.156 37.245ZM190.926 33.845L191.456 32.997C189.917 32.0351 188.141 31.57 186.166 31.57V32.57V33.57C187.817 33.57 189.215 33.9549 190.396 34.693L190.926 33.845ZM186.166 32.57V31.57C184.189 31.57 182.393 32.0353 180.806 32.9875L181.321 33.845L181.835 34.7025C183.081 33.9547 184.515 33.57 186.166 33.57V32.57ZM181.321 33.845L180.817 32.9812C179.294 33.8693 178.069 35.1336 177.139 36.7453L178.006 37.245L178.872 37.7447C179.642 36.4097 180.627 35.4074 181.824 34.7088L181.321 33.845ZM178.006 37.245L177.125 36.7709C176.242 38.4107 175.816 40.2781 175.816 42.345H176.816H177.816C177.816 40.5586 178.182 39.026 178.886 37.7191L178.006 37.245ZM176.816 42.345H175.816C175.816 44.3607 176.244 46.1986 177.125 47.8341L178.006 47.36L178.886 46.8859C178.18 45.5747 177.816 44.0693 177.816 42.345H176.816ZM178.006 47.36L177.125 47.8341C178.003 49.4637 179.233 50.7587 180.806 51.7025L181.321 50.845L181.835 49.9875C180.575 49.2313 179.595 48.203 178.886 46.8859L178.006 47.36ZM181.321 50.845L180.806 51.7025C182.388 52.6517 184.155 53.12 186.081 53.12V52.12V51.12C184.493 51.12 183.086 50.7383 181.835 49.9875L181.321 50.845ZM194.836 63H195.836V51.865H194.836H193.836V63H194.836ZM194.836 51.865L195.817 52.0563L197.772 42.0263L196.791 41.835L195.809 41.6437L193.854 51.6737L194.836 51.865ZM196.791 41.835L197.772 41.6437L195.817 31.6137L194.836 31.805L193.854 31.9963L195.809 42.0263L196.791 41.835ZM194.836 31.805H195.836V21.69H194.836H193.836V31.805H194.836ZM194.836 21.69V22.69H207.586V21.69V20.69H194.836V21.69ZM207.586 21.69H206.586V63H207.586H208.586V21.69H207.586ZM207.586 63V62H194.836V63V64H207.586V63ZM216.742 63H215.742V64H216.742V63ZM216.742 21.69V20.69H215.742V21.69H216.742ZM229.747 21.69H230.747V20.69H229.747V21.69ZM229.747 63V64H230.747V63H229.747ZM243.177 63H242.177V64H243.177V63ZM241.222 34.015L240.532 34.7384L240.549 34.7544L240.566 34.7696L241.222 34.015ZM233.062 33.08L233.51 33.9744L233.529 33.9647L233.548 33.9542L233.062 33.08ZM230.597 35.29L229.758 34.7467L229.746 34.7646L229.735 34.783L230.597 35.29ZM229.747 38.86L229.344 39.7751L230.747 40.3935V38.86H229.747ZM224.732 36.65H223.732V37.3021L224.329 37.5651L224.732 36.65ZM226.857 28.235L227.711 28.7556L227.717 28.7465L226.857 28.235ZM232.637 22.795L233.093 23.6852L233.101 23.6811L233.109 23.6768L232.637 22.795ZM248.617 22.795L248.119 23.662L248.128 23.6671L248.617 22.795ZM254.142 28.235L253.279 28.7402L253.279 28.7402L254.142 28.235ZM256.182 63V64H257.182V63H256.182ZM269.612 63H268.612V64H269.612V63ZM267.657 34.015L266.967 34.7384L266.984 34.7544L267.001 34.7696L267.657 34.015ZM259.497 33.08L259.945 33.9744L259.964 33.9647L259.983 33.9542L259.497 33.08ZM257.032 35.29L256.193 34.7467L256.181 34.7646L256.17 34.783L257.032 35.29ZM256.182 38.86L256.047 39.8508L257.182 40.0056V38.86H256.182ZM248.702 37.84L247.703 37.8078L247.674 38.709L248.567 38.8308L248.702 37.84ZM251.167 28.83L250.318 28.3017L250.315 28.307L251.167 28.83ZM257.372 22.965L257.843 23.8474L257.85 23.8436L257.372 22.965ZM274.542 22.88L274.055 23.7532L274.067 23.7599L274.079 23.7662L274.542 22.88ZM280.407 28.575L279.538 29.069L279.545 29.0808L279.552 29.0924L280.407 28.575ZM282.617 63V64H283.617V63H282.617ZM216.742 63H217.742V21.69H216.742H215.742V63H216.742ZM216.742 21.69V22.69H229.747V21.69V20.69H216.742V21.69ZM229.747 21.69H228.747V63H229.747H230.747V21.69H229.747ZM229.747 63V62H216.742V63V64H229.747V63ZM243.177 63H244.177V38.86H243.177H242.177V63H243.177ZM243.177 38.86H244.177C244.177 36.5415 243.447 34.6239 241.879 33.2604L241.222 34.015L240.566 34.7696C241.605 35.6728 242.177 36.9852 242.177 38.86H243.177ZM241.222 34.015L241.913 33.2916C240.464 31.9082 238.651 31.23 236.547 31.23V32.23V33.23C238.184 33.23 239.488 33.7418 240.532 34.7384L241.222 34.015ZM236.547 32.23V31.23C235.094 31.23 233.762 31.5473 232.577 32.2058L233.062 33.08L233.548 33.9542C234.403 33.4793 235.394 33.23 236.547 33.23V32.23ZM233.062 33.08L232.615 32.1856C231.434 32.776 230.478 33.6344 229.758 34.7467L230.597 35.29L231.437 35.8333C231.964 35.019 232.65 34.404 233.51 33.9744L233.062 33.08ZM230.597 35.29L229.735 34.783C229.057 35.936 228.747 37.312 228.747 38.86H229.747H230.747C230.747 37.5746 231.004 36.5707 231.459 35.797L230.597 35.29ZM229.747 38.86L230.151 37.9449L225.136 35.7349L224.732 36.65L224.329 37.5651L229.344 39.7751L229.747 38.86ZM224.732 36.65H225.732C225.732 33.5087 226.408 30.8923 227.711 28.7556L226.857 28.235L226.004 27.7144C224.473 30.2243 223.732 33.218 223.732 36.65H224.732ZM226.857 28.235L227.717 28.7465C229.038 26.5262 230.826 24.8451 233.093 23.6852L232.637 22.795L232.182 21.9048C229.576 23.2382 227.51 25.1838 225.998 27.7235L226.857 28.235ZM232.637 22.795L233.109 23.6768C235.385 22.4591 237.969 21.84 240.882 21.84V20.84V19.84C237.676 19.84 234.763 20.5242 232.166 21.9132L232.637 22.795ZM240.882 20.84V21.84C243.616 21.84 246.019 22.4547 248.119 23.6619L248.617 22.795L249.116 21.9281C246.682 20.5286 243.928 19.84 240.882 19.84V20.84ZM248.617 22.795L248.128 23.6671C250.295 24.8826 252.008 26.5685 253.279 28.7402L254.142 28.235L255.005 27.7298C253.557 25.2548 251.587 23.3141 249.107 21.9229L248.617 22.795ZM254.142 28.235L253.279 28.7402C254.533 30.8822 255.182 33.477 255.182 36.565H256.182H257.182C257.182 33.193 256.471 30.2344 255.005 27.7298L254.142 28.235ZM256.182 36.565H255.182V63H256.182H257.182V36.565H256.182ZM256.182 63V62H243.177V63V64H256.182V63ZM269.612 63H270.612V38.86H269.612H268.612V63H269.612ZM269.612 38.86H270.612C270.612 36.5415 269.882 34.6239 268.314 33.2604L267.657 34.015L267.001 34.7696C268.04 35.6728 268.612 36.9852 268.612 38.86H269.612ZM267.657 34.015L268.348 33.2916C266.899 31.9082 265.086 31.23 262.982 31.23V32.23V33.23C264.619 33.23 265.923 33.7418 266.967 34.7384L267.657 34.015ZM262.982 32.23V31.23C261.529 31.23 260.197 31.5473 259.012 32.2058L259.497 33.08L259.983 33.9542C260.838 33.4793 261.829 33.23 262.982 33.23V32.23ZM259.497 33.08L259.05 32.1856C257.869 32.776 256.913 33.6344 256.193 34.7467L257.032 35.29L257.872 35.8333C258.399 35.019 259.085 34.404 259.945 33.9744L259.497 33.08ZM257.032 35.29L256.17 34.783C255.492 35.936 255.182 37.312 255.182 38.86H256.182H257.182C257.182 37.5746 257.439 36.5707 257.894 35.797L257.032 35.29ZM256.182 38.86L256.317 37.8692L248.837 36.8492L248.702 37.84L248.567 38.8308L256.047 39.8508L256.182 38.86ZM248.702 37.84L249.702 37.8722C249.811 34.4975 250.597 31.6711 252.02 29.353L251.167 28.83L250.315 28.307C248.677 30.9756 247.821 34.1558 247.703 37.8078L248.702 37.84ZM251.167 28.83L252.016 29.3583C253.514 26.9514 255.454 25.1213 257.843 23.8474L257.372 22.965L256.902 22.0826C254.19 23.5287 251.994 25.6086 250.318 28.3017L251.167 28.83ZM257.372 22.965L257.85 23.8436C260.297 22.5135 263.049 21.84 266.127 21.84V20.84V19.84C262.746 19.84 259.661 20.5831 256.895 22.0864L257.372 22.965ZM266.127 20.84V21.84C269.154 21.84 271.787 22.4872 274.055 23.7532L274.542 22.88L275.03 22.0068C272.425 20.5528 269.448 19.84 266.127 19.84V20.84ZM274.542 22.88L274.079 23.7662C276.399 24.9788 278.214 26.7393 279.538 29.069L280.407 28.575L281.277 28.081C279.767 25.424 277.673 23.3879 275.006 21.9938L274.542 22.88ZM280.407 28.575L279.552 29.0924C280.912 31.3426 281.617 34.1017 281.617 37.415H282.617H283.617C283.617 33.815 282.849 30.6807 281.263 28.0576L280.407 28.575ZM282.617 37.415H281.617V63H282.617H283.617V37.415H282.617ZM282.617 63V62H269.612V63V64H282.617V63ZM1.78 147H0.78V148H1.78V147ZM1.78 86.99V85.99H0.78V86.99H1.78ZM11.3 86.99L12.1415 86.4497L11.8463 85.99H11.3V86.99ZM34.93 123.795V124.795H36.7604L35.7715 123.255L34.93 123.795ZM30.085 123.795L29.2426 123.256L28.2582 124.795H30.085V123.795ZM53.63 86.99V85.99H53.0826L52.7876 86.4511L53.63 86.99ZM63.235 86.99H64.235V85.99H63.235V86.99ZM63.235 147V148H64.235V147H63.235ZM49.89 147H48.89V148H49.89V147ZM49.89 109.515L50.1325 108.545L48.89 108.234V109.515H49.89ZM52.27 110.11L53.1116 110.65L53.8641 109.478L52.5125 109.14L52.27 110.11ZM36.885 134.08V135.08H37.4314L37.7266 134.62L36.885 134.08ZM28.045 134.08L27.2021 134.618L27.4969 135.08H28.045V134.08ZM12.745 110.11L12.494 109.142L11.1613 109.488L11.9021 110.648L12.745 110.11ZM15.04 109.515H16.04V108.223L14.789 108.547L15.04 109.515ZM15.04 147V148H16.04V147H15.04ZM1.78 147H2.78V86.99H1.78H0.78V147H1.78ZM1.78 86.99V87.99H11.3V86.99V85.99H1.78V86.99ZM11.3 86.99L10.4585 87.5303L34.0885 124.335L34.93 123.795L35.7715 123.255L12.1415 86.4497L11.3 86.99ZM34.93 123.795V122.795H30.085V123.795V124.795H34.93V123.795ZM30.085 123.795L30.9274 124.334L54.4724 87.5289L53.63 86.99L52.7876 86.4511L29.2426 123.256L30.085 123.795ZM53.63 86.99V87.99H63.235V86.99V85.99H53.63V86.99ZM63.235 86.99H62.235V147H63.235H64.235V86.99H63.235ZM63.235 147V146H49.89V147V148H63.235V147ZM49.89 147H50.89V109.515H49.89H48.89V147H49.89ZM49.89 109.515L49.6475 110.485L52.0275 111.08L52.27 110.11L52.5125 109.14L50.1325 108.545L49.89 109.515ZM52.27 110.11L51.4284 109.57L36.0434 133.54L36.885 134.08L37.7266 134.62L53.1116 110.65L52.27 110.11ZM36.885 134.08V133.08H28.045V134.08V135.08H36.885V134.08ZM28.045 134.08L28.8879 133.542L13.5879 109.572L12.745 110.11L11.9021 110.648L27.2021 134.618L28.045 134.08ZM12.745 110.11L12.996 111.078L15.291 110.483L15.04 109.515L14.789 108.547L12.494 109.142L12.745 110.11ZM15.04 109.515H14.04V147H15.04H16.04V109.515H15.04ZM15.04 147V146H1.78V147V148H15.04V147ZM80.6089 145.045L80.073 145.889L80.0803 145.894L80.6089 145.045ZM73.5539 137.395L72.6689 137.861L72.6754 137.873L73.5539 137.395ZM73.5539 115.295L72.6753 114.817L72.6689 114.829L73.5539 115.295ZM80.6089 107.645L80.0803 106.796L80.073 106.801L80.6089 107.645ZM98.2889 106.455L97.8509 107.354L97.8598 107.358L98.2889 106.455ZM103.814 110.96L103.008 111.552L103.012 111.558L103.017 111.564L103.814 110.96ZM106.194 117.42H107.194V117.385L107.191 117.35L106.194 117.42ZM106.194 135.27L107.191 135.34L107.194 135.305V135.27H106.194ZM103.814 141.815L103.008 141.223L103.005 141.227L103.814 141.815ZM98.3739 146.235L97.9448 145.332L97.9448 145.332L98.3739 146.235ZM100.159 133.4L100.888 134.084L100.894 134.078L100.899 134.073L100.159 133.4ZM101.519 121.245L100.624 121.692L100.631 121.706L100.638 121.719L101.519 121.245ZM98.2889 117.845L97.7589 118.693L97.7793 118.706L97.8003 118.718L98.2889 117.845ZM88.6839 117.845L89.1878 118.709L89.1984 118.702L88.6839 117.845ZM85.3689 121.245L84.5027 120.745L84.4954 120.758L84.4884 120.771L85.3689 121.245ZM85.3689 131.36L84.4884 131.834L84.4884 131.834L85.3689 131.36ZM102.199 147H101.199V148H102.199V147ZM102.199 135.865L101.217 135.674L101.199 135.768V135.865H102.199ZM104.154 125.835L105.135 126.026L105.173 125.835L105.135 125.644L104.154 125.835ZM102.199 115.805H101.199V115.902L101.217 115.996L102.199 115.805ZM102.199 105.69V104.69H101.199V105.69H102.199ZM114.949 105.69H115.949V104.69H114.949V105.69ZM114.949 147V148H115.949V147H114.949ZM90.8089 147.85V146.85C87.1848 146.85 83.9705 145.96 81.1374 144.196L80.6089 145.045L80.0803 145.894C83.2539 147.87 86.8396 148.85 90.8089 148.85V147.85ZM80.6089 145.045L81.1447 144.201C78.3493 142.427 76.1123 140.006 74.4324 136.917L73.5539 137.395L72.6754 137.873C74.5088 141.244 76.9751 143.923 80.073 145.889L80.6089 145.045ZM73.5539 137.395L74.4388 136.929C72.8239 133.861 72.0039 130.341 72.0039 126.345H71.0039H70.0039C70.0039 130.622 70.8838 134.469 72.6689 137.861L73.5539 137.395ZM71.0039 126.345H72.0039C72.0039 122.349 72.8239 118.829 74.4388 115.761L73.5539 115.295L72.6689 114.829C70.8838 118.221 70.0039 122.068 70.0039 126.345H71.0039ZM73.5539 115.295L74.4324 115.773C76.1123 112.684 78.3493 110.263 81.1447 108.489L80.6089 107.645L80.073 106.801C76.9751 108.767 74.5088 111.446 72.6754 114.817L73.5539 115.295ZM80.6089 107.645L81.1374 108.494C83.9705 106.73 87.1848 105.84 90.8089 105.84V104.84V103.84C86.8396 103.84 83.2539 104.82 80.0803 106.796L80.6089 107.645ZM90.8089 104.84V105.84C93.4535 105.84 95.7941 106.352 97.8509 107.354L98.2889 106.455L98.7268 105.556C96.3637 104.405 93.7175 103.84 90.8089 103.84V104.84ZM98.2889 106.455L97.8598 107.358C99.9848 108.368 101.694 109.766 103.008 111.552L103.814 110.96L104.62 110.368C103.1 108.301 101.126 106.696 98.7179 105.552L98.2889 106.455ZM103.814 110.96L103.017 111.564C104.311 113.272 105.039 115.238 105.196 117.49L106.194 117.42L107.191 117.35C107.009 114.728 106.15 112.388 104.611 110.356L103.814 110.96ZM106.194 117.42H105.194V135.27H106.194H107.194V117.42H106.194ZM106.194 135.27L105.196 135.2C105.039 137.452 104.31 139.452 103.008 141.223L103.814 141.815L104.62 142.407C106.151 140.325 107.009 137.961 107.191 135.34L106.194 135.27ZM103.814 141.815L103.005 141.227C101.752 142.95 100.074 144.32 97.9448 145.332L98.3739 146.235L98.8029 147.138C101.207 145.996 103.156 144.42 104.623 142.403L103.814 141.815ZM98.3739 146.235L97.9448 145.332C95.8259 146.338 93.4531 146.85 90.8089 146.85V147.85V148.85C93.718 148.85 96.3885 148.285 98.8029 147.138L98.3739 146.235ZM93.4439 136.12V137.12C96.4612 137.12 98.9762 136.124 100.888 134.084L100.159 133.4L99.4293 132.716C97.9415 134.303 95.9799 135.12 93.4439 135.12V136.12ZM100.159 133.4L100.899 134.073C102.787 131.996 103.709 129.395 103.709 126.345H102.709H101.709C101.709 128.962 100.931 131.064 99.4189 132.727L100.159 133.4ZM102.709 126.345H103.709C103.709 124.278 103.282 122.411 102.399 120.771L101.519 121.245L100.638 121.719C101.342 123.026 101.709 124.559 101.709 126.345H102.709ZM101.519 121.245L102.413 120.798C101.588 119.148 100.372 117.865 98.7775 116.972L98.2889 117.845L97.8003 118.718C99.0394 119.411 99.976 120.395 100.624 121.692L101.519 121.245ZM98.2889 117.845L98.8189 116.997C97.2799 116.035 95.5045 115.57 93.5289 115.57V116.57V117.57C95.1799 117.57 96.5779 117.955 97.7589 118.693L98.2889 117.845ZM93.5289 116.57V115.57C91.5525 115.57 89.7564 116.035 88.1694 116.988L88.6839 117.845L89.1984 118.702C90.4447 117.955 91.8785 117.57 93.5289 117.57V116.57ZM88.6839 117.845L88.18 116.981C86.6576 117.869 85.4325 119.134 84.5027 120.745L85.3689 121.245L86.2351 121.745C87.0052 120.41 87.9901 119.407 89.1877 118.709L88.6839 117.845ZM85.3689 121.245L84.4884 120.771C83.6054 122.411 83.1789 124.278 83.1789 126.345H84.1789H85.1789C85.1789 124.559 85.5456 123.026 86.2493 121.719L85.3689 121.245ZM84.1789 126.345H83.1789C83.1789 128.361 83.6077 130.199 84.4884 131.834L85.3689 131.36L86.2493 130.886C85.5433 129.575 85.1789 128.069 85.1789 126.345H84.1789ZM85.3689 131.36L84.4884 131.834C85.3659 133.464 86.5964 134.759 88.1694 135.702L88.6839 134.845L89.1984 133.988C87.938 133.231 86.9585 132.203 86.2493 130.886L85.3689 131.36ZM88.6839 134.845L88.1694 135.702C89.7514 136.652 91.5179 137.12 93.4439 137.12V136.12V135.12C91.8565 135.12 90.4497 134.738 89.1984 133.988L88.6839 134.845ZM102.199 147H103.199V135.865H102.199H101.199V147H102.199ZM102.199 135.865L103.18 136.056L105.135 126.026L104.154 125.835L103.172 125.644L101.217 135.674L102.199 135.865ZM104.154 125.835L105.135 125.644L103.18 115.614L102.199 115.805L101.217 115.996L103.172 126.026L104.154 125.835ZM102.199 115.805H103.199V105.69H102.199H101.199V115.805H102.199ZM102.199 105.69V106.69H114.949V105.69V104.69H102.199V105.69ZM114.949 105.69H113.949V147H114.949H115.949V105.69H114.949ZM114.949 147V146H102.199V147V148H114.949V147ZM124.106 147H123.106V148H124.106V147ZM124.106 105.69V104.69H123.106V105.69H124.106ZM137.111 105.69H138.111V104.69H137.111V105.69ZM137.111 147V148H138.111V147H137.111ZM137.111 124.305L136.495 125.093L138.111 126.355V124.305H137.111ZM131.671 120.055L130.695 119.837L130.557 120.454L131.055 120.843L131.671 120.055ZM137.111 108.835L137.833 109.527L137.111 108.835ZM152.921 105.775L152.531 106.696L152.552 106.705L152.573 106.713L152.921 105.775ZM156.916 108.495L157.7 109.116L158.226 108.45L157.656 107.822L156.916 108.495ZM149.181 118.27L148.441 118.943L149.233 119.815L149.965 118.891L149.181 118.27ZM147.056 116.825L146.684 117.753L146.684 117.753L147.056 116.825ZM138.981 118.355L138.259 117.663L138.258 117.664L138.981 118.355ZM124.106 147H125.106V105.69H124.106H123.106V147H124.106ZM124.106 105.69V106.69H137.111V105.69V104.69H124.106V105.69ZM137.111 105.69H136.111V147H137.111H138.111V105.69H137.111ZM137.111 147V146H124.106V147V148H137.111V147ZM137.111 124.305L137.726 123.517L132.286 119.267L131.671 120.055L131.055 120.843L136.495 125.093L137.111 124.305ZM131.671 120.055L132.647 120.273C133.696 115.576 135.445 112.021 137.833 109.527L137.111 108.835L136.388 108.143C133.676 110.976 131.798 114.901 130.695 119.837L131.671 120.055ZM137.111 108.835L137.833 109.527C140.153 107.104 143.408 105.84 147.736 105.84V104.84V103.84C142.996 103.84 139.169 105.239 136.388 108.143L137.111 108.835ZM147.736 104.84V105.84C149.616 105.84 151.207 106.136 152.531 106.696L152.921 105.775L153.31 104.854C151.688 104.168 149.822 103.84 147.736 103.84V104.84ZM152.921 105.775L152.573 106.713C153.948 107.222 155.146 108.036 156.176 109.168L156.916 108.495L157.656 107.822C156.418 106.461 154.953 105.461 153.268 104.837L152.921 105.775ZM156.916 108.495L156.131 107.874L148.396 117.649L149.181 118.27L149.965 118.891L157.7 109.116L156.916 108.495ZM149.181 118.27L149.921 117.597C149.243 116.852 148.405 116.288 147.427 115.897L147.056 116.825L146.684 117.753C147.406 118.042 147.985 118.441 148.441 118.943L149.181 118.27ZM147.056 116.825L147.427 115.897C146.44 115.502 145.348 115.315 144.166 115.315V116.315V117.315C145.137 117.315 145.971 117.468 146.684 117.753L147.056 116.825ZM144.166 116.315V115.315C141.782 115.315 139.778 116.077 138.259 117.663L138.981 118.355L139.703 119.047C140.79 117.913 142.242 117.315 144.166 117.315V116.315ZM138.981 118.355L138.258 117.664C136.764 119.225 136.111 121.505 136.111 124.305H137.111H138.111C138.111 121.778 138.704 120.091 139.703 119.046L138.981 118.355ZM167.633 145.13L168.109 144.25L167.633 145.13ZM159.473 137.395L160.329 136.878L159.473 137.395ZM159.473 115.295L158.623 114.768L158.621 114.772L159.473 115.295ZM167.718 107.56L168.194 108.44L168.194 108.44L167.718 107.56ZM188.203 106.455L187.811 107.375L187.823 107.38L187.835 107.385L188.203 106.455ZM195.428 111.385L196.135 112.092L196.824 111.403L196.153 110.697L195.428 111.385ZM187.098 119.715L186.353 120.382L187.058 121.17L187.805 120.422L187.098 119.715ZM183.698 117.335L183.319 118.261L183.326 118.263L183.334 118.266L183.698 117.335ZM174.348 117.845L174.837 118.718L174.848 118.711L174.348 117.845ZM170.948 121.245L170.082 120.745L170.075 120.756L170.948 121.245ZM170.948 131.36L170.067 131.834L170.074 131.847L170.082 131.86L170.948 131.36ZM183.868 135.27L184.267 136.187L184.276 136.183L184.285 136.179L183.868 135.27ZM187.353 132.72L188.064 132.017L187.316 131.261L186.608 132.053L187.353 132.72ZM195.598 141.05L196.323 141.739L196.991 141.036L196.309 140.347L195.598 141.05ZM188.288 146.235L188.673 147.158L188.681 147.155L188.689 147.151L188.288 146.235ZM179.193 147.935V146.935C175.095 146.935 171.408 146.035 168.109 144.25L167.633 145.13L167.157 146.01C170.772 147.965 174.791 148.935 179.193 148.935V147.935ZM167.633 145.13L168.109 144.25C164.805 142.463 162.218 140.009 160.329 136.878L159.473 137.395L158.617 137.912C160.695 141.355 163.547 144.057 167.157 146.01L167.633 145.13ZM159.473 137.395L160.329 136.878C158.446 133.757 157.498 130.255 157.498 126.345H156.498H155.498C155.498 130.595 156.533 134.459 158.617 137.912L159.473 137.395ZM156.498 126.345H157.498C157.498 122.376 158.447 118.877 160.325 115.818L159.473 115.295L158.621 114.772C156.532 118.173 155.498 122.041 155.498 126.345H156.498ZM159.473 115.295L160.323 115.822C162.269 112.686 164.888 110.228 168.194 108.44L167.718 107.56L167.242 106.68C163.635 108.632 160.757 111.331 158.623 114.768L159.473 115.295ZM167.718 107.56L168.194 108.44C171.491 106.656 175.206 105.755 179.363 105.755V104.755V103.755C174.906 103.755 170.859 104.724 167.242 106.68L167.718 107.56ZM179.363 104.755V105.755C182.474 105.755 185.285 106.3 187.811 107.375L188.203 106.455L188.594 105.535C185.794 104.343 182.712 103.755 179.363 103.755V104.755ZM188.203 106.455L187.835 107.385C190.414 108.406 192.702 109.964 194.702 112.073L195.428 111.385L196.153 110.697C193.961 108.386 191.432 106.658 188.571 105.525L188.203 106.455ZM195.428 111.385L194.721 110.678L186.391 119.008L187.098 119.715L187.805 120.422L196.135 112.092L195.428 111.385ZM187.098 119.715L187.843 119.048C186.779 117.859 185.516 116.973 184.062 116.404L183.698 117.335L183.334 118.266C184.486 118.717 185.49 119.418 186.353 120.382L187.098 119.715ZM183.698 117.335L184.077 116.409C182.686 115.841 181.108 115.57 179.363 115.57V116.57V117.57C180.904 117.57 182.216 117.809 183.319 118.261L183.698 117.335ZM179.363 116.57V115.57C177.335 115.57 175.488 116.033 173.848 116.979L174.348 117.845L174.848 118.711C176.154 117.957 177.65 117.57 179.363 117.57V116.57ZM174.348 117.845L173.859 116.972C172.278 117.858 171.017 119.124 170.082 120.745L170.948 121.245L171.814 121.745C172.579 120.42 173.585 119.419 174.837 118.718L174.348 117.845ZM170.948 121.245L170.075 120.756C169.184 122.348 168.758 124.194 168.758 126.26H169.758H170.758C170.758 124.472 171.125 122.975 171.82 121.734L170.948 121.245ZM169.758 126.26H168.758C168.758 128.327 169.185 130.194 170.067 131.834L170.948 131.36L171.828 130.886C171.125 129.579 170.758 128.046 170.758 126.26H169.758ZM170.948 131.36L170.082 131.86C171.02 133.485 172.308 134.773 173.933 135.711L174.433 134.845L174.933 133.979C173.612 133.217 172.576 132.181 171.814 130.86L170.948 131.36ZM174.433 134.845L173.933 135.711C175.569 136.655 177.386 137.12 179.363 137.12V136.12V135.12C177.713 135.12 176.244 134.735 174.933 133.979L174.433 134.845ZM179.363 136.12V137.12C181.174 137.12 182.815 136.818 184.267 136.187L183.868 135.27L183.469 134.353C182.314 134.855 180.952 135.12 179.363 135.12V136.12ZM183.868 135.27L184.285 136.179C185.765 135.501 187.04 134.57 188.098 133.387L187.353 132.72L186.608 132.053C185.739 133.024 184.691 133.793 183.451 134.361L183.868 135.27ZM187.353 132.72L186.642 133.423L194.887 141.753L195.598 141.05L196.309 140.347L188.064 132.017L187.353 132.72ZM195.598 141.05L194.873 140.361C192.806 142.536 190.479 144.185 187.887 145.319L188.288 146.235L188.689 147.151C191.537 145.905 194.083 144.097 196.323 141.739L195.598 141.05ZM188.288 146.235L187.903 145.312C185.321 146.388 182.422 146.935 179.193 146.935V147.935V148.935C182.651 148.935 185.815 148.349 188.673 147.158L188.288 146.235ZM208.72 145.13L208.227 146L208.235 146.005L208.244 146.01L208.72 145.13ZM200.645 137.31L201.501 136.793L201.501 136.793L200.645 137.31ZM200.645 115.295L199.793 114.772L199.793 114.772L200.645 115.295ZM208.72 107.645L209.202 108.521L209.213 108.515L208.72 107.645ZM239.915 115.295L239.059 115.812L239.063 115.818L239.915 115.295ZM239.915 137.31L240.771 137.827L240.771 137.827L239.915 137.31ZM231.84 145.13L232.322 146.006L232.333 146L231.84 145.13ZM225.21 134.93L225.698 135.803L225.711 135.795L225.724 135.787L225.21 134.93ZM228.44 131.445L227.552 130.985L227.549 130.991L227.545 130.998L228.44 131.445ZM228.44 121.245L227.559 121.719L227.563 121.726L227.567 121.734L228.44 121.245ZM225.125 117.845L224.595 118.693L224.615 118.706L224.636 118.718L225.125 117.845ZM215.435 117.845L215.923 118.718L215.936 118.71L215.949 118.702L215.435 117.845ZM212.12 121.245L213 121.719L213 121.719L212.12 121.245ZM212.12 131.445L211.232 131.905L211.236 131.912L211.239 131.919L212.12 131.445ZM215.435 134.93L214.92 135.787L214.933 135.795L214.946 135.803L215.435 134.93ZM220.28 147.935V146.935C216.182 146.935 212.494 146.035 209.196 144.25L208.72 145.13L208.244 146.01C211.859 147.965 215.878 148.935 220.28 148.935V147.935ZM208.72 145.13L209.213 144.26C205.959 142.416 203.394 139.93 201.501 136.793L200.645 137.31L199.789 137.827C201.862 141.263 204.68 143.99 208.227 146L208.72 145.13ZM200.645 137.31L201.501 136.793C199.618 133.672 198.67 130.17 198.67 126.26H197.67H196.67C196.67 130.51 197.705 134.374 199.789 137.827L200.645 137.31ZM197.67 126.26H198.67C198.67 122.35 199.618 118.879 201.497 115.818L200.645 115.295L199.793 114.772C197.705 118.171 196.67 122.01 196.67 126.26H197.67ZM200.645 115.295L201.497 115.818C203.387 112.74 205.95 110.31 209.202 108.521L208.72 107.645L208.238 106.769C204.69 108.72 201.869 111.39 199.793 114.772L200.645 115.295ZM208.72 107.645L209.213 108.515C212.447 106.682 216.128 105.755 220.28 105.755V104.755V103.755C215.818 103.755 211.792 104.755 208.227 106.775L208.72 107.645ZM220.28 104.755V105.755C224.437 105.755 228.121 106.656 231.358 108.436L231.84 107.56L232.322 106.684C228.758 104.724 224.736 103.755 220.28 103.755V104.755ZM231.84 107.56L231.358 108.436C234.605 110.222 237.167 112.677 239.059 115.812L239.915 115.295L240.771 114.778C238.696 111.339 235.874 108.638 232.322 106.684L231.84 107.56ZM239.915 115.295L239.063 115.818C240.942 118.879 241.89 122.35 241.89 126.26H242.89H243.89C243.89 122.01 242.854 118.171 240.767 114.772L239.915 115.295ZM242.89 126.26H241.89C241.89 130.17 240.942 133.672 239.059 136.793L239.915 137.31L240.771 137.827C242.854 134.374 243.89 130.51 243.89 126.26H242.89ZM239.915 137.31L239.059 136.793C237.166 139.93 234.6 142.416 231.347 144.26L231.84 145.13L232.333 146C235.879 143.99 238.697 141.263 240.771 137.827L239.915 137.31ZM231.84 145.13L231.358 144.254C228.121 146.034 224.437 146.935 220.28 146.935V147.935V148.935C224.736 148.935 228.758 147.966 232.322 146.006L231.84 145.13ZM220.28 136.12V137.12C222.295 137.12 224.111 136.691 225.698 135.803L225.21 134.93L224.721 134.057C223.475 134.755 222.005 135.12 220.28 135.12V136.12ZM225.21 134.93L225.724 135.787C227.304 134.84 228.512 133.536 229.334 131.892L228.44 131.445L227.545 130.998C226.894 132.3 225.949 133.32 224.695 134.073L225.21 134.93ZM228.44 131.445L229.328 131.905C230.203 130.217 230.63 128.328 230.63 126.26H229.63H228.63C228.63 128.046 228.263 129.613 227.552 130.985L228.44 131.445ZM229.63 126.26H230.63C230.63 124.194 230.204 122.348 229.312 120.756L228.44 121.245L227.567 121.734C228.263 122.975 228.63 124.472 228.63 126.26H229.63ZM228.44 121.245L229.32 120.771C228.44 119.136 227.201 117.862 225.613 116.972L225.125 117.845L224.636 118.718C225.882 119.415 226.853 120.408 227.559 121.719L228.44 121.245ZM225.125 117.845L225.655 116.997C224.111 116.032 222.306 115.57 220.28 115.57V116.57V117.57C221.994 117.57 223.419 117.958 224.595 118.693L225.125 117.845ZM220.28 116.57V115.57C218.303 115.57 216.507 116.035 214.92 116.988L215.435 117.845L215.949 118.702C217.196 117.955 218.629 117.57 220.28 117.57V116.57ZM215.435 117.845L214.946 116.972C213.358 117.862 212.12 119.136 211.239 120.771L212.12 121.245L213 121.719C213.706 120.408 214.678 119.415 215.923 118.718L215.435 117.845ZM212.12 121.245L211.239 120.771C210.356 122.411 209.93 124.278 209.93 126.345H210.93H211.93C211.93 124.559 212.297 123.026 213 121.719L212.12 121.245ZM210.93 126.345H209.93C209.93 128.361 210.359 130.221 211.232 131.905L212.12 131.445L213.008 130.985C212.294 129.609 211.93 128.069 211.93 126.345H210.93ZM212.12 131.445L211.239 131.919C212.117 133.549 213.347 134.844 214.92 135.787L215.435 134.93L215.949 134.073C214.689 133.316 213.709 132.288 213 130.971L212.12 131.445ZM215.435 134.93L214.946 135.803C216.529 136.689 218.316 137.12 220.28 137.12V136.12V135.12C218.617 135.12 217.174 134.758 215.923 134.057L215.435 134.93ZM257.184 147.085L256.925 148.051L256.931 148.052L257.184 147.085ZM250.639 144.45L250.125 145.307L250.139 145.316L250.154 145.324L250.639 144.45ZM245.539 140.37L244.828 139.667L244.156 140.347L244.806 141.049L245.539 140.37ZM252.934 132.89L253.669 132.212L252.959 131.443L252.223 132.187L252.934 132.89ZM257.779 136.375L257.366 137.285L257.377 137.291L257.389 137.296L257.779 136.375ZM267.384 136.885L266.914 136.003L266.901 136.01L266.888 136.017L267.384 136.885ZM267.129 132.72L266.622 133.582L266.652 133.599L266.682 133.614L267.129 132.72ZM263.389 131.275L263.105 132.234L263.122 132.239L263.138 132.243L263.389 131.275ZM253.699 127.705L254.209 126.845L254.209 126.845L253.699 127.705ZM249.959 123.965L249.097 124.471L249.101 124.477L249.105 124.484L249.959 123.965ZM250.554 110.875L251.371 111.452L251.379 111.441L250.554 110.875ZM256.334 106.2L255.921 105.29L255.921 105.29L256.334 106.2ZM274.779 106.37L274.39 107.291L274.4 107.295L274.411 107.3L274.779 106.37ZM282.089 111.725L282.801 112.428L283.421 111.801L282.876 111.107L282.089 111.725ZM274.694 119.205L273.933 119.853L274.64 120.683L275.406 119.908L274.694 119.205ZM270.274 115.975L269.909 116.906L269.92 116.91L270.274 115.975ZM262.284 115.72L262.759 116.6L262.784 116.587L262.809 116.572L262.284 115.72ZM266.364 120.905L266.113 121.873L266.113 121.873L266.364 120.905ZM271.209 122.35L271.526 121.401L271.526 121.401L271.209 122.35ZM276.054 124.645L276.587 123.799L276.587 123.799L276.054 124.645ZM279.794 128.555L278.932 129.061L278.936 129.067L278.94 129.074L279.794 128.555ZM276.649 144.45L276.035 143.661L276.028 143.666L276.649 144.45ZM264.409 148.02V147.02C262.059 147.02 259.736 146.72 257.438 146.118L257.184 147.085L256.931 148.052C259.393 148.697 261.886 149.02 264.409 149.02V148.02ZM257.184 147.085L257.444 146.119C255.197 145.516 253.091 144.668 251.125 143.576L250.639 144.45L250.154 145.324C252.267 146.498 254.525 147.407 256.925 148.051L257.184 147.085ZM250.639 144.45L251.154 143.593C249.243 142.446 247.619 141.144 246.273 139.691L245.539 140.37L244.806 141.049C246.293 142.656 248.069 144.074 250.125 145.307L250.639 144.45ZM245.539 140.37L246.251 141.073L253.646 133.593L252.934 132.89L252.223 132.187L244.828 139.667L245.539 140.37ZM252.934 132.89L252.2 133.568C253.652 135.142 255.377 136.382 257.366 137.285L257.779 136.375L258.193 135.465C256.442 134.668 254.937 133.585 253.669 132.212L252.934 132.89ZM257.779 136.375L257.389 137.296C259.393 138.146 261.567 138.565 263.899 138.565V137.565V136.565C261.812 136.565 259.906 136.191 258.17 135.454L257.779 136.375ZM263.899 137.565V138.565C265.5 138.565 266.866 138.333 267.881 137.753L267.384 136.885L266.888 136.017C266.316 136.344 265.359 136.565 263.899 136.565V137.565ZM267.384 136.885L267.855 137.767C268.947 137.185 269.659 136.263 269.659 135.015H268.659H267.659C267.659 135.353 267.521 135.679 266.914 136.003L267.384 136.885ZM268.659 135.015H269.659C269.659 134.33 269.485 133.686 269.109 133.122C268.737 132.563 268.205 132.14 267.577 131.826L267.129 132.72L266.682 133.614C267.074 133.81 267.307 134.024 267.445 134.231C267.579 134.431 267.659 134.68 267.659 135.015H268.659ZM267.129 132.72L267.636 131.858C266.568 131.229 265.226 130.718 263.64 130.307L263.389 131.275L263.138 132.243C264.613 132.625 265.765 133.077 266.622 133.582L267.129 132.72ZM263.389 131.275L263.674 130.316C262.145 129.863 260.531 129.382 258.832 128.872L258.544 129.83L258.257 130.788C259.958 131.298 261.574 131.78 263.105 132.234L263.389 131.275ZM258.544 129.83L258.832 128.872C257.21 128.386 255.669 127.71 254.209 126.845L253.699 127.705L253.19 128.565C254.789 129.513 256.479 130.254 258.257 130.788L258.544 129.83ZM253.699 127.705L254.209 126.845C252.827 126.025 251.696 124.899 250.814 123.446L249.959 123.965L249.105 124.484C250.149 126.205 251.512 127.571 253.19 128.565L253.699 127.705ZM249.959 123.965L250.822 123.459C249.972 122.01 249.514 120.129 249.514 117.76H248.514H247.514C247.514 120.378 248.02 122.634 249.097 124.471L249.959 123.965ZM248.514 117.76H249.514C249.514 115.275 250.146 113.188 251.371 111.452L250.554 110.875L249.737 110.298C248.243 112.415 247.514 114.918 247.514 117.76H248.514ZM250.554 110.875L251.379 111.441C252.622 109.627 254.397 108.179 256.748 107.11L256.334 106.2L255.921 105.29C253.285 106.488 251.206 108.156 249.73 110.309L250.554 110.875ZM256.334 106.2L256.748 107.11C259.086 106.048 261.858 105.5 265.089 105.5V104.5V103.5C261.634 103.5 258.569 104.086 255.921 105.29L256.334 106.2ZM265.089 104.5V105.5C268.482 105.5 271.578 106.101 274.39 107.291L274.779 106.37L275.169 105.449C272.088 104.145 268.723 103.5 265.089 103.5V104.5ZM274.779 106.37L274.411 107.3C277.261 108.429 279.55 110.111 281.303 112.343L282.089 111.725L282.876 111.107C280.889 108.579 278.304 106.691 275.148 105.44L274.779 106.37ZM282.089 111.725L281.378 111.022L273.983 118.502L274.694 119.205L275.406 119.908L282.801 112.428L282.089 111.725ZM274.694 119.205L275.456 118.557C274.059 116.917 272.451 115.731 270.629 115.04L270.274 115.975L269.92 116.91C271.384 117.465 272.723 118.433 273.933 119.853L274.694 119.205ZM270.274 115.975L270.64 115.044C268.95 114.38 267.268 114.04 265.599 114.04V115.04V116.04C266.991 116.04 268.425 116.323 269.909 116.906L270.274 115.975ZM265.599 115.04V114.04C264.056 114.04 262.73 114.272 261.76 114.868L262.284 115.72L262.809 116.572C263.312 116.262 264.196 116.04 265.599 116.04V115.04ZM262.284 115.72L261.81 114.84C261.318 115.105 260.898 115.464 260.605 115.937C260.311 116.413 260.179 116.948 260.179 117.505H261.179H262.179C262.179 117.269 262.232 117.109 262.306 116.99C262.381 116.868 262.514 116.732 262.759 116.6L262.284 115.72ZM261.179 117.505H260.179C260.179 118.834 260.974 119.803 262.157 120.429L262.624 119.545L263.092 118.661C262.348 118.267 262.179 117.876 262.179 117.505H261.179ZM262.624 119.545L262.157 120.429C263.212 120.987 264.539 121.465 266.113 121.873L266.364 120.905L266.615 119.937C265.13 119.552 263.964 119.123 263.092 118.661L262.624 119.545ZM266.364 120.905L266.113 121.873C267.619 122.263 269.212 122.738 270.893 123.299L271.209 122.35L271.526 121.401C269.807 120.828 268.17 120.34 266.615 119.937L266.364 120.905ZM271.209 122.35L270.893 123.299C272.516 123.84 274.059 124.57 275.522 125.491L276.054 124.645L276.587 123.799C274.99 122.793 273.302 121.994 271.526 121.401L271.209 122.35ZM276.054 124.645L275.522 125.491C276.909 126.365 278.045 127.548 278.932 129.061L279.794 128.555L280.657 128.049C279.617 126.275 278.26 124.852 276.587 123.799L276.054 124.645ZM279.794 128.555L278.94 129.074C279.777 130.453 280.239 132.351 280.239 134.845H281.239H282.239C282.239 132.126 281.738 129.83 280.649 128.036L279.794 128.555ZM281.239 134.845H280.239C280.239 138.573 278.841 141.478 276.035 143.661L276.649 144.45L277.263 145.239C280.577 142.662 282.239 139.163 282.239 134.845H281.239ZM276.649 144.45L276.028 143.666C273.254 145.865 269.418 147.02 264.409 147.02V148.02V149.02C269.714 149.02 274.038 147.795 277.27 145.234L276.649 144.45Z" fill="black" mask="url(#path-1-outside-1_27_17)"/>
</svg>
