<svg width="284" height="234" viewBox="0 0 284 234" fill="none" xmlns="http://www.w3.org/2000/svg">
<mask id="path-1-outside-1_166_14" maskUnits="userSpaceOnUse" x="0" y="0" width="284" height="234" fill="black">
<rect fill="white" width="284" height="234"/>
<path d="M1.78 63V2.99H15.125V63H1.78ZM38.925 63V2.99H52.355V63H38.925ZM9.77 37.925V26.365H43.345V37.925H9.77ZM62.6798 63V21.69H75.6848V63H62.6798ZM69.2248 15.995C67.1848 15.995 65.4848 15.315 64.1248 13.955C62.8215 12.5383 62.1698 10.8383 62.1698 8.855C62.1698 6.815 62.8215 5.115 64.1248 3.755C65.4848 2.395 67.1848 1.715 69.2248 1.715C71.2648 1.715 72.9365 2.395 74.2398 3.755C75.5432 5.115 76.1948 6.815 76.1948 8.855C76.1948 10.8383 75.5432 12.5383 74.2398 13.955C72.9365 15.315 71.2648 15.995 69.2248 15.995ZM84.8429 73.2L91.0479 61.64L94.8729 60.535C94.4763 61.385 93.9946 62.0933 93.4279 62.66C92.8613 63.17 92.2096 63.425 91.4729 63.425C89.8296 63.425 88.3279 62.745 86.9679 61.385C85.6079 60.025 84.9279 58.325 84.9279 56.285C84.9279 54.075 85.6646 52.1767 87.1379 50.59C88.6679 49.0033 90.5379 48.21 92.7479 48.21C94.8446 48.21 96.6579 49.0033 98.1879 50.59C99.7746 52.12 100.568 54.0183 100.568 56.285C100.568 57.1917 100.398 58.24 100.058 59.43C99.7179 60.62 99.0379 62.1783 98.0179 64.105L91.1329 76.685L84.8429 73.2ZM1.78 147V86.99H15.125V147H1.78ZM58.9339 147.85C55.1372 147.85 51.7372 146.915 48.7339 145.045C45.7872 143.175 43.4355 140.625 41.6789 137.395C39.9789 134.165 39.1289 130.482 39.1289 126.345C39.1289 122.208 39.9789 118.525 41.6789 115.295C43.4355 112.065 45.7872 109.515 48.7339 107.645C51.7372 105.775 55.1372 104.84 58.9339 104.84C61.7105 104.84 64.2039 105.378 66.4139 106.455C68.6805 107.532 70.5222 109.033 71.9389 110.96C73.3555 112.83 74.1489 114.983 74.3189 117.42V135.27C74.1489 137.707 73.3555 139.888 71.9389 141.815C70.5789 143.685 68.7655 145.158 66.4989 146.235C64.2322 147.312 61.7105 147.85 58.9339 147.85ZM61.5689 136.12C64.3455 136.12 66.5839 135.213 68.2839 133.4C69.9839 131.53 70.8339 129.178 70.8339 126.345C70.8339 124.418 70.4372 122.718 69.6439 121.245C68.9072 119.772 67.8305 118.638 66.4139 117.845C65.0539 116.995 63.4672 116.57 61.6539 116.57C59.8405 116.57 58.2255 116.995 56.8089 117.845C55.4489 118.638 54.3439 119.772 53.4939 121.245C52.7005 122.718 52.3039 124.418 52.3039 126.345C52.3039 128.215 52.7005 129.887 53.4939 131.36C54.2872 132.833 55.3922 133.995 56.8089 134.845C58.2255 135.695 59.8122 136.12 61.5689 136.12ZM70.3239 147V135.865L72.2789 125.835L70.3239 115.805V105.69H83.0739V147H70.3239ZM92.2306 147V105.69H105.236V147H92.2306ZM118.666 147V122.86C118.666 120.763 118.014 119.148 116.711 118.015C115.464 116.825 113.906 116.23 112.036 116.23C110.732 116.23 109.571 116.513 108.551 117.08C107.531 117.59 106.709 118.327 106.086 119.29C105.519 120.253 105.236 121.443 105.236 122.86L100.221 120.65C100.221 117.363 100.929 114.558 102.346 112.235C103.762 109.855 105.689 108.042 108.126 106.795C110.562 105.492 113.311 104.84 116.371 104.84C119.261 104.84 121.839 105.492 124.106 106.795C126.429 108.098 128.271 109.912 129.631 112.235C130.991 114.558 131.671 117.335 131.671 120.565V147H118.666ZM145.101 147V122.86C145.101 120.763 144.449 119.148 143.146 118.015C141.899 116.825 140.341 116.23 138.471 116.23C137.167 116.23 136.006 116.513 134.986 117.08C133.966 117.59 133.144 118.327 132.521 119.29C131.954 120.253 131.671 121.443 131.671 122.86L124.191 121.84C124.304 118.327 125.126 115.323 126.656 112.83C128.242 110.28 130.311 108.325 132.861 106.965C135.467 105.548 138.386 104.84 141.616 104.84C144.789 104.84 147.594 105.52 150.031 106.88C152.524 108.183 154.479 110.082 155.896 112.575C157.369 115.012 158.106 117.958 158.106 121.415V147H145.101ZM1.78 231V170.99H11.3L34.93 207.795H30.085L53.63 170.99H63.235V231H49.89V193.515L52.27 194.11L36.885 218.08H28.045L12.745 194.11L15.04 193.515V231H1.78ZM90.8089 231.85C87.0122 231.85 83.6122 230.915 80.6089 229.045C77.6622 227.175 75.3105 224.625 73.5539 221.395C71.8539 218.165 71.0039 214.482 71.0039 210.345C71.0039 206.208 71.8539 202.525 73.5539 199.295C75.3105 196.065 77.6622 193.515 80.6089 191.645C83.6122 189.775 87.0122 188.84 90.8089 188.84C93.5855 188.84 96.0789 189.378 98.2889 190.455C100.556 191.532 102.397 193.033 103.814 194.96C105.231 196.83 106.024 198.983 106.194 201.42V219.27C106.024 221.707 105.231 223.888 103.814 225.815C102.454 227.685 100.641 229.158 98.3739 230.235C96.1072 231.312 93.5855 231.85 90.8089 231.85ZM93.4439 220.12C96.2205 220.12 98.4589 219.213 100.159 217.4C101.859 215.53 102.709 213.178 102.709 210.345C102.709 208.418 102.312 206.718 101.519 205.245C100.782 203.772 99.7055 202.638 98.2889 201.845C96.9289 200.995 95.3422 200.57 93.5289 200.57C91.7155 200.57 90.1005 200.995 88.6839 201.845C87.3239 202.638 86.2189 203.772 85.3689 205.245C84.5755 206.718 84.1789 208.418 84.1789 210.345C84.1789 212.215 84.5755 213.887 85.3689 215.36C86.1622 216.833 87.2672 217.995 88.6839 218.845C90.1005 219.695 91.6872 220.12 93.4439 220.12ZM102.199 231V219.865L104.154 209.835L102.199 199.805V189.69H114.949V231H102.199ZM124.106 231V189.69H137.111V231H124.106ZM137.111 208.305L131.671 204.055C132.747 199.238 134.561 195.498 137.111 192.835C139.661 190.172 143.202 188.84 147.736 188.84C149.719 188.84 151.447 189.152 152.921 189.775C154.451 190.342 155.782 191.248 156.916 192.495L149.181 202.27C148.614 201.647 147.906 201.165 147.056 200.825C146.206 200.485 145.242 200.315 144.166 200.315C142.012 200.315 140.284 200.995 138.981 202.355C137.734 203.658 137.111 205.642 137.111 208.305ZM179.193 231.935C174.943 231.935 171.09 231 167.633 229.13C164.176 227.26 161.456 224.682 159.473 221.395C157.49 218.108 156.498 214.425 156.498 210.345C156.498 206.208 157.49 202.525 159.473 199.295C161.513 196.008 164.261 193.43 167.718 191.56C171.175 189.69 175.056 188.755 179.363 188.755C182.593 188.755 185.54 189.322 188.203 190.455C190.923 191.532 193.331 193.175 195.428 195.385L187.098 203.715C186.135 202.638 185.001 201.845 183.698 201.335C182.451 200.825 181.006 200.57 179.363 200.57C177.493 200.57 175.821 200.995 174.348 201.845C172.931 202.638 171.798 203.772 170.948 205.245C170.155 206.662 169.758 208.333 169.758 210.26C169.758 212.187 170.155 213.887 170.948 215.36C171.798 216.833 172.96 217.995 174.433 218.845C175.906 219.695 177.55 220.12 179.363 220.12C181.063 220.12 182.565 219.837 183.868 219.27C185.228 218.647 186.39 217.797 187.353 216.72L195.598 225.05C193.445 227.317 191.008 229.045 188.288 230.235C185.568 231.368 182.536 231.935 179.193 231.935ZM220.28 231.935C216.03 231.935 212.176 231 208.72 229.13C205.32 227.203 202.628 224.597 200.645 221.31C198.661 218.023 197.67 214.34 197.67 210.26C197.67 206.18 198.661 202.525 200.645 199.295C202.628 196.065 205.32 193.515 208.72 191.645C212.12 189.718 215.973 188.755 220.28 188.755C224.586 188.755 228.44 189.69 231.84 191.56C235.24 193.43 237.931 196.008 239.915 199.295C241.898 202.525 242.89 206.18 242.89 210.26C242.89 214.34 241.898 218.023 239.915 221.31C237.931 224.597 235.24 227.203 231.84 229.13C228.44 231 224.586 231.935 220.28 231.935ZM220.28 220.12C222.15 220.12 223.793 219.723 225.21 218.93C226.626 218.08 227.703 216.918 228.44 215.445C229.233 213.915 229.63 212.187 229.63 210.26C229.63 208.333 229.233 206.662 228.44 205.245C227.646 203.772 226.541 202.638 225.125 201.845C223.765 200.995 222.15 200.57 220.28 200.57C218.466 200.57 216.851 200.995 215.435 201.845C214.018 202.638 212.913 203.772 212.12 205.245C211.326 206.718 210.93 208.418 210.93 210.345C210.93 212.215 211.326 213.915 212.12 215.445C212.913 216.918 214.018 218.08 215.435 218.93C216.851 219.723 218.466 220.12 220.28 220.12ZM264.409 232.02C261.973 232.02 259.564 231.708 257.184 231.085C254.861 230.462 252.679 229.583 250.639 228.45C248.656 227.26 246.956 225.9 245.539 224.37L252.934 216.89C254.294 218.363 255.909 219.525 257.779 220.375C259.649 221.168 261.689 221.565 263.899 221.565C265.429 221.565 266.591 221.338 267.384 220.885C268.234 220.432 268.659 219.808 268.659 219.015C268.659 217.995 268.149 217.23 267.129 216.72C266.166 216.153 264.919 215.672 263.389 215.275C261.859 214.822 260.244 214.34 258.544 213.83C256.844 213.32 255.229 212.612 253.699 211.705C252.169 210.798 250.923 209.552 249.959 207.965C248.996 206.322 248.514 204.253 248.514 201.76C248.514 199.097 249.194 196.802 250.554 194.875C251.914 192.892 253.841 191.333 256.334 190.2C258.828 189.067 261.746 188.5 265.089 188.5C268.603 188.5 271.833 189.123 274.779 190.37C277.783 191.56 280.219 193.345 282.089 195.725L274.694 203.205C273.391 201.675 271.918 200.598 270.274 199.975C268.688 199.352 267.129 199.04 265.599 199.04C264.126 199.04 263.021 199.267 262.284 199.72C261.548 200.117 261.179 200.712 261.179 201.505C261.179 202.355 261.661 203.035 262.624 203.545C263.588 204.055 264.834 204.508 266.364 204.905C267.894 205.302 269.509 205.783 271.209 206.35C272.909 206.917 274.524 207.682 276.054 208.645C277.584 209.608 278.831 210.912 279.794 212.555C280.758 214.142 281.239 216.238 281.239 218.845C281.239 222.868 279.709 226.07 276.649 228.45C273.646 230.83 269.566 232.02 264.409 232.02Z"/>
</mask>
<path d="M1.78 63H0.78V64H1.78V63ZM1.78 2.99V1.99H0.78V2.99H1.78ZM15.125 2.99H16.125V1.99H15.125V2.99ZM15.125 63V64H16.125V63H15.125ZM38.925 63H37.925V64H38.925V63ZM38.925 2.99V1.99H37.925V2.99H38.925ZM52.355 2.99H53.355V1.99H52.355V2.99ZM52.355 63V64H53.355V63H52.355ZM9.77 37.925H8.77V38.925H9.77V37.925ZM9.77 26.365V25.365H8.77V26.365H9.77ZM43.345 26.365H44.345V25.365H43.345V26.365ZM43.345 37.925V38.925H44.345V37.925H43.345ZM1.78 63H2.78V2.99H1.78H0.78V63H1.78ZM1.78 2.99V3.99H15.125V2.99V1.99H1.78V2.99ZM15.125 2.99H14.125V63H15.125H16.125V2.99H15.125ZM15.125 63V62H1.78V63V64H15.125V63ZM38.925 63H39.925V2.99H38.925H37.925V63H38.925ZM38.925 2.99V3.99H52.355V2.99V1.99H38.925V2.99ZM52.355 2.99H51.355V63H52.355H53.355V2.99H52.355ZM52.355 63V62H38.925V63V64H52.355V63ZM9.77 37.925H10.77V26.365H9.77H8.77V37.925H9.77ZM9.77 26.365V27.365H43.345V26.365V25.365H9.77V26.365ZM43.345 26.365H42.345V37.925H43.345H44.345V26.365H43.345ZM43.345 37.925V36.925H9.77V37.925V38.925H43.345V37.925ZM62.6798 63H61.6798V64H62.6798V63ZM62.6798 21.69V20.69H61.6798V21.69H62.6798ZM75.6848 21.69H76.6848V20.69H75.6848V21.69ZM75.6848 63V64H76.6848V63H75.6848ZM64.1248 13.955L63.3889 14.6321L63.403 14.6474L63.4177 14.6621L64.1248 13.955ZM64.1248 3.755L63.4177 3.04789L63.4102 3.05541L63.4029 3.06309L64.1248 3.755ZM74.2398 13.955L74.9618 14.6469L74.9689 14.6395L74.9758 14.6321L74.2398 13.955ZM62.6798 63H63.6798V21.69H62.6798H61.6798V63H62.6798ZM62.6798 21.69V22.69H75.6848V21.69V20.69H62.6798V21.69ZM75.6848 21.69H74.6848V63H75.6848H76.6848V21.69H75.6848ZM75.6848 63V62H62.6798V63V64H75.6848V63ZM69.2248 15.995V14.995C67.4322 14.995 65.9922 14.4081 64.832 13.2479L64.1248 13.955L63.4177 14.6621C64.9775 16.2219 66.9375 16.995 69.2248 16.995V15.995ZM64.1248 13.955L64.8608 13.2779C63.7329 12.0519 63.1698 10.5959 63.1698 8.855H62.1698H61.1698C61.1698 11.0808 61.9102 13.0247 63.3889 14.6321L64.1248 13.955ZM62.1698 8.855H63.1698C63.1698 7.04939 63.7375 5.60446 64.8468 4.4469L64.1248 3.755L63.4029 3.06309C61.9055 4.62553 61.1698 6.5806 61.1698 8.855H62.1698ZM64.1248 3.755L64.832 4.4621C65.9922 3.3019 67.4322 2.715 69.2248 2.715V1.715V0.714999C66.9375 0.714999 64.9775 1.4881 63.4177 3.04789L64.1248 3.755ZM69.2248 1.715V2.715C71.0174 2.715 72.4198 3.30115 73.5179 4.4469L74.2398 3.755L74.9618 3.06309C73.4532 1.48885 71.5123 0.714999 69.2248 0.714999V1.715ZM74.2398 3.755L73.5179 4.4469C74.6272 5.60446 75.1948 7.04939 75.1948 8.855H76.1948H77.1948C77.1948 6.5806 76.4592 4.62553 74.9618 3.06309L74.2398 3.755ZM76.1948 8.855H75.1948C75.1948 10.5959 74.6318 12.0519 73.5039 13.2779L74.2398 13.955L74.9758 14.6321C76.4545 13.0247 77.1948 11.0808 77.1948 8.855H76.1948ZM74.2398 13.955L73.5179 13.2631C72.4198 14.4088 71.0174 14.995 69.2248 14.995V15.995V16.995C71.5123 16.995 73.4532 16.2212 74.9618 14.6469L74.2398 13.955ZM84.8429 73.2L83.9618 72.7271L83.4952 73.5965L84.3583 74.0747L84.8429 73.2ZM91.0479 61.64L90.7704 60.6793L90.3659 60.7961L90.1668 61.1671L91.0479 61.64ZM94.8729 60.535L95.7791 60.9579L96.7099 58.9634L94.5954 59.5743L94.8729 60.535ZM93.4279 62.66L94.0969 63.4033L94.1164 63.3857L94.135 63.3671L93.4279 62.66ZM86.9679 61.385L86.2608 62.0921L86.2608 62.0921L86.9679 61.385ZM87.1379 50.59L86.4181 49.8959L86.4115 49.9026L86.4051 49.9095L87.1379 50.59ZM98.1879 50.59L97.4681 51.2841L97.4807 51.2972L97.4938 51.3098L98.1879 50.59ZM100.058 59.43L99.0964 59.1553L99.0964 59.1553L100.058 59.43ZM98.0179 64.105L98.8952 64.5851L98.9017 64.5729L98.0179 64.105ZM91.1329 76.685L90.6483 77.5597L91.5276 78.0469L92.0101 77.1651L91.1329 76.685ZM84.8429 73.2L85.724 73.6729L91.929 62.1129L91.0479 61.64L90.1668 61.1671L83.9618 72.7271L84.8429 73.2ZM91.0479 61.64L91.3255 62.6007L95.1505 61.4957L94.8729 60.535L94.5954 59.5743L90.7704 60.6793L91.0479 61.64ZM94.8729 60.535L93.9667 60.1121C93.6111 60.8741 93.1923 61.4814 92.7208 61.9529L93.4279 62.66L94.135 63.3671C94.7968 62.7053 95.3414 61.8959 95.7791 60.9579L94.8729 60.535ZM93.4279 62.66L92.759 61.9167C92.3689 62.2678 91.9532 62.425 91.4729 62.425V63.425V64.425C92.466 64.425 93.3536 64.0722 94.0969 63.4033L93.4279 62.66ZM91.4729 63.425V62.425C90.1399 62.425 88.882 61.8848 87.675 60.6779L86.9679 61.385L86.2608 62.0921C87.7739 63.6052 89.5193 64.425 91.4729 64.425V63.425ZM86.9679 61.385L87.675 60.6779C86.5148 59.5177 85.9279 58.0776 85.9279 56.285H84.9279H83.9279C83.9279 58.5724 84.701 60.5323 86.2608 62.0921L86.9679 61.385ZM84.9279 56.285H85.9279C85.9279 54.3216 86.573 52.668 87.8707 51.2704L87.1379 50.59L86.4051 49.9095C84.7562 51.6854 83.9279 53.8284 83.9279 56.285H84.9279ZM87.1379 50.59L87.8578 51.2841C89.1987 49.8935 90.8086 49.21 92.7479 49.21V48.21V47.21C90.2672 47.21 88.1371 48.1132 86.4181 49.8959L87.1379 50.59ZM92.7479 48.21V49.21C94.5579 49.21 96.1157 49.8817 97.4681 51.2841L98.1879 50.59L98.9078 49.8959C97.2001 48.125 95.1313 47.21 92.7479 47.21V48.21ZM98.1879 50.59L97.4938 51.3098C98.8789 52.6454 99.5679 54.2812 99.5679 56.285H100.568H101.568C101.568 53.7555 100.67 51.5946 98.8821 49.8702L98.1879 50.59ZM100.568 56.285H99.5679C99.5679 57.0719 99.4195 58.0245 99.0964 59.1553L100.058 59.43L101.019 59.7047C101.376 58.4555 101.568 57.3114 101.568 56.285H100.568ZM100.058 59.43L99.0964 59.1553C98.7847 60.2463 98.1422 61.7331 97.1341 63.6371L98.0179 64.105L98.9017 64.5729C99.9337 62.6236 100.651 60.9937 101.019 59.7047L100.058 59.43ZM98.0179 64.105L97.1407 63.6249L90.2557 76.2049L91.1329 76.685L92.0101 77.1651L98.8951 64.5851L98.0179 64.105ZM91.1329 76.685L91.6176 75.8103L85.3276 72.3253L84.8429 73.2L84.3583 74.0747L90.6483 77.5597L91.1329 76.685ZM1.78 147H0.78V148H1.78V147ZM1.78 86.99V85.99H0.78V86.99H1.78ZM15.125 86.99H16.125V85.99H15.125V86.99ZM15.125 147V148H16.125V147H15.125ZM1.78 147H2.78V86.99H1.78H0.78V147H1.78ZM1.78 86.99V87.99H15.125V86.99V85.99H1.78V86.99ZM15.125 86.99H14.125V147H15.125H16.125V86.99H15.125ZM15.125 147V146H1.78V147V148H15.125V147ZM48.7339 145.045L48.198 145.889L48.2053 145.894L48.7339 145.045ZM41.6789 137.395L40.7939 137.861L40.8004 137.873L41.6789 137.395ZM41.6789 115.295L40.8003 114.817L40.7939 114.829L41.6789 115.295ZM48.7339 107.645L48.2053 106.796L48.198 106.801L48.7339 107.645ZM66.4139 106.455L65.9759 107.354L65.9848 107.358L66.4139 106.455ZM71.9389 110.96L71.1332 111.552L71.1375 111.558L71.1418 111.564L71.9389 110.96ZM74.3189 117.42H75.3189V117.385L75.3164 117.35L74.3189 117.42ZM74.3189 135.27L75.3164 135.34L75.3189 135.305V135.27H74.3189ZM71.9389 141.815L71.1332 141.223L71.1301 141.227L71.9389 141.815ZM66.4989 146.235L66.0698 145.332L66.0698 145.332L66.4989 146.235ZM68.2839 133.4L69.0134 134.084L69.0187 134.078L69.0238 134.073L68.2839 133.4ZM69.6439 121.245L68.7494 121.692L68.7562 121.706L68.7634 121.719L69.6439 121.245ZM66.4139 117.845L65.8839 118.693L65.9043 118.706L65.9253 118.718L66.4139 117.845ZM56.8089 117.845L57.3128 118.709L57.3234 118.702L56.8089 117.845ZM53.4939 121.245L52.6277 120.745L52.6204 120.758L52.6134 120.771L53.4939 121.245ZM53.4939 131.36L52.6134 131.834L52.6134 131.834L53.4939 131.36ZM70.3239 147H69.3239V148H70.3239V147ZM70.3239 135.865L69.3423 135.674L69.3239 135.768V135.865H70.3239ZM72.2789 125.835L73.2604 126.026L73.2977 125.835L73.2604 125.644L72.2789 125.835ZM70.3239 115.805H69.3239V115.902L69.3423 115.996L70.3239 115.805ZM70.3239 105.69V104.69H69.3239V105.69H70.3239ZM83.0739 105.69H84.0739V104.69H83.0739V105.69ZM83.0739 147V148H84.0739V147H83.0739ZM58.9339 147.85V146.85C55.3098 146.85 52.0955 145.96 49.2624 144.196L48.7339 145.045L48.2053 145.894C51.3789 147.87 54.9646 148.85 58.9339 148.85V147.85ZM48.7339 145.045L49.2697 144.201C46.4743 142.427 44.2373 140.006 42.5574 136.917L41.6789 137.395L40.8004 137.873C42.6338 141.244 45.1001 143.923 48.198 145.889L48.7339 145.045ZM41.6789 137.395L42.5638 136.929C40.9489 133.861 40.1289 130.341 40.1289 126.345H39.1289H38.1289C38.1289 130.622 39.0088 134.469 40.7939 137.861L41.6789 137.395ZM39.1289 126.345H40.1289C40.1289 122.349 40.9489 118.829 42.5638 115.761L41.6789 115.295L40.7939 114.829C39.0088 118.221 38.1289 122.068 38.1289 126.345H39.1289ZM41.6789 115.295L42.5574 115.773C44.2373 112.684 46.4743 110.263 49.2697 108.489L48.7339 107.645L48.198 106.801C45.1001 108.767 42.6338 111.446 40.8004 114.817L41.6789 115.295ZM48.7339 107.645L49.2624 108.494C52.0955 106.73 55.3098 105.84 58.9339 105.84V104.84V103.84C54.9646 103.84 51.3789 104.82 48.2053 106.796L48.7339 107.645ZM58.9339 104.84V105.84C61.5785 105.84 63.9191 106.352 65.9759 107.354L66.4139 106.455L66.8518 105.556C64.4887 104.405 61.8425 103.84 58.9339 103.84V104.84ZM66.4139 106.455L65.9848 107.358C68.1098 108.368 69.8193 109.766 71.1332 111.552L71.9389 110.96L72.7445 110.368C71.2251 108.301 69.2513 106.696 66.8429 105.552L66.4139 106.455ZM71.9389 110.96L71.1418 111.564C72.4362 113.272 73.1642 115.238 73.3213 117.49L74.3189 117.42L75.3164 117.35C75.1335 114.728 74.2749 112.388 72.736 110.356L71.9389 110.96ZM74.3189 117.42H73.3189V135.27H74.3189H75.3189V117.42H74.3189ZM74.3189 135.27L73.3213 135.2C73.1642 137.452 72.4352 139.452 71.1332 141.223L71.9389 141.815L72.7445 142.407C74.2759 140.325 75.1336 137.961 75.3164 135.34L74.3189 135.27ZM71.9389 141.815L71.1301 141.227C69.8766 142.95 68.1988 144.32 66.0698 145.332L66.4989 146.235L66.9279 147.138C69.3323 145.996 71.2811 144.42 72.7476 142.403L71.9389 141.815ZM66.4989 146.235L66.0698 145.332C63.9509 146.338 61.5781 146.85 58.9339 146.85V147.85V148.85C61.843 148.85 64.5135 148.285 66.9279 147.138L66.4989 146.235ZM61.5689 136.12V137.12C64.5862 137.12 67.1012 136.124 69.0134 134.084L68.2839 133.4L67.5543 132.716C66.0665 134.303 64.1049 135.12 61.5689 135.12V136.12ZM68.2839 133.4L69.0238 134.073C70.9118 131.996 71.8339 129.395 71.8339 126.345H70.8339H69.8339C69.8339 128.962 69.056 131.064 67.5439 132.727L68.2839 133.4ZM70.8339 126.345H71.8339C71.8339 124.278 71.4073 122.411 70.5243 120.771L69.6439 121.245L68.7634 121.719C69.4671 123.026 69.8339 124.559 69.8339 126.345H70.8339ZM69.6439 121.245L70.5383 120.798C69.7134 119.148 68.4967 117.865 66.9025 116.972L66.4139 117.845L65.9253 118.718C67.1644 119.411 68.101 120.395 68.7494 121.692L69.6439 121.245ZM66.4139 117.845L66.9439 116.997C65.4049 116.035 63.6295 115.57 61.6539 115.57V116.57V117.57C63.3049 117.57 64.7029 117.955 65.8839 118.693L66.4139 117.845ZM61.6539 116.57V115.57C59.6775 115.57 57.8814 116.035 56.2944 116.988L56.8089 117.845L57.3234 118.702C58.5697 117.955 60.0035 117.57 61.6539 117.57V116.57ZM56.8089 117.845L56.305 116.981C54.7826 117.869 53.5575 119.134 52.6277 120.745L53.4939 121.245L54.3601 121.745C55.1302 120.41 56.1151 119.407 57.3127 118.709L56.8089 117.845ZM53.4939 121.245L52.6134 120.771C51.7304 122.411 51.3039 124.278 51.3039 126.345H52.3039H53.3039C53.3039 124.559 53.6706 123.026 54.3743 121.719L53.4939 121.245ZM52.3039 126.345H51.3039C51.3039 128.361 51.7327 130.199 52.6134 131.834L53.4939 131.36L54.3743 130.886C53.6683 129.575 53.3039 128.069 53.3039 126.345H52.3039ZM53.4939 131.36L52.6134 131.834C53.4909 133.464 54.7214 134.759 56.2944 135.702L56.8089 134.845L57.3234 133.988C56.063 133.231 55.0835 132.203 54.3743 130.886L53.4939 131.36ZM56.8089 134.845L56.2944 135.702C57.8764 136.652 59.6429 137.12 61.5689 137.12V136.12V135.12C59.9815 135.12 58.5747 134.738 57.3234 133.988L56.8089 134.845ZM70.3239 147H71.3239V135.865H70.3239H69.3239V147H70.3239ZM70.3239 135.865L71.3054 136.056L73.2604 126.026L72.2789 125.835L71.2973 125.644L69.3423 135.674L70.3239 135.865ZM72.2789 125.835L73.2604 125.644L71.3054 115.614L70.3239 115.805L69.3423 115.996L71.2973 126.026L72.2789 125.835ZM70.3239 115.805H71.3239V105.69H70.3239H69.3239V115.805H70.3239ZM70.3239 105.69V106.69H83.0739V105.69V104.69H70.3239V105.69ZM83.0739 105.69H82.0739V147H83.0739H84.0739V105.69H83.0739ZM83.0739 147V146H70.3239V147V148H83.0739V147ZM92.2306 147H91.2306V148H92.2306V147ZM92.2306 105.69V104.69H91.2306V105.69H92.2306ZM105.236 105.69H106.236V104.69H105.236V105.69ZM105.236 147V148H106.236V147H105.236ZM118.666 147H117.666V148H118.666V147ZM116.711 118.015L116.02 118.738L116.037 118.754L116.054 118.77L116.711 118.015ZM108.551 117.08L108.998 117.974L109.017 117.965L109.036 117.954L108.551 117.08ZM106.086 119.29L105.246 118.747L105.234 118.765L105.224 118.783L106.086 119.29ZM105.236 122.86L104.832 123.775L106.236 124.393V122.86H105.236ZM100.221 120.65H99.2206V121.302L99.8174 121.565L100.221 120.65ZM102.346 112.235L103.199 112.756L103.205 112.746L102.346 112.235ZM108.126 106.795L108.581 107.685L108.589 107.681L108.597 107.677L108.126 106.795ZM124.106 106.795L123.607 107.662L123.616 107.667L124.106 106.795ZM129.631 112.235L128.768 112.74L128.768 112.74L129.631 112.235ZM131.671 147V148H132.671V147H131.671ZM145.101 147H144.101V148H145.101V147ZM143.146 118.015L142.455 118.738L142.472 118.754L142.489 118.77L143.146 118.015ZM134.986 117.08L135.433 117.974L135.452 117.965L135.471 117.954L134.986 117.08ZM132.521 119.29L131.681 118.747L131.669 118.765L131.659 118.783L132.521 119.29ZM131.671 122.86L131.536 123.851L132.671 124.006V122.86H131.671ZM124.191 121.84L123.191 121.808L123.162 122.709L124.056 122.831L124.191 121.84ZM126.656 112.83L125.807 112.302L125.803 112.307L126.656 112.83ZM132.861 106.965L133.331 107.847L133.338 107.844L132.861 106.965ZM150.031 106.88L149.543 107.753L149.555 107.76L149.567 107.766L150.031 106.88ZM155.896 112.575L155.026 113.069L155.033 113.081L155.04 113.092L155.896 112.575ZM158.106 147V148H159.106V147H158.106ZM92.2306 147H93.2306V105.69H92.2306H91.2306V147H92.2306ZM92.2306 105.69V106.69H105.236V105.69V104.69H92.2306V105.69ZM105.236 105.69H104.236V147H105.236H106.236V105.69H105.236ZM105.236 147V146H92.2306V147V148H105.236V147ZM118.666 147H119.666V122.86H118.666H117.666V147H118.666ZM118.666 122.86H119.666C119.666 120.541 118.935 118.624 117.367 117.26L116.711 118.015L116.054 118.77C117.093 119.673 117.666 120.985 117.666 122.86H118.666ZM116.711 118.015L117.401 117.292C115.952 115.908 114.139 115.23 112.036 115.23V116.23V117.23C113.672 117.23 114.976 117.742 116.02 118.738L116.711 118.015ZM112.036 116.23V115.23C110.583 115.23 109.25 115.547 108.065 116.206L108.551 117.08L109.036 117.954C109.891 117.479 110.882 117.23 112.036 117.23V116.23ZM108.551 117.08L108.103 116.186C106.923 116.776 105.966 117.634 105.246 118.747L106.086 119.29L106.925 119.833C107.452 119.019 108.139 118.404 108.998 117.974L108.551 117.08ZM106.086 119.29L105.224 118.783C104.545 119.936 104.236 121.312 104.236 122.86H105.236H106.236C106.236 121.575 106.492 120.571 106.948 119.797L106.086 119.29ZM105.236 122.86L105.639 121.945L100.624 119.735L100.221 120.65L99.8174 121.565L104.832 123.775L105.236 122.86ZM100.221 120.65H101.221C101.221 117.509 101.897 114.892 103.199 112.756L102.346 112.235L101.492 111.714C99.9614 114.224 99.2206 117.218 99.2206 120.65H100.221ZM102.346 112.235L103.205 112.746C104.527 110.526 106.314 108.845 108.581 107.685L108.126 106.795L107.67 105.905C105.064 107.238 102.998 109.184 101.486 111.724L102.346 112.235ZM108.126 106.795L108.597 107.677C110.874 106.459 113.457 105.84 116.371 105.84V104.84V103.84C113.164 103.84 110.251 104.524 107.654 105.913L108.126 106.795ZM116.371 104.84V105.84C119.105 105.84 121.508 106.455 123.607 107.662L124.106 106.795L124.604 105.928C122.17 104.529 119.417 103.84 116.371 103.84V104.84ZM124.106 106.795L123.616 107.667C125.783 108.883 127.496 110.568 128.768 112.74L129.631 112.235L130.494 111.73C129.045 109.255 127.075 107.314 124.595 105.923L124.106 106.795ZM129.631 112.235L128.768 112.74C130.022 114.882 130.671 117.477 130.671 120.565H131.671H132.671C132.671 117.193 131.96 114.234 130.494 111.73L129.631 112.235ZM131.671 120.565H130.671V147H131.671H132.671V120.565H131.671ZM131.671 147V146H118.666V147V148H131.671V147ZM145.101 147H146.101V122.86H145.101H144.101V147H145.101ZM145.101 122.86H146.101C146.101 120.541 145.37 118.624 143.802 117.26L143.146 118.015L142.489 118.77C143.528 119.673 144.101 120.985 144.101 122.86H145.101ZM143.146 118.015L143.836 117.292C142.387 115.908 140.574 115.23 138.471 115.23V116.23V117.23C140.107 117.23 141.411 117.742 142.455 118.738L143.146 118.015ZM138.471 116.23V115.23C137.018 115.23 135.685 115.547 134.5 116.206L134.986 117.08L135.471 117.954C136.326 117.479 137.317 117.23 138.471 117.23V116.23ZM134.986 117.08L134.538 116.186C133.358 116.776 132.401 117.634 131.681 118.747L132.521 119.29L133.36 119.833C133.887 119.019 134.574 118.404 135.433 117.974L134.986 117.08ZM132.521 119.29L131.659 118.783C130.98 119.936 130.671 121.312 130.671 122.86H131.671H132.671C132.671 121.575 132.927 120.571 133.383 119.797L132.521 119.29ZM131.671 122.86L131.806 121.869L124.326 120.849L124.191 121.84L124.056 122.831L131.536 123.851L131.671 122.86ZM124.191 121.84L125.19 121.872C125.299 118.498 126.085 115.671 127.508 113.353L126.656 112.83L125.803 112.307C124.166 114.976 123.309 118.156 123.191 121.808L124.191 121.84ZM126.656 112.83L127.505 113.358C129.002 110.951 130.943 109.121 133.331 107.847L132.861 106.965L132.39 106.083C129.679 107.529 127.482 109.609 125.807 112.302L126.656 112.83ZM132.861 106.965L133.338 107.844C135.785 106.514 138.537 105.84 141.616 105.84V104.84V103.84C138.234 103.84 135.149 104.583 132.383 106.086L132.861 106.965ZM141.616 104.84V105.84C144.642 105.84 147.275 106.487 149.543 107.753L150.031 106.88L150.518 106.007C147.913 104.553 144.936 103.84 141.616 103.84V104.84ZM150.031 106.88L149.567 107.766C151.887 108.979 153.702 110.739 155.026 113.069L155.896 112.575L156.765 112.081C155.255 109.424 153.161 107.388 150.494 105.994L150.031 106.88ZM155.896 112.575L155.04 113.092C156.4 115.343 157.106 118.102 157.106 121.415H158.106H159.106C159.106 117.815 158.337 114.681 156.751 112.058L155.896 112.575ZM158.106 121.415H157.106V147H158.106H159.106V121.415H158.106ZM158.106 147V146H145.101V147V148H158.106V147ZM1.78 231H0.78V232H1.78V231ZM1.78 170.99V169.99H0.78V170.99H1.78ZM11.3 170.99L12.1415 170.45L11.8463 169.99H11.3V170.99ZM34.93 207.795V208.795H36.7604L35.7715 207.255L34.93 207.795ZM30.085 207.795L29.2426 207.256L28.2582 208.795H30.085V207.795ZM53.63 170.99V169.99H53.0826L52.7876 170.451L53.63 170.99ZM63.235 170.99H64.235V169.99H63.235V170.99ZM63.235 231V232H64.235V231H63.235ZM49.89 231H48.89V232H49.89V231ZM49.89 193.515L50.1325 192.545L48.89 192.234V193.515H49.89ZM52.27 194.11L53.1116 194.65L53.8641 193.478L52.5125 193.14L52.27 194.11ZM36.885 218.08V219.08H37.4314L37.7266 218.62L36.885 218.08ZM28.045 218.08L27.2021 218.618L27.4969 219.08H28.045V218.08ZM12.745 194.11L12.494 193.142L11.1613 193.488L11.9021 194.648L12.745 194.11ZM15.04 193.515H16.04V192.223L14.789 192.547L15.04 193.515ZM15.04 231V232H16.04V231H15.04ZM1.78 231H2.78V170.99H1.78H0.78V231H1.78ZM1.78 170.99V171.99H11.3V170.99V169.99H1.78V170.99ZM11.3 170.99L10.4585 171.53L34.0885 208.335L34.93 207.795L35.7715 207.255L12.1415 170.45L11.3 170.99ZM34.93 207.795V206.795H30.085V207.795V208.795H34.93V207.795ZM30.085 207.795L30.9274 208.334L54.4724 171.529L53.63 170.99L52.7876 170.451L29.2426 207.256L30.085 207.795ZM53.63 170.99V171.99H63.235V170.99V169.99H53.63V170.99ZM63.235 170.99H62.235V231H63.235H64.235V170.99H63.235ZM63.235 231V230H49.89V231V232H63.235V231ZM49.89 231H50.89V193.515H49.89H48.89V231H49.89ZM49.89 193.515L49.6475 194.485L52.0275 195.08L52.27 194.11L52.5125 193.14L50.1325 192.545L49.89 193.515ZM52.27 194.11L51.4284 193.57L36.0434 217.54L36.885 218.08L37.7266 218.62L53.1116 194.65L52.27 194.11ZM36.885 218.08V217.08H28.045V218.08V219.08H36.885V218.08ZM28.045 218.08L28.8879 217.542L13.5879 193.572L12.745 194.11L11.9021 194.648L27.2021 218.618L28.045 218.08ZM12.745 194.11L12.996 195.078L15.291 194.483L15.04 193.515L14.789 192.547L12.494 193.142L12.745 194.11ZM15.04 193.515H14.04V231H15.04H16.04V193.515H15.04ZM15.04 231V230H1.78V231V232H15.04V231ZM80.6089 229.045L80.073 229.889L80.0803 229.894L80.6089 229.045ZM73.5539 221.395L72.6689 221.861L72.6754 221.873L73.5539 221.395ZM73.5539 199.295L72.6753 198.817L72.6689 198.829L73.5539 199.295ZM80.6089 191.645L80.0803 190.796L80.073 190.801L80.6089 191.645ZM98.2889 190.455L97.8509 191.354L97.8598 191.358L98.2889 190.455ZM103.814 194.96L103.008 195.552L103.012 195.558L103.017 195.564L103.814 194.96ZM106.194 201.42H107.194V201.385L107.191 201.35L106.194 201.42ZM106.194 219.27L107.191 219.34L107.194 219.305V219.27H106.194ZM103.814 225.815L103.008 225.223L103.005 225.227L103.814 225.815ZM98.3739 230.235L97.9448 229.332L97.9448 229.332L98.3739 230.235ZM100.159 217.4L100.888 218.084L100.894 218.078L100.899 218.073L100.159 217.4ZM101.519 205.245L100.624 205.692L100.631 205.706L100.638 205.719L101.519 205.245ZM98.2889 201.845L97.7589 202.693L97.7793 202.706L97.8003 202.718L98.2889 201.845ZM88.6839 201.845L89.1878 202.709L89.1984 202.702L88.6839 201.845ZM85.3689 205.245L84.5027 204.745L84.4954 204.758L84.4884 204.771L85.3689 205.245ZM85.3689 215.36L84.4884 215.834L84.4884 215.834L85.3689 215.36ZM102.199 231H101.199V232H102.199V231ZM102.199 219.865L101.217 219.674L101.199 219.768V219.865H102.199ZM104.154 209.835L105.135 210.026L105.173 209.835L105.135 209.644L104.154 209.835ZM102.199 199.805H101.199V199.902L101.217 199.996L102.199 199.805ZM102.199 189.69V188.69H101.199V189.69H102.199ZM114.949 189.69H115.949V188.69H114.949V189.69ZM114.949 231V232H115.949V231H114.949ZM90.8089 231.85V230.85C87.1848 230.85 83.9705 229.96 81.1374 228.196L80.6089 229.045L80.0803 229.894C83.2539 231.87 86.8396 232.85 90.8089 232.85V231.85ZM80.6089 229.045L81.1447 228.201C78.3493 226.427 76.1123 224.006 74.4324 220.917L73.5539 221.395L72.6754 221.873C74.5088 225.244 76.9751 227.923 80.073 229.889L80.6089 229.045ZM73.5539 221.395L74.4388 220.929C72.8239 217.861 72.0039 214.341 72.0039 210.345H71.0039H70.0039C70.0039 214.622 70.8838 218.469 72.6689 221.861L73.5539 221.395ZM71.0039 210.345H72.0039C72.0039 206.349 72.8239 202.829 74.4388 199.761L73.5539 199.295L72.6689 198.829C70.8838 202.221 70.0039 206.068 70.0039 210.345H71.0039ZM73.5539 199.295L74.4324 199.773C76.1123 196.684 78.3493 194.263 81.1447 192.489L80.6089 191.645L80.073 190.801C76.9751 192.767 74.5088 195.446 72.6754 198.817L73.5539 199.295ZM80.6089 191.645L81.1374 192.494C83.9705 190.73 87.1848 189.84 90.8089 189.84V188.84V187.84C86.8396 187.84 83.2539 188.82 80.0803 190.796L80.6089 191.645ZM90.8089 188.84V189.84C93.4535 189.84 95.7941 190.352 97.8509 191.354L98.2889 190.455L98.7268 189.556C96.3637 188.405 93.7175 187.84 90.8089 187.84V188.84ZM98.2889 190.455L97.8598 191.358C99.9848 192.368 101.694 193.766 103.008 195.552L103.814 194.96L104.62 194.368C103.1 192.301 101.126 190.696 98.7179 189.552L98.2889 190.455ZM103.814 194.96L103.017 195.564C104.311 197.272 105.039 199.238 105.196 201.49L106.194 201.42L107.191 201.35C107.009 198.728 106.15 196.388 104.611 194.356L103.814 194.96ZM106.194 201.42H105.194V219.27H106.194H107.194V201.42H106.194ZM106.194 219.27L105.196 219.2C105.039 221.452 104.31 223.452 103.008 225.223L103.814 225.815L104.62 226.407C106.151 224.325 107.009 221.961 107.191 219.34L106.194 219.27ZM103.814 225.815L103.005 225.227C101.752 226.95 100.074 228.32 97.9448 229.332L98.3739 230.235L98.8029 231.138C101.207 229.996 103.156 228.42 104.623 226.403L103.814 225.815ZM98.3739 230.235L97.9448 229.332C95.8259 230.338 93.4531 230.85 90.8089 230.85V231.85V232.85C93.718 232.85 96.3885 232.285 98.8029 231.138L98.3739 230.235ZM93.4439 220.12V221.12C96.4612 221.12 98.9762 220.124 100.888 218.084L100.159 217.4L99.4293 216.716C97.9415 218.303 95.9799 219.12 93.4439 219.12V220.12ZM100.159 217.4L100.899 218.073C102.787 215.996 103.709 213.395 103.709 210.345H102.709H101.709C101.709 212.962 100.931 215.064 99.4189 216.727L100.159 217.4ZM102.709 210.345H103.709C103.709 208.278 103.282 206.411 102.399 204.771L101.519 205.245L100.638 205.719C101.342 207.026 101.709 208.559 101.709 210.345H102.709ZM101.519 205.245L102.413 204.798C101.588 203.148 100.372 201.865 98.7775 200.972L98.2889 201.845L97.8003 202.718C99.0394 203.411 99.976 204.395 100.624 205.692L101.519 205.245ZM98.2889 201.845L98.8189 200.997C97.2799 200.035 95.5045 199.57 93.5289 199.57V200.57V201.57C95.1799 201.57 96.5779 201.955 97.7589 202.693L98.2889 201.845ZM93.5289 200.57V199.57C91.5525 199.57 89.7564 200.035 88.1694 200.988L88.6839 201.845L89.1984 202.702C90.4447 201.955 91.8785 201.57 93.5289 201.57V200.57ZM88.6839 201.845L88.18 200.981C86.6576 201.869 85.4325 203.134 84.5027 204.745L85.3689 205.245L86.2351 205.745C87.0052 204.41 87.9901 203.407 89.1877 202.709L88.6839 201.845ZM85.3689 205.245L84.4884 204.771C83.6054 206.411 83.1789 208.278 83.1789 210.345H84.1789H85.1789C85.1789 208.559 85.5456 207.026 86.2493 205.719L85.3689 205.245ZM84.1789 210.345H83.1789C83.1789 212.361 83.6077 214.199 84.4884 215.834L85.3689 215.36L86.2493 214.886C85.5433 213.575 85.1789 212.069 85.1789 210.345H84.1789ZM85.3689 215.36L84.4884 215.834C85.3659 217.464 86.5964 218.759 88.1694 219.702L88.6839 218.845L89.1984 217.988C87.938 217.231 86.9585 216.203 86.2493 214.886L85.3689 215.36ZM88.6839 218.845L88.1694 219.702C89.7514 220.652 91.5179 221.12 93.4439 221.12V220.12V219.12C91.8565 219.12 90.4497 218.738 89.1984 217.988L88.6839 218.845ZM102.199 231H103.199V219.865H102.199H101.199V231H102.199ZM102.199 219.865L103.18 220.056L105.135 210.026L104.154 209.835L103.172 209.644L101.217 219.674L102.199 219.865ZM104.154 209.835L105.135 209.644L103.18 199.614L102.199 199.805L101.217 199.996L103.172 210.026L104.154 209.835ZM102.199 199.805H103.199V189.69H102.199H101.199V199.805H102.199ZM102.199 189.69V190.69H114.949V189.69V188.69H102.199V189.69ZM114.949 189.69H113.949V231H114.949H115.949V189.69H114.949ZM114.949 231V230H102.199V231V232H114.949V231ZM124.106 231H123.106V232H124.106V231ZM124.106 189.69V188.69H123.106V189.69H124.106ZM137.111 189.69H138.111V188.69H137.111V189.69ZM137.111 231V232H138.111V231H137.111ZM137.111 208.305L136.495 209.093L138.111 210.355V208.305H137.111ZM131.671 204.055L130.695 203.837L130.557 204.454L131.055 204.843L131.671 204.055ZM137.111 192.835L137.833 193.527L137.111 192.835ZM152.921 189.775L152.531 190.696L152.552 190.705L152.573 190.713L152.921 189.775ZM156.916 192.495L157.7 193.116L158.226 192.45L157.656 191.822L156.916 192.495ZM149.181 202.27L148.441 202.943L149.233 203.815L149.965 202.891L149.181 202.27ZM147.056 200.825L146.684 201.753L146.684 201.753L147.056 200.825ZM138.981 202.355L138.259 201.663L138.258 201.664L138.981 202.355ZM124.106 231H125.106V189.69H124.106H123.106V231H124.106ZM124.106 189.69V190.69H137.111V189.69V188.69H124.106V189.69ZM137.111 189.69H136.111V231H137.111H138.111V189.69H137.111ZM137.111 231V230H124.106V231V232H137.111V231ZM137.111 208.305L137.726 207.517L132.286 203.267L131.671 204.055L131.055 204.843L136.495 209.093L137.111 208.305ZM131.671 204.055L132.647 204.273C133.696 199.576 135.445 196.021 137.833 193.527L137.111 192.835L136.388 192.143C133.676 194.976 131.798 198.901 130.695 203.837L131.671 204.055ZM137.111 192.835L137.833 193.527C140.153 191.104 143.408 189.84 147.736 189.84V188.84V187.84C142.996 187.84 139.169 189.239 136.388 192.143L137.111 192.835ZM147.736 188.84V189.84C149.616 189.84 151.207 190.136 152.531 190.696L152.921 189.775L153.31 188.854C151.688 188.168 149.822 187.84 147.736 187.84V188.84ZM152.921 189.775L152.573 190.713C153.948 191.222 155.146 192.036 156.176 193.168L156.916 192.495L157.656 191.822C156.418 190.461 154.953 189.461 153.268 188.837L152.921 189.775ZM156.916 192.495L156.131 191.874L148.396 201.649L149.181 202.27L149.965 202.891L157.7 193.116L156.916 192.495ZM149.181 202.27L149.921 201.597C149.243 200.852 148.405 200.288 147.427 199.897L147.056 200.825L146.684 201.753C147.406 202.042 147.985 202.441 148.441 202.943L149.181 202.27ZM147.056 200.825L147.427 199.897C146.44 199.502 145.348 199.315 144.166 199.315V200.315V201.315C145.137 201.315 145.971 201.468 146.684 201.753L147.056 200.825ZM144.166 200.315V199.315C141.782 199.315 139.778 200.077 138.259 201.663L138.981 202.355L139.703 203.047C140.79 201.913 142.242 201.315 144.166 201.315V200.315ZM138.981 202.355L138.258 201.664C136.764 203.225 136.111 205.505 136.111 208.305H137.111H138.111C138.111 205.778 138.704 204.091 139.703 203.046L138.981 202.355ZM167.633 229.13L168.109 228.25L167.633 229.13ZM159.473 221.395L160.329 220.878L159.473 221.395ZM159.473 199.295L158.623 198.768L158.621 198.772L159.473 199.295ZM167.718 191.56L168.194 192.44L168.194 192.44L167.718 191.56ZM188.203 190.455L187.811 191.375L187.823 191.38L187.835 191.385L188.203 190.455ZM195.428 195.385L196.135 196.092L196.824 195.403L196.153 194.697L195.428 195.385ZM187.098 203.715L186.353 204.382L187.058 205.17L187.805 204.422L187.098 203.715ZM183.698 201.335L183.319 202.261L183.326 202.263L183.334 202.266L183.698 201.335ZM174.348 201.845L174.837 202.718L174.848 202.711L174.348 201.845ZM170.948 205.245L170.082 204.745L170.075 204.756L170.948 205.245ZM170.948 215.36L170.067 215.834L170.074 215.847L170.082 215.86L170.948 215.36ZM183.868 219.27L184.267 220.187L184.276 220.183L184.285 220.179L183.868 219.27ZM187.353 216.72L188.064 216.017L187.316 215.261L186.608 216.053L187.353 216.72ZM195.598 225.05L196.323 225.739L196.991 225.036L196.309 224.347L195.598 225.05ZM188.288 230.235L188.673 231.158L188.681 231.155L188.689 231.151L188.288 230.235ZM179.193 231.935V230.935C175.095 230.935 171.408 230.035 168.109 228.25L167.633 229.13L167.157 230.01C170.772 231.965 174.791 232.935 179.193 232.935V231.935ZM167.633 229.13L168.109 228.25C164.805 226.463 162.218 224.009 160.329 220.878L159.473 221.395L158.617 221.912C160.695 225.355 163.547 228.057 167.157 230.01L167.633 229.13ZM159.473 221.395L160.329 220.878C158.446 217.757 157.498 214.255 157.498 210.345H156.498H155.498C155.498 214.595 156.533 218.459 158.617 221.912L159.473 221.395ZM156.498 210.345H157.498C157.498 206.376 158.447 202.877 160.325 199.818L159.473 199.295L158.621 198.772C156.532 202.173 155.498 206.041 155.498 210.345H156.498ZM159.473 199.295L160.323 199.822C162.269 196.686 164.888 194.228 168.194 192.44L167.718 191.56L167.242 190.68C163.635 192.632 160.757 195.331 158.623 198.768L159.473 199.295ZM167.718 191.56L168.194 192.44C171.491 190.656 175.206 189.755 179.363 189.755V188.755V187.755C174.906 187.755 170.859 188.724 167.242 190.68L167.718 191.56ZM179.363 188.755V189.755C182.474 189.755 185.285 190.3 187.811 191.375L188.203 190.455L188.594 189.535C185.794 188.343 182.712 187.755 179.363 187.755V188.755ZM188.203 190.455L187.835 191.385C190.414 192.406 192.702 193.964 194.702 196.073L195.428 195.385L196.153 194.697C193.961 192.386 191.432 190.658 188.571 189.525L188.203 190.455ZM195.428 195.385L194.721 194.678L186.391 203.008L187.098 203.715L187.805 204.422L196.135 196.092L195.428 195.385ZM187.098 203.715L187.843 203.048C186.779 201.859 185.516 200.973 184.062 200.404L183.698 201.335L183.334 202.266C184.486 202.717 185.49 203.418 186.353 204.382L187.098 203.715ZM183.698 201.335L184.077 200.409C182.686 199.841 181.108 199.57 179.363 199.57V200.57V201.57C180.904 201.57 182.216 201.809 183.319 202.261L183.698 201.335ZM179.363 200.57V199.57C177.335 199.57 175.488 200.033 173.848 200.979L174.348 201.845L174.848 202.711C176.154 201.957 177.65 201.57 179.363 201.57V200.57ZM174.348 201.845L173.859 200.972C172.278 201.858 171.017 203.124 170.082 204.745L170.948 205.245L171.814 205.745C172.579 204.42 173.585 203.419 174.837 202.718L174.348 201.845ZM170.948 205.245L170.075 204.756C169.184 206.348 168.758 208.194 168.758 210.26H169.758H170.758C170.758 208.472 171.125 206.975 171.82 205.734L170.948 205.245ZM169.758 210.26H168.758C168.758 212.327 169.185 214.194 170.067 215.834L170.948 215.36L171.828 214.886C171.125 213.579 170.758 212.046 170.758 210.26H169.758ZM170.948 215.36L170.082 215.86C171.02 217.485 172.308 218.773 173.933 219.711L174.433 218.845L174.933 217.979C173.612 217.217 172.576 216.181 171.814 214.86L170.948 215.36ZM174.433 218.845L173.933 219.711C175.569 220.655 177.386 221.12 179.363 221.12V220.12V219.12C177.713 219.12 176.244 218.735 174.933 217.979L174.433 218.845ZM179.363 220.12V221.12C181.174 221.12 182.815 220.818 184.267 220.187L183.868 219.27L183.469 218.353C182.314 218.855 180.952 219.12 179.363 219.12V220.12ZM183.868 219.27L184.285 220.179C185.765 219.501 187.04 218.57 188.098 217.387L187.353 216.72L186.608 216.053C185.739 217.024 184.691 217.793 183.451 218.361L183.868 219.27ZM187.353 216.72L186.642 217.423L194.887 225.753L195.598 225.05L196.309 224.347L188.064 216.017L187.353 216.72ZM195.598 225.05L194.873 224.361C192.806 226.536 190.479 228.185 187.887 229.319L188.288 230.235L188.689 231.151C191.537 229.905 194.083 228.097 196.323 225.739L195.598 225.05ZM188.288 230.235L187.903 229.312C185.321 230.388 182.422 230.935 179.193 230.935V231.935V232.935C182.651 232.935 185.815 232.349 188.673 231.158L188.288 230.235ZM208.72 229.13L208.227 230L208.235 230.005L208.244 230.01L208.72 229.13ZM200.645 221.31L201.501 220.793L201.501 220.793L200.645 221.31ZM200.645 199.295L199.793 198.772L199.793 198.772L200.645 199.295ZM208.72 191.645L209.202 192.521L209.213 192.515L208.72 191.645ZM239.915 199.295L239.059 199.812L239.063 199.818L239.915 199.295ZM239.915 221.31L240.771 221.827L240.771 221.827L239.915 221.31ZM231.84 229.13L232.322 230.006L232.333 230L231.84 229.13ZM225.21 218.93L225.698 219.803L225.711 219.795L225.724 219.787L225.21 218.93ZM228.44 215.445L227.552 214.985L227.549 214.991L227.545 214.998L228.44 215.445ZM228.44 205.245L227.559 205.719L227.563 205.726L227.567 205.734L228.44 205.245ZM225.125 201.845L224.595 202.693L224.615 202.706L224.636 202.718L225.125 201.845ZM215.435 201.845L215.923 202.718L215.936 202.71L215.949 202.702L215.435 201.845ZM212.12 205.245L213 205.719L213 205.719L212.12 205.245ZM212.12 215.445L211.232 215.905L211.236 215.912L211.239 215.919L212.12 215.445ZM215.435 218.93L214.92 219.787L214.933 219.795L214.946 219.803L215.435 218.93ZM220.28 231.935V230.935C216.182 230.935 212.494 230.035 209.196 228.25L208.72 229.13L208.244 230.01C211.859 231.965 215.878 232.935 220.28 232.935V231.935ZM208.72 229.13L209.213 228.26C205.959 226.416 203.394 223.93 201.501 220.793L200.645 221.31L199.789 221.827C201.862 225.263 204.68 227.99 208.227 230L208.72 229.13ZM200.645 221.31L201.501 220.793C199.618 217.672 198.67 214.17 198.67 210.26H197.67H196.67C196.67 214.51 197.705 218.374 199.789 221.827L200.645 221.31ZM197.67 210.26H198.67C198.67 206.35 199.618 202.879 201.497 199.818L200.645 199.295L199.793 198.772C197.705 202.171 196.67 206.01 196.67 210.26H197.67ZM200.645 199.295L201.497 199.818C203.387 196.74 205.95 194.31 209.202 192.521L208.72 191.645L208.238 190.769C204.69 192.72 201.869 195.39 199.793 198.772L200.645 199.295ZM208.72 191.645L209.213 192.515C212.447 190.682 216.128 189.755 220.28 189.755V188.755V187.755C215.818 187.755 211.792 188.755 208.227 190.775L208.72 191.645ZM220.28 188.755V189.755C224.437 189.755 228.121 190.656 231.358 192.436L231.84 191.56L232.322 190.684C228.758 188.724 224.736 187.755 220.28 187.755V188.755ZM231.84 191.56L231.358 192.436C234.605 194.222 237.167 196.677 239.059 199.812L239.915 199.295L240.771 198.778C238.696 195.339 235.874 192.638 232.322 190.684L231.84 191.56ZM239.915 199.295L239.063 199.818C240.942 202.879 241.89 206.35 241.89 210.26H242.89H243.89C243.89 206.01 242.854 202.171 240.767 198.772L239.915 199.295ZM242.89 210.26H241.89C241.89 214.17 240.942 217.672 239.059 220.793L239.915 221.31L240.771 221.827C242.854 218.374 243.89 214.51 243.89 210.26H242.89ZM239.915 221.31L239.059 220.793C237.166 223.93 234.6 226.416 231.347 228.26L231.84 229.13L232.333 230C235.879 227.99 238.697 225.263 240.771 221.827L239.915 221.31ZM231.84 229.13L231.358 228.254C228.121 230.034 224.437 230.935 220.28 230.935V231.935V232.935C224.736 232.935 228.758 231.966 232.322 230.006L231.84 229.13ZM220.28 220.12V221.12C222.295 221.12 224.111 220.691 225.698 219.803L225.21 218.93L224.721 218.057C223.475 218.755 222.005 219.12 220.28 219.12V220.12ZM225.21 218.93L225.724 219.787C227.304 218.84 228.512 217.536 229.334 215.892L228.44 215.445L227.545 214.998C226.894 216.3 225.949 217.32 224.695 218.073L225.21 218.93ZM228.44 215.445L229.328 215.905C230.203 214.217 230.63 212.328 230.63 210.26H229.63H228.63C228.63 212.046 228.263 213.613 227.552 214.985L228.44 215.445ZM229.63 210.26H230.63C230.63 208.194 230.204 206.348 229.312 204.756L228.44 205.245L227.567 205.734C228.263 206.975 228.63 208.472 228.63 210.26H229.63ZM228.44 205.245L229.32 204.771C228.44 203.136 227.201 201.862 225.613 200.972L225.125 201.845L224.636 202.718C225.882 203.415 226.853 204.408 227.559 205.719L228.44 205.245ZM225.125 201.845L225.655 200.997C224.111 200.032 222.306 199.57 220.28 199.57V200.57V201.57C221.994 201.57 223.419 201.958 224.595 202.693L225.125 201.845ZM220.28 200.57V199.57C218.303 199.57 216.507 200.035 214.92 200.988L215.435 201.845L215.949 202.702C217.196 201.955 218.629 201.57 220.28 201.57V200.57ZM215.435 201.845L214.946 200.972C213.358 201.862 212.12 203.136 211.239 204.771L212.12 205.245L213 205.719C213.706 204.408 214.678 203.415 215.923 202.718L215.435 201.845ZM212.12 205.245L211.239 204.771C210.356 206.411 209.93 208.278 209.93 210.345H210.93H211.93C211.93 208.559 212.297 207.026 213 205.719L212.12 205.245ZM210.93 210.345H209.93C209.93 212.361 210.359 214.221 211.232 215.905L212.12 215.445L213.008 214.985C212.294 213.609 211.93 212.069 211.93 210.345H210.93ZM212.12 215.445L211.239 215.919C212.117 217.549 213.347 218.844 214.92 219.787L215.435 218.93L215.949 218.073C214.689 217.316 213.709 216.288 213 214.971L212.12 215.445ZM215.435 218.93L214.946 219.803C216.529 220.689 218.316 221.12 220.28 221.12V220.12V219.12C218.617 219.12 217.174 218.758 215.923 218.057L215.435 218.93ZM257.184 231.085L256.925 232.051L256.931 232.052L257.184 231.085ZM250.639 228.45L250.125 229.307L250.139 229.316L250.154 229.324L250.639 228.45ZM245.539 224.37L244.828 223.667L244.156 224.347L244.806 225.049L245.539 224.37ZM252.934 216.89L253.669 216.212L252.959 215.443L252.223 216.187L252.934 216.89ZM257.779 220.375L257.366 221.285L257.377 221.291L257.389 221.296L257.779 220.375ZM267.384 220.885L266.914 220.003L266.901 220.01L266.888 220.017L267.384 220.885ZM267.129 216.72L266.622 217.582L266.652 217.599L266.682 217.614L267.129 216.72ZM263.389 215.275L263.105 216.234L263.122 216.239L263.138 216.243L263.389 215.275ZM253.699 211.705L254.209 210.845L254.209 210.845L253.699 211.705ZM249.959 207.965L249.097 208.471L249.101 208.477L249.105 208.484L249.959 207.965ZM250.554 194.875L251.371 195.452L251.379 195.441L250.554 194.875ZM256.334 190.2L255.921 189.29L255.921 189.29L256.334 190.2ZM274.779 190.37L274.39 191.291L274.4 191.295L274.411 191.3L274.779 190.37ZM282.089 195.725L282.801 196.428L283.421 195.801L282.876 195.107L282.089 195.725ZM274.694 203.205L273.933 203.853L274.64 204.683L275.406 203.908L274.694 203.205ZM270.274 199.975L269.909 200.906L269.92 200.91L270.274 199.975ZM262.284 199.72L262.759 200.6L262.784 200.587L262.809 200.572L262.284 199.72ZM266.364 204.905L266.113 205.873L266.113 205.873L266.364 204.905ZM271.209 206.35L271.526 205.401L271.526 205.401L271.209 206.35ZM276.054 208.645L276.587 207.799L276.587 207.799L276.054 208.645ZM279.794 212.555L278.932 213.061L278.936 213.067L278.94 213.074L279.794 212.555ZM276.649 228.45L276.035 227.661L276.028 227.666L276.649 228.45ZM264.409 232.02V231.02C262.059 231.02 259.736 230.72 257.438 230.118L257.184 231.085L256.931 232.052C259.393 232.697 261.886 233.02 264.409 233.02V232.02ZM257.184 231.085L257.444 230.119C255.197 229.516 253.091 228.668 251.125 227.576L250.639 228.45L250.154 229.324C252.267 230.498 254.525 231.407 256.925 232.051L257.184 231.085ZM250.639 228.45L251.154 227.593C249.243 226.446 247.619 225.144 246.273 223.691L245.539 224.37L244.806 225.049C246.293 226.656 248.069 228.074 250.125 229.307L250.639 228.45ZM245.539 224.37L246.251 225.073L253.646 217.593L252.934 216.89L252.223 216.187L244.828 223.667L245.539 224.37ZM252.934 216.89L252.2 217.568C253.652 219.142 255.377 220.382 257.366 221.285L257.779 220.375L258.193 219.465C256.442 218.668 254.937 217.585 253.669 216.212L252.934 216.89ZM257.779 220.375L257.389 221.296C259.393 222.146 261.567 222.565 263.899 222.565V221.565V220.565C261.812 220.565 259.906 220.191 258.17 219.454L257.779 220.375ZM263.899 221.565V222.565C265.5 222.565 266.866 222.333 267.881 221.753L267.384 220.885L266.888 220.017C266.316 220.344 265.359 220.565 263.899 220.565V221.565ZM267.384 220.885L267.855 221.767C268.947 221.185 269.659 220.263 269.659 219.015H268.659H267.659C267.659 219.353 267.521 219.679 266.914 220.003L267.384 220.885ZM268.659 219.015H269.659C269.659 218.33 269.485 217.686 269.109 217.122C268.737 216.563 268.205 216.14 267.577 215.826L267.129 216.72L266.682 217.614C267.074 217.81 267.307 218.024 267.445 218.231C267.579 218.431 267.659 218.68 267.659 219.015H268.659ZM267.129 216.72L267.636 215.858C266.568 215.229 265.226 214.718 263.64 214.307L263.389 215.275L263.138 216.243C264.613 216.625 265.765 217.077 266.622 217.582L267.129 216.72ZM263.389 215.275L263.674 214.316C262.145 213.863 260.531 213.382 258.832 212.872L258.544 213.83L258.257 214.788C259.958 215.298 261.574 215.78 263.105 216.234L263.389 215.275ZM258.544 213.83L258.832 212.872C257.21 212.386 255.669 211.71 254.209 210.845L253.699 211.705L253.19 212.565C254.789 213.513 256.479 214.254 258.257 214.788L258.544 213.83ZM253.699 211.705L254.209 210.845C252.827 210.025 251.696 208.899 250.814 207.446L249.959 207.965L249.105 208.484C250.149 210.205 251.512 211.571 253.19 212.565L253.699 211.705ZM249.959 207.965L250.822 207.459C249.972 206.01 249.514 204.129 249.514 201.76H248.514H247.514C247.514 204.378 248.02 206.634 249.097 208.471L249.959 207.965ZM248.514 201.76H249.514C249.514 199.275 250.146 197.188 251.371 195.452L250.554 194.875L249.737 194.298C248.243 196.415 247.514 198.918 247.514 201.76H248.514ZM250.554 194.875L251.379 195.441C252.622 193.627 254.397 192.179 256.748 191.11L256.334 190.2L255.921 189.29C253.285 190.488 251.206 192.156 249.73 194.309L250.554 194.875ZM256.334 190.2L256.748 191.11C259.086 190.048 261.858 189.5 265.089 189.5V188.5V187.5C261.634 187.5 258.569 188.086 255.921 189.29L256.334 190.2ZM265.089 188.5V189.5C268.482 189.5 271.578 190.101 274.39 191.291L274.779 190.37L275.169 189.449C272.088 188.145 268.723 187.5 265.089 187.5V188.5ZM274.779 190.37L274.411 191.3C277.261 192.429 279.55 194.111 281.303 196.343L282.089 195.725L282.876 195.107C280.889 192.579 278.304 190.691 275.148 189.44L274.779 190.37ZM282.089 195.725L281.378 195.022L273.983 202.502L274.694 203.205L275.406 203.908L282.801 196.428L282.089 195.725ZM274.694 203.205L275.456 202.557C274.059 200.917 272.451 199.731 270.629 199.04L270.274 199.975L269.92 200.91C271.384 201.465 272.723 202.433 273.933 203.853L274.694 203.205ZM270.274 199.975L270.64 199.044C268.95 198.38 267.268 198.04 265.599 198.04V199.04V200.04C266.991 200.04 268.425 200.323 269.909 200.906L270.274 199.975ZM265.599 199.04V198.04C264.056 198.04 262.73 198.272 261.76 198.868L262.284 199.72L262.809 200.572C263.312 200.262 264.196 200.04 265.599 200.04V199.04ZM262.284 199.72L261.81 198.84C261.318 199.105 260.898 199.464 260.605 199.937C260.311 200.413 260.179 200.948 260.179 201.505H261.179H262.179C262.179 201.269 262.232 201.109 262.306 200.99C262.381 200.868 262.514 200.732 262.759 200.6L262.284 199.72ZM261.179 201.505H260.179C260.179 202.834 260.974 203.803 262.157 204.429L262.624 203.545L263.092 202.661C262.348 202.267 262.179 201.876 262.179 201.505H261.179ZM262.624 203.545L262.157 204.429C263.212 204.987 264.539 205.465 266.113 205.873L266.364 204.905L266.615 203.937C265.13 203.552 263.964 203.123 263.092 202.661L262.624 203.545ZM266.364 204.905L266.113 205.873C267.619 206.263 269.212 206.738 270.893 207.299L271.209 206.35L271.526 205.401C269.807 204.828 268.17 204.34 266.615 203.937L266.364 204.905ZM271.209 206.35L270.893 207.299C272.516 207.84 274.059 208.57 275.522 209.491L276.054 208.645L276.587 207.799C274.99 206.793 273.302 205.994 271.526 205.401L271.209 206.35ZM276.054 208.645L275.522 209.491C276.909 210.365 278.045 211.548 278.932 213.061L279.794 212.555L280.657 212.049C279.617 210.275 278.26 208.852 276.587 207.799L276.054 208.645ZM279.794 212.555L278.94 213.074C279.777 214.453 280.239 216.351 280.239 218.845H281.239H282.239C282.239 216.126 281.738 213.83 280.649 212.036L279.794 212.555ZM281.239 218.845H280.239C280.239 222.573 278.841 225.478 276.035 227.661L276.649 228.45L277.263 229.239C280.577 226.662 282.239 223.163 282.239 218.845H281.239ZM276.649 228.45L276.028 227.666C273.254 229.865 269.418 231.02 264.409 231.02V232.02V233.02C269.714 233.02 274.038 231.795 277.27 229.234L276.649 228.45Z" fill="black" mask="url(#path-1-outside-1_166_14)"/>
</svg>
