<svg width="1179" height="156" viewBox="0 0 1179 156" fill="none" xmlns="http://www.w3.org/2000/svg">
<mask id="path-1-outside-1_166_10" maskUnits="userSpaceOnUse" x="0" y="0" width="1179" height="156" fill="black">
<rect fill="white" width="1179" height="156"/>
<path d="M2.56 125V4.97999H29.25V125H2.56ZM76.85 125V4.97999H103.71V125H76.85ZM18.54 74.85V51.73H85.69V74.85H18.54ZM124.36 125V42.38H150.37V125H124.36ZM137.45 30.99C133.37 30.99 129.97 29.63 127.25 26.91C124.643 24.0767 123.34 20.6767 123.34 16.71C123.34 12.63 124.643 9.22999 127.25 6.51C129.97 3.79 133.37 2.43 137.45 2.43C141.53 2.43 144.873 3.79 147.48 6.51C150.086 9.22999 151.39 12.63 151.39 16.71C151.39 20.6767 150.086 24.0767 147.48 26.91C144.873 29.63 141.53 30.99 137.45 30.99ZM168.686 145.4L181.096 122.28L188.746 120.07C187.953 121.77 186.989 123.187 185.856 124.32C184.723 125.34 183.419 125.85 181.946 125.85C178.659 125.85 175.656 124.49 172.936 121.77C170.216 119.05 168.856 115.65 168.856 111.57C168.856 107.15 170.329 103.353 173.276 100.18C176.336 97.0067 180.076 95.42 184.496 95.42C188.689 95.42 192.316 97.0067 195.376 100.18C198.549 103.24 200.136 107.037 200.136 111.57C200.136 113.383 199.796 115.48 199.116 117.86C198.436 120.24 197.076 123.357 195.036 127.21L181.266 152.37L168.686 145.4ZM251.583 125V4.97999H278.273V125H251.583ZM365.891 126.7C358.298 126.7 351.498 124.83 345.491 121.09C339.598 117.35 334.895 112.25 331.381 105.79C327.981 99.33 326.281 91.9633 326.281 83.69C326.281 75.4167 327.981 68.05 331.381 61.59C334.895 55.13 339.598 50.03 345.491 46.29C351.498 42.55 358.298 40.68 365.891 40.68C371.445 40.68 376.431 41.7567 380.851 43.91C385.385 46.0633 389.068 49.0667 391.901 52.92C394.735 56.66 396.321 60.9667 396.661 65.84V101.54C396.321 106.413 394.735 110.777 391.901 114.63C389.181 118.37 385.555 121.317 381.021 123.47C376.488 125.623 371.445 126.7 365.891 126.7ZM371.161 103.24C376.715 103.24 381.191 101.427 384.591 97.8C387.991 94.06 389.691 89.3567 389.691 83.69C389.691 79.8367 388.898 76.4367 387.311 73.49C385.838 70.5433 383.685 68.2767 380.851 66.69C378.131 64.99 374.958 64.14 371.331 64.14C367.705 64.14 364.475 64.99 361.641 66.69C358.921 68.2767 356.711 70.5433 355.011 73.49C353.425 76.4367 352.631 79.8367 352.631 83.69C352.631 87.43 353.425 90.7733 355.011 93.72C356.598 96.6667 358.808 98.99 361.641 100.69C364.475 102.39 367.648 103.24 371.161 103.24ZM388.671 125V102.73L392.581 82.67L388.671 62.61V42.38H414.171V125H388.671ZM432.485 125V42.38H458.495V125H432.485ZM485.355 125V76.72C485.355 72.5267 484.051 69.2967 481.445 67.03C478.951 64.65 475.835 63.46 472.095 63.46C469.488 63.46 467.165 64.0267 465.125 65.16C463.085 66.18 461.441 67.6533 460.195 69.58C459.061 71.5067 458.495 73.8867 458.495 76.72L448.465 72.3C448.465 65.7267 449.881 60.1167 452.715 55.47C455.548 50.71 459.401 47.0833 464.275 44.59C469.148 41.9833 474.645 40.68 480.765 40.68C486.545 40.68 491.701 41.9833 496.235 44.59C500.881 47.1967 504.565 50.8233 507.285 55.47C510.005 60.1167 511.365 65.67 511.365 72.13V125H485.355ZM538.225 125V76.72C538.225 72.5267 536.921 69.2967 534.315 67.03C531.821 64.65 528.705 63.46 524.965 63.46C522.358 63.46 520.035 64.0267 517.995 65.16C515.955 66.18 514.311 67.6533 513.065 69.58C511.931 71.5067 511.365 73.8867 511.365 76.72L496.405 74.68C496.631 67.6533 498.275 61.6467 501.335 56.66C504.508 51.56 508.645 47.65 513.745 44.93C518.958 42.0967 524.795 40.68 531.255 40.68C537.601 40.68 543.211 42.04 548.085 44.76C553.071 47.3667 556.981 51.1633 559.815 56.15C562.761 61.0233 564.235 66.9167 564.235 73.83V125H538.225ZM615.656 125V4.97999H634.696L681.956 78.59H672.266L719.356 4.97999H738.566V125H711.876V50.03L716.636 51.22L685.866 99.16H668.186L637.586 51.22L642.176 50.03V125H615.656ZM793.713 126.7C786.12 126.7 779.32 124.83 773.313 121.09C767.42 117.35 762.717 112.25 759.203 105.79C755.803 99.33 754.103 91.9633 754.103 83.69C754.103 75.4167 755.803 68.05 759.203 61.59C762.717 55.13 767.42 50.03 773.313 46.29C779.32 42.55 786.12 40.68 793.713 40.68C799.267 40.68 804.253 41.7567 808.673 43.91C813.207 46.0633 816.89 49.0667 819.723 52.92C822.557 56.66 824.143 60.9667 824.483 65.84V101.54C824.143 106.413 822.557 110.777 819.723 114.63C817.003 118.37 813.377 121.317 808.843 123.47C804.31 125.623 799.267 126.7 793.713 126.7ZM798.983 103.24C804.537 103.24 809.013 101.427 812.413 97.8C815.813 94.06 817.513 89.3567 817.513 83.69C817.513 79.8367 816.72 76.4367 815.133 73.49C813.66 70.5433 811.507 68.2767 808.673 66.69C805.953 64.99 802.78 64.14 799.153 64.14C795.527 64.14 792.297 64.99 789.463 66.69C786.743 68.2767 784.533 70.5433 782.833 73.49C781.247 76.4367 780.453 79.8367 780.453 83.69C780.453 87.43 781.247 90.7733 782.833 93.72C784.42 96.6667 786.63 98.99 789.463 100.69C792.297 102.39 795.47 103.24 798.983 103.24ZM816.493 125V102.73L820.403 82.67L816.493 62.61V42.38H841.993V125H816.493ZM860.307 125V42.38H886.317V125H860.307ZM886.317 79.61L875.437 71.11C877.59 61.4767 881.217 53.9967 886.317 48.67C891.417 43.3433 898.5 40.68 907.567 40.68C911.534 40.68 914.99 41.3033 917.937 42.55C920.997 43.6833 923.66 45.4967 925.927 47.99L910.457 67.54C909.324 66.2933 907.907 65.33 906.207 64.65C904.507 63.97 902.58 63.63 900.427 63.63C896.12 63.63 892.664 64.99 890.057 67.71C887.564 70.3167 886.317 74.2833 886.317 79.61ZM970.482 126.87C961.982 126.87 954.275 125 947.362 121.26C940.448 117.52 935.008 112.363 931.042 105.79C927.075 99.2167 925.092 91.85 925.092 83.69C925.092 75.4167 927.075 68.05 931.042 61.59C935.122 55.0167 940.618 49.86 947.532 46.12C954.445 42.38 962.208 40.51 970.822 40.51C977.282 40.51 983.175 41.6433 988.502 43.91C993.942 46.0633 998.758 49.35 1002.95 53.77L986.292 70.43C984.365 68.2767 982.098 66.69 979.492 65.67C976.998 64.65 974.108 64.14 970.822 64.14C967.082 64.14 963.738 64.99 960.792 66.69C957.958 68.2767 955.692 70.5433 953.992 73.49C952.405 76.3233 951.612 79.6667 951.612 83.52C951.612 87.3733 952.405 90.7733 953.992 93.72C955.692 96.6667 958.015 98.99 960.962 100.69C963.908 102.39 967.195 103.24 970.822 103.24C974.222 103.24 977.225 102.673 979.832 101.54C982.552 100.293 984.875 98.5933 986.802 96.44L1003.29 113.1C998.985 117.633 994.112 121.09 988.672 123.47C983.232 125.737 977.168 126.87 970.482 126.87ZM1052.66 126.87C1044.16 126.87 1036.45 125 1029.54 121.26C1022.74 117.407 1017.35 112.193 1013.39 105.62C1009.42 99.0467 1007.44 91.68 1007.44 83.52C1007.44 75.36 1009.42 68.05 1013.39 61.59C1017.35 55.13 1022.74 50.03 1029.54 46.29C1036.34 42.4367 1044.04 40.51 1052.66 40.51C1061.27 40.51 1068.98 42.38 1075.78 46.12C1082.58 49.86 1087.96 55.0167 1091.93 61.59C1095.89 68.05 1097.88 75.36 1097.88 83.52C1097.88 91.68 1095.89 99.0467 1091.93 105.62C1087.96 112.193 1082.58 117.407 1075.78 121.26C1068.98 125 1061.27 126.87 1052.66 126.87ZM1052.66 103.24C1056.4 103.24 1059.68 102.447 1062.52 100.86C1065.35 99.16 1067.5 96.8367 1068.98 93.89C1070.56 90.83 1071.36 87.3733 1071.36 83.52C1071.36 79.6667 1070.56 76.3233 1068.98 73.49C1067.39 70.5433 1065.18 68.2767 1062.35 66.69C1059.63 64.99 1056.4 64.14 1052.66 64.14C1049.03 64.14 1045.8 64.99 1042.97 66.69C1040.13 68.2767 1037.92 70.5433 1036.34 73.49C1034.75 76.4367 1033.96 79.8367 1033.96 83.69C1033.96 87.43 1034.75 90.83 1036.34 93.89C1037.92 96.8367 1040.13 99.16 1042.97 100.86C1045.8 102.447 1049.03 103.24 1052.66 103.24ZM1140.91 127.04C1136.04 127.04 1131.22 126.417 1126.46 125.17C1121.82 123.923 1117.45 122.167 1113.37 119.9C1109.41 117.52 1106.01 114.8 1103.17 111.74L1117.96 96.78C1120.68 99.7267 1123.91 102.05 1127.65 103.75C1131.39 105.337 1135.47 106.13 1139.89 106.13C1142.95 106.13 1145.28 105.677 1146.86 104.77C1148.56 103.863 1149.41 102.617 1149.41 101.03C1149.41 98.99 1148.39 97.46 1146.35 96.44C1144.43 95.3067 1141.93 94.3433 1138.87 93.55C1135.81 92.6433 1132.58 91.68 1129.18 90.66C1125.78 89.64 1122.55 88.2233 1119.49 86.41C1116.43 84.5967 1113.94 82.1033 1112.01 78.93C1110.09 75.6433 1109.12 71.5067 1109.12 66.52C1109.12 61.1933 1110.48 56.6033 1113.2 52.75C1115.92 48.7833 1119.78 45.6667 1124.76 43.4C1129.75 41.1333 1135.59 40 1142.27 40C1149.3 40 1155.76 41.2467 1161.65 43.74C1167.66 46.12 1172.53 49.69 1176.27 54.45L1161.48 69.41C1158.88 66.35 1155.93 64.1967 1152.64 62.95C1149.47 61.7033 1146.35 61.08 1143.29 61.08C1140.35 61.08 1138.14 61.5333 1136.66 62.44C1135.19 63.2333 1134.45 64.4233 1134.45 66.01C1134.45 67.71 1135.42 69.07 1137.34 70.09C1139.27 71.11 1141.76 72.0167 1144.82 72.81C1147.88 73.6033 1151.11 74.5667 1154.51 75.7C1157.91 76.8333 1161.14 78.3633 1164.2 80.29C1167.26 82.2167 1169.76 84.8233 1171.68 88.11C1173.61 91.2833 1174.57 95.4767 1174.57 100.69C1174.57 108.737 1171.51 115.14 1165.39 119.9C1159.39 124.66 1151.23 127.04 1140.91 127.04Z"/>
</mask>
<path d="M2.56 125H0.560001V127H2.56V125ZM2.56 4.97999V2.97999H0.560001V4.97999H2.56ZM29.25 4.97999H31.25V2.97999H29.25V4.97999ZM29.25 125V127H31.25V125H29.25ZM76.85 125H74.85V127H76.85V125ZM76.85 4.97999V2.97999H74.85V4.97999H76.85ZM103.71 4.97999H105.71V2.97999H103.71V4.97999ZM103.71 125V127H105.71V125H103.71ZM18.54 74.85H16.54V76.85H18.54V74.85ZM18.54 51.73V49.73H16.54V51.73H18.54ZM85.69 51.73H87.69V49.73H85.69V51.73ZM85.69 74.85V76.85H87.69V74.85H85.69ZM2.56 125H4.56V4.97999H2.56H0.560001V125H2.56ZM2.56 4.97999V6.97999H29.25V4.97999V2.97999H2.56V4.97999ZM29.25 4.97999H27.25V125H29.25H31.25V4.97999H29.25ZM29.25 125V123H2.56V125V127H29.25V125ZM76.85 125H78.85V4.97999H76.85H74.85V125H76.85ZM76.85 4.97999V6.97999H103.71V4.97999V2.97999H76.85V4.97999ZM103.71 4.97999H101.71V125H103.71H105.71V4.97999H103.71ZM103.71 125V123H76.85V125V127H103.71V125ZM18.54 74.85H20.54V51.73H18.54H16.54V74.85H18.54ZM18.54 51.73V53.73H85.69V51.73V49.73H18.54V51.73ZM85.69 51.73H83.69V74.85H85.69H87.69V51.73H85.69ZM85.69 74.85V72.85H18.54V74.85V76.85H85.69V74.85ZM124.36 125H122.36V127H124.36V125ZM124.36 42.38V40.38H122.36V42.38H124.36ZM150.37 42.38H152.37V40.38H150.37V42.38ZM150.37 125V127H152.37V125H150.37ZM127.25 26.91L125.778 28.2641L125.806 28.2948L125.835 28.3242L127.25 26.91ZM127.25 6.51L125.835 5.09578L125.82 5.11082L125.806 5.12618L127.25 6.51ZM147.48 26.91L148.924 28.2938L148.938 28.2791L148.952 28.2641L147.48 26.91ZM124.36 125H126.36V42.38H124.36H122.36V125H124.36ZM124.36 42.38V44.38H150.37V42.38V40.38H124.36V42.38ZM150.37 42.38H148.37V125H150.37H152.37V42.38H150.37ZM150.37 125V123H124.36V125V127H150.37V125ZM137.45 30.99V28.99C133.864 28.99 130.984 27.8162 128.664 25.4958L127.25 26.91L125.835 28.3242C128.955 31.4438 132.875 32.99 137.45 32.99V30.99ZM127.25 26.91L128.722 25.5559C126.466 23.1039 125.34 20.1918 125.34 16.71H123.34H121.34C121.34 21.1615 122.82 25.0494 125.778 28.2641L127.25 26.91ZM123.34 16.71H125.34C125.34 13.0988 126.475 10.2089 128.694 7.89381L127.25 6.51L125.806 5.12618C122.811 8.25106 121.34 12.1612 121.34 16.71H123.34ZM127.25 6.51L128.664 7.92421C130.984 5.6038 133.864 4.43 137.45 4.43V2.43V0.429997C132.875 0.429997 128.955 1.97619 125.835 5.09578L127.25 6.51ZM137.45 2.43V4.43C141.035 4.43 143.84 5.6023 146.036 7.89381L147.48 6.51L148.924 5.12618C145.906 1.97769 142.025 0.429997 137.45 0.429997V2.43ZM147.48 6.51L146.036 7.89381C148.254 10.2089 149.39 13.0988 149.39 16.71H151.39H153.39C153.39 12.1612 151.918 8.25106 148.924 5.12618L147.48 6.51ZM151.39 16.71H149.39C149.39 20.1918 148.264 23.1039 146.008 25.5559L147.48 26.91L148.952 28.2641C151.909 25.0494 153.39 21.1615 153.39 16.71H151.39ZM147.48 26.91L146.036 25.5262C143.84 27.8177 141.035 28.99 137.45 28.99V30.99V32.99C142.025 32.99 145.906 31.4423 148.924 28.2938L147.48 26.91ZM168.686 145.4L166.924 144.454L165.99 146.193L167.717 147.149L168.686 145.4ZM181.096 122.28L180.541 120.359L179.732 120.592L179.334 121.334L181.096 122.28ZM188.746 120.07L190.558 120.916L192.42 116.927L188.191 118.149L188.746 120.07ZM185.856 124.32L187.194 125.807L187.233 125.771L187.27 125.734L185.856 124.32ZM172.936 121.77L171.522 123.184L171.522 123.184L172.936 121.77ZM173.276 100.18L171.836 98.7917L171.823 98.8053L171.81 98.8191L173.276 100.18ZM195.376 100.18L193.936 101.568L193.961 101.594L193.988 101.62L195.376 100.18ZM199.116 117.86L197.193 117.311L197.193 117.311L199.116 117.86ZM195.036 127.21L196.79 128.17L196.797 128.158L196.803 128.146L195.036 127.21ZM181.266 152.37L180.297 154.119L182.055 155.094L183.02 153.33L181.266 152.37ZM168.686 145.4L170.448 146.346L182.858 123.226L181.096 122.28L179.334 121.334L166.924 144.454L168.686 145.4ZM181.096 122.28L181.651 124.201L189.301 121.991L188.746 120.07L188.191 118.149L180.541 120.359L181.096 122.28ZM188.746 120.07L186.933 119.224C186.222 120.748 185.385 121.963 184.442 122.906L185.856 124.32L187.27 125.734C188.594 124.411 189.683 122.792 190.558 120.916L188.746 120.07ZM185.856 124.32L184.518 122.833C183.738 123.536 182.906 123.85 181.946 123.85V125.85V127.85C183.932 127.85 185.707 127.144 187.194 125.807L185.856 124.32ZM181.946 125.85V123.85C179.28 123.85 176.764 122.77 174.35 120.356L172.936 121.77L171.522 123.184C174.548 126.21 178.039 127.85 181.946 127.85V125.85ZM172.936 121.77L174.35 120.356C172.03 118.035 170.856 115.155 170.856 111.57H168.856H166.856C166.856 116.145 168.402 120.065 171.522 123.184L172.936 121.77ZM168.856 111.57H170.856C170.856 107.643 172.146 104.336 174.741 101.541L173.276 100.18L171.81 98.8191C168.512 102.371 166.856 106.657 166.856 111.57H168.856ZM173.276 100.18L174.716 101.568C177.397 98.787 180.617 97.42 184.496 97.42V95.42V93.42C179.534 93.42 175.274 95.2263 171.836 98.7917L173.276 100.18ZM184.496 95.42V97.42C188.116 97.42 191.231 98.7634 193.936 101.568L195.376 100.18L196.816 98.7917C193.4 95.2499 189.263 93.42 184.496 93.42V95.42ZM195.376 100.18L193.988 101.62C196.758 104.291 198.136 107.562 198.136 111.57H200.136H202.136C202.136 106.511 200.341 102.189 196.764 98.7403L195.376 100.18ZM200.136 111.57H198.136C198.136 113.144 197.839 115.049 197.193 117.311L199.116 117.86L201.039 118.409C201.753 115.911 202.136 113.623 202.136 111.57H200.136ZM199.116 117.86L197.193 117.311C196.569 119.493 195.284 122.466 193.268 126.274L195.036 127.21L196.803 128.146C198.867 124.247 200.302 120.987 201.039 118.409L199.116 117.86ZM195.036 127.21L193.281 126.25L179.511 151.41L181.266 152.37L183.02 153.33L196.79 128.17L195.036 127.21ZM181.266 152.37L182.235 150.621L169.655 143.651L168.686 145.4L167.717 147.149L180.297 154.119L181.266 152.37ZM251.583 125H249.583V127H251.583V125ZM251.583 4.97999V2.97999H249.583V4.97999H251.583ZM278.273 4.97999H280.273V2.97999H278.273V4.97999ZM278.273 125V127H280.273V125H278.273ZM251.583 125H253.583V4.97999H251.583H249.583V125H251.583ZM251.583 4.97999V6.97999H278.273V4.97999V2.97999H251.583V4.97999ZM278.273 4.97999H276.273V125H278.273H280.273V4.97999H278.273ZM278.273 125V123H251.583V125V127H278.273V125ZM345.491 121.09L344.42 122.779L344.427 122.783L344.434 122.788L345.491 121.09ZM331.381 105.79L329.611 106.721L329.618 106.734L329.624 106.746L331.381 105.79ZM331.381 61.59L329.624 60.6345L329.618 60.6464L329.611 60.6585L331.381 61.59ZM345.491 46.29L344.434 44.5922L344.427 44.5967L344.42 44.6013L345.491 46.29ZM380.851 43.91L379.975 45.708L379.984 45.7123L379.993 45.7166L380.851 43.91ZM391.901 52.92L390.29 54.1048L390.298 54.1163L390.307 54.1277L391.901 52.92ZM396.661 65.84H398.661V65.7703L398.656 65.7008L396.661 65.84ZM396.661 101.54L398.656 101.679L398.661 101.61V101.54H396.661ZM391.901 114.63L390.29 113.445L390.284 113.454L391.901 114.63ZM381.021 123.47L380.163 121.663L380.163 121.663L381.021 123.47ZM384.591 97.8L386.05 99.1679L386.061 99.1567L386.071 99.1453L384.591 97.8ZM387.311 73.49L385.522 74.3844L385.536 74.4115L385.55 74.4382L387.311 73.49ZM380.851 66.69L379.791 68.386L379.832 68.4115L379.874 68.435L380.851 66.69ZM361.641 66.69L362.649 68.4176L362.66 68.4113L362.67 68.405L361.641 66.69ZM355.011 73.49L353.279 72.4906L353.264 72.516L353.25 72.5418L355.011 73.49ZM355.011 93.72L353.25 94.6682L353.25 94.6682L355.011 93.72ZM388.671 125H386.671V127H388.671V125ZM388.671 102.73L386.708 102.347L386.671 102.537V102.73H388.671ZM392.581 82.67L394.544 83.0526L394.619 82.67L394.544 82.2874L392.581 82.67ZM388.671 62.61H386.671V62.8031L386.708 62.9926L388.671 62.61ZM388.671 42.38V40.38H386.671V42.38H388.671ZM414.171 42.38H416.171V40.38H414.171V42.38ZM414.171 125V127H416.171V125H414.171ZM365.891 126.7V124.7C358.643 124.7 352.214 122.92 346.548 119.392L345.491 121.09L344.434 122.788C350.781 126.74 357.953 128.7 365.891 128.7V126.7ZM345.491 121.09L346.563 119.401C340.972 115.853 336.498 111.012 333.138 104.834L331.381 105.79L329.624 106.746C333.291 113.488 338.224 118.847 344.42 122.779L345.491 121.09ZM331.381 105.79L333.151 104.859C329.921 98.7221 328.281 91.6825 328.281 83.69H326.281H324.281C324.281 92.2442 326.041 99.9379 329.611 106.721L331.381 105.79ZM326.281 83.69H328.281C328.281 75.6975 329.921 68.6579 333.151 62.5215L331.381 61.59L329.611 60.6585C326.041 67.4421 324.281 75.1358 324.281 83.69H326.281ZM331.381 61.59L333.138 62.5455C336.498 56.3676 340.972 51.5267 346.563 47.9787L345.491 46.29L344.42 44.6013C338.224 48.5333 333.291 53.8924 329.624 60.6345L331.381 61.59ZM345.491 46.29L346.548 47.9878C352.214 44.4598 358.643 42.68 365.891 42.68V40.68V38.68C357.953 38.68 350.781 40.6402 344.434 44.5922L345.491 46.29ZM365.891 40.68V42.68C371.181 42.68 375.862 43.7039 379.975 45.708L380.851 43.91L381.727 42.112C377.001 39.8094 371.708 38.68 365.891 38.68V40.68ZM380.851 43.91L379.993 45.7166C384.243 47.7353 387.662 50.531 390.29 54.1048L391.901 52.92L393.512 51.7352C390.474 47.6023 386.526 44.3914 381.709 42.1034L380.851 43.91ZM391.901 52.92L390.307 54.1277C392.896 57.5449 394.352 61.4766 394.666 65.9792L396.661 65.84L398.656 65.7008C398.29 60.4567 396.573 55.7751 393.495 51.7123L391.901 52.92ZM396.661 65.84H394.661V101.54H396.661H398.661V65.84H396.661ZM396.661 101.54L394.666 101.401C394.352 105.905 392.894 109.904 390.29 113.445L391.901 114.63L393.512 115.815C396.575 111.649 398.291 106.922 398.656 101.679L396.661 101.54ZM391.901 114.63L390.284 113.454C387.777 116.901 384.421 119.641 380.163 121.663L381.021 123.47L381.879 125.277C386.688 122.992 390.586 119.839 393.519 115.806L391.901 114.63ZM381.021 123.47L380.163 121.663C375.925 123.676 371.18 124.7 365.891 124.7V126.7V128.7C371.709 128.7 377.05 127.57 381.879 125.277L381.021 123.47ZM371.161 103.24V105.24C377.196 105.24 382.226 103.247 386.05 99.1679L384.591 97.8L383.132 96.4321C380.156 99.6061 376.233 101.24 371.161 101.24V103.24ZM384.591 97.8L386.071 99.1453C389.847 94.9918 391.691 89.7893 391.691 83.69H389.691H387.691C387.691 88.924 386.135 93.1282 383.111 96.4547L384.591 97.8ZM389.691 83.69H391.691C391.691 79.5562 390.838 75.8213 389.072 72.5418L387.311 73.49L385.55 74.4382C386.958 77.052 387.691 80.1171 387.691 83.69H389.691ZM387.311 73.49L389.1 72.5956C387.45 69.296 385.017 66.7305 381.828 64.945L380.851 66.69L379.874 68.435C382.352 69.8229 384.225 71.7907 385.522 74.3844L387.311 73.49ZM380.851 66.69L381.911 64.994C378.833 63.0703 375.282 62.14 371.331 62.14V64.14V66.14C374.633 66.14 377.429 66.9097 379.791 68.386L380.851 66.69ZM371.331 64.14V62.14C367.379 62.14 363.786 63.0706 360.612 64.975L361.641 66.69L362.67 68.405C365.163 66.9094 368.031 66.14 371.331 66.14V64.14ZM361.641 66.69L360.633 64.9624C357.589 66.7386 355.138 69.2672 353.279 72.4906L355.011 73.49L356.744 74.4894C358.284 71.8194 360.254 69.8148 362.649 68.4176L361.641 66.69ZM355.011 73.49L353.25 72.5418C351.484 75.8213 350.631 79.5562 350.631 83.69H352.631H354.631C354.631 80.1171 355.365 77.052 356.772 74.4382L355.011 73.49ZM352.631 83.69H350.631C350.631 87.7214 351.489 91.3972 353.25 94.6682L355.011 93.72L356.772 92.7718C355.36 90.1495 354.631 87.1386 354.631 83.69H352.631ZM355.011 93.72L353.25 94.6682C355.005 97.9274 357.466 100.517 360.612 102.405L361.641 100.69L362.67 98.975C360.149 97.4626 358.191 95.406 356.772 92.7718L355.011 93.72ZM361.641 100.69L360.612 102.405C363.776 104.303 367.309 105.24 371.161 105.24V103.24V101.24C367.986 101.24 365.173 100.477 362.67 98.975L361.641 100.69ZM388.671 125H390.671V102.73H388.671H386.671V125H388.671ZM388.671 102.73L390.634 103.113L394.544 83.0526L392.581 82.67L390.618 82.2874L386.708 102.347L388.671 102.73ZM392.581 82.67L394.544 82.2874L390.634 62.2274L388.671 62.61L386.708 62.9926L390.618 83.0526L392.581 82.67ZM388.671 62.61H390.671V42.38H388.671H386.671V62.61H388.671ZM388.671 42.38V44.38H414.171V42.38V40.38H388.671V42.38ZM414.171 42.38H412.171V125H414.171H416.171V42.38H414.171ZM414.171 125V123H388.671V125V127H414.171V125ZM432.485 125H430.485V127H432.485V125ZM432.485 42.38V40.38H430.485V42.38H432.485ZM458.495 42.38H460.495V40.38H458.495V42.38ZM458.495 125V127H460.495V125H458.495ZM485.355 125H483.355V127H485.355V125ZM481.445 67.03L480.064 68.4767L480.097 68.5088L480.132 68.5392L481.445 67.03ZM465.125 65.16L466.019 66.9488L466.058 66.9294L466.096 66.9083L465.125 65.16ZM460.195 69.58L458.516 68.4935L458.492 68.5293L458.471 68.566L460.195 69.58ZM458.495 76.72L457.688 78.5502L460.495 79.7869V76.72H458.495ZM448.465 72.3H446.465V73.6042L447.658 74.1302L448.465 72.3ZM452.715 55.47L454.422 56.5112L454.428 56.5021L454.433 56.493L452.715 55.47ZM464.275 44.59L465.186 46.3705L465.202 46.3622L465.218 46.3536L464.275 44.59ZM496.235 44.59L495.238 46.3238L495.247 46.3291L495.256 46.3343L496.235 44.59ZM507.285 55.47L505.559 56.4804L505.559 56.4804L507.285 55.47ZM511.365 125V127H513.365V125H511.365ZM538.225 125H536.225V127H538.225V125ZM534.315 67.03L532.934 68.4767L532.967 68.5088L533.002 68.5392L534.315 67.03ZM517.995 65.16L518.889 66.9488L518.928 66.9294L518.966 66.9083L517.995 65.16ZM513.065 69.58L511.386 68.4935L511.362 68.5293L511.341 68.566L513.065 69.58ZM511.365 76.72L511.094 78.7017L513.365 79.0112V76.72H511.365ZM496.405 74.68L494.406 74.6155L494.348 76.418L496.134 76.6617L496.405 74.68ZM501.335 56.66L499.637 55.6034L499.63 55.614L501.335 56.66ZM513.745 44.93L514.686 46.6947L514.693 46.691L514.7 46.6872L513.745 44.93ZM548.085 44.76L547.11 46.5064L547.134 46.5197L547.158 46.5324L548.085 44.76ZM559.815 56.15L558.076 57.138L558.089 57.1616L558.103 57.1848L559.815 56.15ZM564.235 125V127H566.235V125H564.235ZM432.485 125H434.485V42.38H432.485H430.485V125H432.485ZM432.485 42.38V44.38H458.495V42.38V40.38H432.485V42.38ZM458.495 42.38H456.495V125H458.495H460.495V42.38H458.495ZM458.495 125V123H432.485V125V127H458.495V125ZM485.355 125H487.355V76.72H485.355H483.355V125H485.355ZM485.355 76.72H487.355C487.355 72.0829 485.893 68.2478 482.757 65.5208L481.445 67.03L480.132 68.5392C482.21 70.3455 483.355 72.9704 483.355 76.72H485.355ZM481.445 67.03L482.826 65.5833C479.927 62.8164 476.301 61.46 472.095 61.46V63.46V65.46C475.368 65.46 477.976 66.4836 480.064 68.4767L481.445 67.03ZM472.095 63.46V61.46C469.189 61.46 466.524 62.0947 464.153 63.4117L465.125 65.16L466.096 66.9083C467.805 65.9587 469.787 65.46 472.095 65.46V63.46ZM465.125 65.16L464.23 63.3711C461.869 64.552 459.955 66.2688 458.516 68.4935L460.195 69.58L461.874 70.6665C462.928 69.0379 464.301 67.808 466.019 66.9488L465.125 65.16ZM460.195 69.58L458.471 68.566C457.114 70.872 456.495 73.6241 456.495 76.72H458.495H460.495C460.495 74.1493 461.008 72.1414 461.919 70.594L460.195 69.58ZM458.495 76.72L459.301 74.8898L449.271 70.4698L448.465 72.3L447.658 74.1302L457.688 78.5502L458.495 76.72ZM448.465 72.3H450.465C450.465 66.0174 451.816 60.7847 454.422 56.5112L452.715 55.47L451.007 54.4288C447.946 59.4486 446.465 65.436 446.465 72.3H448.465ZM452.715 55.47L454.433 56.493C457.076 52.0524 460.652 48.6902 465.186 46.3705L464.275 44.59L463.364 42.8095C458.151 45.4765 454.02 49.3676 450.996 54.447L452.715 55.47ZM464.275 44.59L465.218 46.3536C469.771 43.9183 474.938 42.68 480.765 42.68V40.68V38.68C474.352 38.68 468.525 40.0484 463.331 42.8264L464.275 44.59ZM480.765 40.68V42.68C486.233 42.68 491.039 43.9095 495.238 46.3238L496.235 44.59L497.232 42.8562C492.364 40.0572 486.857 38.68 480.765 38.68V40.68ZM496.235 44.59L495.256 46.3343C499.589 48.7651 503.016 52.137 505.559 56.4804L507.285 55.47L509.011 54.4596C506.113 49.5097 502.173 45.6282 497.213 42.8457L496.235 44.59ZM507.285 55.47L505.559 56.4804C508.066 60.7645 509.365 65.954 509.365 72.13H511.365H513.365C513.365 65.386 511.943 59.4688 509.011 54.4596L507.285 55.47ZM511.365 72.13H509.365V125H511.365H513.365V72.13H511.365ZM511.365 125V123H485.355V125V127H511.365V125ZM538.225 125H540.225V76.72H538.225H536.225V125H538.225ZM538.225 76.72H540.225C540.225 72.0829 538.763 68.2478 535.627 65.5208L534.315 67.03L533.002 68.5392C535.08 70.3455 536.225 72.9704 536.225 76.72H538.225ZM534.315 67.03L535.696 65.5833C532.797 62.8164 529.171 61.46 524.965 61.46V63.46V65.46C528.238 65.46 530.846 66.4836 532.934 68.4767L534.315 67.03ZM524.965 63.46V61.46C522.059 61.46 519.394 62.0947 517.023 63.4117L517.995 65.16L518.966 66.9083C520.675 65.9587 522.657 65.46 524.965 65.46V63.46ZM517.995 65.16L517.1 63.3711C514.739 64.552 512.825 66.2688 511.386 68.4935L513.065 69.58L514.744 70.6665C515.798 69.0379 517.171 67.808 518.889 66.9488L517.995 65.16ZM513.065 69.58L511.341 68.566C509.984 70.872 509.365 73.6241 509.365 76.72H511.365H513.365C513.365 74.1493 513.878 72.1414 514.789 70.594L513.065 69.58ZM511.365 76.72L511.635 74.7383L496.675 72.6983L496.405 74.68L496.134 76.6617L511.094 78.7017L511.365 76.72ZM496.405 74.68L498.404 74.7445C498.621 67.995 500.194 62.3422 503.039 57.706L501.335 56.66L499.63 55.614C496.355 60.9511 494.641 67.3116 494.406 74.6155L496.405 74.68ZM501.335 56.66L503.033 57.7166C506.028 52.9028 509.908 49.2426 514.686 46.6947L513.745 44.93L512.804 43.1653C507.381 46.0573 502.988 50.2172 499.637 55.6034L501.335 56.66ZM513.745 44.93L514.7 46.6872C519.594 44.0271 525.098 42.68 531.255 42.68V40.68V38.68C524.491 38.68 518.322 40.1662 512.79 43.1727L513.745 44.93ZM531.255 40.68V42.68C537.308 42.68 542.573 43.9744 547.11 46.5064L548.085 44.76L549.059 43.0136C543.849 40.1056 537.895 38.68 531.255 38.68V40.68ZM548.085 44.76L547.158 46.5324C551.797 48.9575 555.428 52.4786 558.076 57.138L559.815 56.15L561.554 55.162C558.534 49.848 554.345 45.7758 549.011 42.9875L548.085 44.76ZM559.815 56.15L558.103 57.1848C560.824 61.6853 562.235 67.2033 562.235 73.83H564.235H566.235C566.235 66.63 564.698 60.3614 561.526 55.1152L559.815 56.15ZM564.235 73.83H562.235V125H564.235H566.235V73.83H564.235ZM564.235 125V123H538.225V125V127H564.235V125ZM615.656 125H613.656V127H615.656V125ZM615.656 4.97999V2.97999H613.656V4.97999H615.656ZM634.696 4.97999L636.379 3.89946L635.788 2.97999H634.696V4.97999ZM681.956 78.59V80.59H685.616L683.639 77.5095L681.956 78.59ZM672.266 78.59L670.581 77.5122L668.612 80.59H672.266V78.59ZM719.356 4.97999V2.97999H718.261L717.671 3.90222L719.356 4.97999ZM738.566 4.97999H740.566V2.97999H738.566V4.97999ZM738.566 125V127H740.566V125H738.566ZM711.876 125H709.876V127H711.876V125ZM711.876 50.03L712.361 48.0897L709.876 47.4684V50.03H711.876ZM716.636 51.22L718.319 52.3003L719.824 49.9555L717.121 49.2797L716.636 51.22ZM685.866 99.16V101.16H686.959L687.549 100.24L685.866 99.16ZM668.186 99.16L666.5 100.236L667.09 101.16H668.186V99.16ZM637.586 51.22L637.084 49.284L634.418 49.975L635.9 52.2961L637.586 51.22ZM642.176 50.03H644.176V47.4454L641.674 48.094L642.176 50.03ZM642.176 125V127H644.176V125H642.176ZM615.656 125H617.656V4.97999H615.656H613.656V125H615.656ZM615.656 4.97999V6.97999H634.696V4.97999V2.97999H615.656V4.97999ZM634.696 4.97999L633.013 6.06053L680.273 79.6705L681.956 78.59L683.639 77.5095L636.379 3.89946L634.696 4.97999ZM681.956 78.59V76.59H672.266V78.59V80.59H681.956V78.59ZM672.266 78.59L673.95 79.6678L721.04 6.05777L719.356 4.97999L717.671 3.90222L670.581 77.5122L672.266 78.59ZM719.356 4.97999V6.97999H738.566V4.97999V2.97999H719.356V4.97999ZM738.566 4.97999H736.566V125H738.566H740.566V4.97999H738.566ZM738.566 125V123H711.876V125V127H738.566V125ZM711.876 125H713.876V50.03H711.876H709.876V125H711.876ZM711.876 50.03L711.391 51.9703L716.151 53.1603L716.636 51.22L717.121 49.2797L712.361 48.0897L711.876 50.03ZM716.636 51.22L714.953 50.1397L684.183 98.0797L685.866 99.16L687.549 100.24L718.319 52.3003L716.636 51.22ZM685.866 99.16V97.16H668.186V99.16V101.16H685.866V99.16ZM668.186 99.16L669.872 98.0839L639.272 50.1439L637.586 51.22L635.9 52.2961L666.5 100.236L668.186 99.16ZM637.586 51.22L638.088 53.156L642.678 51.966L642.176 50.03L641.674 48.094L637.084 49.284L637.586 51.22ZM642.176 50.03H640.176V125H642.176H644.176V50.03H642.176ZM642.176 125V123H615.656V125V127H642.176V125ZM773.313 121.09L772.242 122.779L772.249 122.783L772.256 122.788L773.313 121.09ZM759.203 105.79L757.434 106.721L757.44 106.734L757.446 106.746L759.203 105.79ZM759.203 61.59L757.446 60.6345L757.44 60.6464L757.434 60.6585L759.203 61.59ZM773.313 46.29L772.256 44.5922L772.249 44.5967L772.242 44.6013L773.313 46.29ZM808.673 43.91L807.798 45.708L807.806 45.7123L807.815 45.7166L808.673 43.91ZM819.723 52.92L818.112 54.1048L818.121 54.1163L818.129 54.1277L819.723 52.92ZM824.483 65.84H826.483V65.7703L826.479 65.7008L824.483 65.84ZM824.483 101.54L826.479 101.679L826.483 101.61V101.54H824.483ZM819.723 114.63L818.112 113.445L818.106 113.454L819.723 114.63ZM808.843 123.47L807.985 121.663L807.985 121.663L808.843 123.47ZM812.413 97.8L813.873 99.1679L813.883 99.1567L813.893 99.1453L812.413 97.8ZM815.133 73.49L813.345 74.3844L813.358 74.4115L813.372 74.4382L815.133 73.49ZM808.673 66.69L807.613 68.386L807.654 68.4115L807.696 68.435L808.673 66.69ZM789.463 66.69L790.471 68.4176L790.482 68.4113L790.492 68.405L789.463 66.69ZM782.833 73.49L781.101 72.4906L781.086 72.516L781.072 72.5418L782.833 73.49ZM782.833 93.72L781.072 94.6682L781.072 94.6682L782.833 93.72ZM816.493 125H814.493V127H816.493V125ZM816.493 102.73L814.53 102.347L814.493 102.537V102.73H816.493ZM820.403 82.67L822.367 83.0526L822.441 82.67L822.367 82.2874L820.403 82.67ZM816.493 62.61H814.493V62.8031L814.53 62.9926L816.493 62.61ZM816.493 42.38V40.38H814.493V42.38H816.493ZM841.993 42.38H843.993V40.38H841.993V42.38ZM841.993 125V127H843.993V125H841.993ZM793.713 126.7V124.7C786.465 124.7 780.037 122.92 774.371 119.392L773.313 121.09L772.256 122.788C778.604 126.74 785.775 128.7 793.713 128.7V126.7ZM773.313 121.09L774.385 119.401C768.794 115.853 764.32 111.012 760.96 104.834L759.203 105.79L757.446 106.746C761.113 113.488 766.046 118.847 772.242 122.779L773.313 121.09ZM759.203 105.79L760.973 104.859C757.744 98.7221 756.103 91.6825 756.103 83.69H754.103H752.103C752.103 92.2442 753.863 99.9379 757.434 106.721L759.203 105.79ZM754.103 83.69H756.103C756.103 75.6975 757.744 68.6579 760.973 62.5215L759.203 61.59L757.434 60.6585C753.863 67.4421 752.103 75.1358 752.103 83.69H754.103ZM759.203 61.59L760.96 62.5455C764.32 56.3676 768.794 51.5267 774.385 47.9787L773.313 46.29L772.242 44.6013C766.046 48.5333 761.113 53.8924 757.446 60.6345L759.203 61.59ZM773.313 46.29L774.371 47.9878C780.037 44.4598 786.465 42.68 793.713 42.68V40.68V38.68C785.775 38.68 778.604 40.6402 772.256 44.5922L773.313 46.29ZM793.713 40.68V42.68C799.003 42.68 803.684 43.7039 807.798 45.708L808.673 43.91L809.549 42.112C804.823 39.8094 799.531 38.68 793.713 38.68V40.68ZM808.673 43.91L807.815 45.7166C812.065 47.7353 815.484 50.531 818.112 54.1048L819.723 52.92L821.335 51.7352C818.296 47.6023 814.348 44.3914 809.532 42.1034L808.673 43.91ZM819.723 52.92L818.129 54.1277C820.718 57.5449 822.174 61.4766 822.488 65.9792L824.483 65.84L826.479 65.7008C826.113 60.4567 824.396 55.7751 821.318 51.7123L819.723 52.92ZM824.483 65.84H822.483V101.54H824.483H826.483V65.84H824.483ZM824.483 101.54L822.488 101.401C822.174 105.905 820.716 109.904 818.112 113.445L819.723 114.63L821.335 115.815C824.397 111.649 826.113 106.922 826.479 101.679L824.483 101.54ZM819.723 114.63L818.106 113.454C815.599 116.901 812.243 119.641 807.985 121.663L808.843 123.47L809.702 125.277C814.51 122.992 818.408 119.839 821.341 115.806L819.723 114.63ZM808.843 123.47L807.985 121.663C803.748 123.676 799.002 124.7 793.713 124.7V126.7V128.7C799.532 128.7 804.873 127.57 809.702 125.277L808.843 123.47ZM798.983 103.24V105.24C805.018 105.24 810.048 103.247 813.873 99.1679L812.413 97.8L810.954 96.4321C807.979 99.6061 804.056 101.24 798.983 101.24V103.24ZM812.413 97.8L813.893 99.1453C817.669 94.9918 819.513 89.7893 819.513 83.69H817.513H815.513C815.513 88.924 813.958 93.1282 810.934 96.4547L812.413 97.8ZM817.513 83.69H819.513C819.513 79.5562 818.66 75.8213 816.894 72.5418L815.133 73.49L813.372 74.4382C814.78 77.052 815.513 80.1171 815.513 83.69H817.513ZM815.133 73.49L816.922 72.5956C815.273 69.296 812.839 66.7305 809.651 64.945L808.673 66.69L807.696 68.435C810.175 69.8229 812.048 71.7907 813.345 74.3844L815.133 73.49ZM808.673 66.69L809.733 64.994C806.655 63.0703 803.105 62.14 799.153 62.14V64.14V66.14C802.456 66.14 805.251 66.9097 807.613 68.386L808.673 66.69ZM799.153 64.14V62.14C795.201 62.14 791.608 63.0706 788.434 64.975L789.463 66.69L790.492 68.405C792.985 66.9094 795.853 66.14 799.153 66.14V64.14ZM789.463 66.69L788.456 64.9624C785.411 66.7386 782.961 69.2672 781.101 72.4906L782.833 73.49L784.566 74.4894C786.106 71.8194 788.076 69.8148 790.471 68.4176L789.463 66.69ZM782.833 73.49L781.072 72.5418C779.307 75.8213 778.453 79.5562 778.453 83.69H780.453H782.453C782.453 80.1171 783.187 77.052 784.594 74.4382L782.833 73.49ZM780.453 83.69H778.453C778.453 87.7214 779.311 91.3972 781.072 94.6682L782.833 93.72L784.594 92.7718C783.182 90.1495 782.453 87.1386 782.453 83.69H780.453ZM782.833 93.72L781.072 94.6682C782.827 97.9274 785.288 100.517 788.434 102.405L789.463 100.69L790.492 98.975C787.972 97.4626 786.013 95.406 784.594 92.7718L782.833 93.72ZM789.463 100.69L788.434 102.405C791.598 104.303 795.131 105.24 798.983 105.24V103.24V101.24C795.809 101.24 792.995 100.477 790.492 98.975L789.463 100.69ZM816.493 125H818.493V102.73H816.493H814.493V125H816.493ZM816.493 102.73L818.457 103.113L822.367 83.0526L820.403 82.67L818.44 82.2874L814.53 102.347L816.493 102.73ZM820.403 82.67L822.367 82.2874L818.457 62.2274L816.493 62.61L814.53 62.9926L818.44 83.0526L820.403 82.67ZM816.493 62.61H818.493V42.38H816.493H814.493V62.61H816.493ZM816.493 42.38V44.38H841.993V42.38V40.38H816.493V42.38ZM841.993 42.38H839.993V125H841.993H843.993V42.38H841.993ZM841.993 125V123H816.493V125V127H841.993V125ZM860.307 125H858.307V127H860.307V125ZM860.307 42.38V40.38H858.307V42.38H860.307ZM886.317 42.38H888.317V40.38H886.317V42.38ZM886.317 125V127H888.317V125H886.317ZM886.317 79.61L885.086 81.186L888.317 83.7105V79.61H886.317ZM875.437 71.11L873.485 70.6737L873.209 71.9076L874.206 72.686L875.437 71.11ZM886.317 48.67L887.762 50.0531L886.317 48.67ZM917.937 42.55L917.158 44.3919L917.2 44.4097L917.242 44.4255L917.937 42.55ZM925.927 47.99L927.495 49.2311L928.548 47.9003L927.407 46.6447L925.927 47.99ZM910.457 67.54L908.977 68.8853L910.563 70.6295L912.025 68.7811L910.457 67.54ZM906.207 64.65L905.464 66.5069L905.464 66.5069L906.207 64.65ZM890.057 67.71L888.613 66.3262L888.612 66.3276L890.057 67.71ZM860.307 125H862.307V42.38H860.307H858.307V125H860.307ZM860.307 42.38V44.38H886.317V42.38V40.38H860.307V42.38ZM886.317 42.38H884.317V125H886.317H888.317V42.38H886.317ZM886.317 125V123H860.307V125V127H886.317V125ZM886.317 79.61L887.548 78.0339L876.668 69.534L875.437 71.11L874.206 72.686L885.086 81.186L886.317 79.61ZM875.437 71.11L877.389 71.5463C879.489 62.1521 882.985 55.0415 887.762 50.0531L886.317 48.67L884.872 47.2869C879.448 52.9518 875.692 60.8012 873.485 70.6737L875.437 71.11ZM886.317 48.67L887.762 50.0531C892.401 45.2077 898.912 42.68 907.567 42.68V40.68V38.68C898.089 38.68 890.433 41.4789 884.872 47.2869L886.317 48.67ZM907.567 40.68V42.68C911.328 42.68 914.509 43.2714 917.158 44.3919L917.937 42.55L918.716 40.7081C915.472 39.3353 911.739 38.68 907.567 38.68V40.68ZM917.937 42.55L917.242 44.4255C919.992 45.4439 922.389 47.0711 924.447 49.3353L925.927 47.99L927.407 46.6447C924.932 43.9223 922.002 41.9228 918.632 40.6745L917.937 42.55ZM925.927 47.99L924.359 46.7489L908.889 66.2989L910.457 67.54L912.025 68.7811L927.495 49.2311L925.927 47.99ZM910.457 67.54L911.937 66.1946C910.582 64.7049 908.906 63.5756 906.95 62.793L906.207 64.65L905.464 66.5069C906.908 67.0844 908.065 67.8818 908.977 68.8853L910.457 67.54ZM906.207 64.65L906.95 62.793C904.976 62.0035 902.791 61.63 900.427 61.63V63.63V65.63C902.37 65.63 904.038 65.9365 905.464 66.5069L906.207 64.65ZM900.427 63.63V61.63C895.66 61.63 891.652 63.1549 888.613 66.3262L890.057 67.71L891.501 69.0938C893.675 66.8251 896.58 65.63 900.427 65.63V63.63ZM890.057 67.71L888.612 66.3276C885.624 69.4509 884.317 74.0108 884.317 79.61H886.317H888.317C888.317 74.5559 889.503 71.1824 891.502 69.0924L890.057 67.71ZM947.362 121.26L948.313 119.501L947.362 121.26ZM931.042 105.79L932.754 104.757L931.042 105.79ZM931.042 61.59L929.342 60.5353L929.337 60.5435L931.042 61.59ZM947.532 46.12L948.483 47.8791L948.483 47.8791L947.532 46.12ZM988.502 43.91L987.718 45.7503L987.742 45.7603L987.765 45.7696L988.502 43.91ZM1002.95 53.77L1004.37 55.1842L1005.74 53.8067L1004.4 52.3935L1002.95 53.77ZM986.292 70.43L984.801 71.7636L986.211 73.3392L987.706 71.8442L986.292 70.43ZM979.492 65.67L978.734 67.5211L978.748 67.5269L978.763 67.5325L979.492 65.67ZM960.792 66.69L961.769 68.435L961.78 68.4288L961.791 68.4224L960.792 66.69ZM953.992 73.49L952.259 72.4906L952.253 72.5016L952.247 72.5128L953.992 73.49ZM953.992 93.72L952.231 94.6682L952.245 94.694L952.259 94.7194L953.992 93.72ZM979.832 101.54L980.629 103.374L980.647 103.366L980.665 103.358L979.832 101.54ZM986.802 96.44L988.223 95.0331L986.728 93.5227L985.311 95.1064L986.802 96.44ZM1003.29 113.1L1004.74 114.477L1006.08 113.071L1004.71 111.693L1003.29 113.1ZM988.672 123.47L989.441 125.316L989.457 125.309L989.473 125.302L988.672 123.47ZM970.482 126.87V124.87C962.286 124.87 954.911 123.07 948.313 119.501L947.362 121.26L946.41 123.019C953.639 126.93 961.677 128.87 970.482 128.87V126.87ZM947.362 121.26L948.313 119.501C941.706 115.926 936.532 111.017 932.754 104.757L931.042 105.79L929.329 106.823C933.485 113.71 939.191 119.114 946.41 123.019L947.362 121.26ZM931.042 105.79L932.754 104.757C928.987 98.515 927.092 91.5096 927.092 83.69H925.092H923.092C923.092 92.1904 925.162 99.9184 929.329 106.823L931.042 105.79ZM925.092 83.69H927.092C927.092 75.7512 928.99 68.7532 932.746 62.6365L931.042 61.59L929.337 60.5435C925.16 67.3468 923.092 75.0822 923.092 83.69H925.092ZM931.042 61.59L932.741 62.6447C936.634 56.3722 941.871 51.4562 948.483 47.8791L947.532 46.12L946.58 44.3609C939.365 48.2638 933.609 53.6612 929.342 60.5353L931.042 61.59ZM947.532 46.12L948.483 47.8791C955.077 44.312 962.508 42.51 970.822 42.51V40.51V38.51C961.908 38.51 953.813 40.448 946.58 44.3609L947.532 46.12ZM970.822 40.51V42.51C977.044 42.51 982.667 43.6006 987.718 45.7503L988.502 43.91L989.285 42.0697C983.683 39.6861 977.519 38.51 970.822 38.51V40.51ZM988.502 43.91L987.765 45.7696C992.924 47.8114 997.499 50.9287 1001.5 55.1465L1002.95 53.77L1004.4 52.3935C1000.02 47.7713 994.959 44.3153 989.238 42.0504L988.502 43.91ZM1002.95 53.77L1001.54 52.3558L984.877 69.0158L986.292 70.43L987.706 71.8442L1004.37 55.1842L1002.95 53.77ZM986.292 70.43L987.782 69.0964C985.653 66.7173 983.128 64.9455 980.22 63.8075L979.492 65.67L978.763 67.5325C981.068 68.4345 983.076 69.836 984.801 71.7636L986.292 70.43ZM979.492 65.67L980.249 63.8189C977.469 62.6815 974.312 62.14 970.822 62.14V64.14V66.14C973.904 66.14 976.528 66.6185 978.734 67.5211L979.492 65.67ZM970.822 64.14V62.14C966.767 62.14 963.072 63.0652 959.792 64.9576L960.792 66.69L961.791 68.4224C964.404 66.9148 967.397 66.14 970.822 66.14V64.14ZM960.792 66.69L959.814 64.945C956.652 66.7162 954.13 69.2474 952.259 72.4906L953.992 73.49L955.724 74.4894C957.253 71.8393 959.265 69.8371 961.769 68.435L960.792 66.69ZM953.992 73.49L952.247 72.5128C950.464 75.6959 949.612 79.3885 949.612 83.52H951.612H953.612C953.612 79.9449 954.346 76.9507 955.737 74.4672L953.992 73.49ZM951.612 83.52H949.612C949.612 87.6538 950.465 91.3887 952.231 94.6682L953.992 93.72L955.753 92.7718C954.345 90.158 953.612 87.0929 953.612 83.52H951.612ZM953.992 93.72L952.259 94.7194C954.135 97.9706 956.711 100.547 959.962 102.422L960.962 100.69L961.961 98.9576C959.319 97.4333 957.248 95.3627 955.724 92.7206L953.992 93.72ZM960.962 100.69L959.962 102.422C963.233 104.309 966.868 105.24 970.822 105.24V103.24V101.24C967.522 101.24 964.584 100.471 961.961 98.9576L960.962 100.69ZM970.822 103.24V105.24C974.443 105.24 977.726 104.636 980.629 103.374L979.832 101.54L979.034 99.7059C976.723 100.711 974 101.24 970.822 101.24V103.24ZM979.832 101.54L980.665 103.358C983.626 102.001 986.175 100.139 988.292 97.7736L986.802 96.44L985.311 95.1064C983.574 97.0474 981.477 98.5856 978.998 99.7219L979.832 101.54ZM986.802 96.44L985.38 97.8469L1001.87 114.507L1003.29 113.1L1004.71 111.693L988.223 95.0331L986.802 96.44ZM1003.29 113.1L1001.84 111.723C997.709 116.073 993.053 119.37 987.87 121.638L988.672 123.47L989.473 125.302C995.17 122.81 1000.26 119.194 1004.74 114.477L1003.29 113.1ZM988.672 123.47L987.902 121.624C982.737 123.776 976.94 124.87 970.482 124.87V126.87V128.87C977.397 128.87 983.726 127.697 989.441 125.316L988.672 123.47ZM1029.54 121.26L1028.55 123L1028.57 123.01L1028.58 123.019L1029.54 121.26ZM1013.39 105.62L1015.1 104.587L1015.1 104.587L1013.39 105.62ZM1013.39 61.59L1011.68 60.5435L1011.68 60.5435L1013.39 61.59ZM1029.54 46.29L1030.5 48.0424L1030.51 48.0363L1030.52 48.03L1029.54 46.29ZM1091.93 61.59L1090.21 62.6233L1090.22 62.6299L1090.22 62.6365L1091.93 61.59ZM1091.93 105.62L1093.64 106.653L1093.64 106.653L1091.93 105.62ZM1075.78 121.26L1076.74 123.012L1076.75 123.006L1076.76 123L1075.78 121.26ZM1062.52 100.86L1063.49 102.605L1063.52 102.59L1063.54 102.575L1062.52 100.86ZM1068.98 93.89L1067.2 92.9694L1067.19 92.9824L1067.19 92.9956L1068.98 93.89ZM1068.98 73.49L1067.21 74.4382L1067.22 74.4528L1067.23 74.4672L1068.98 73.49ZM1062.35 66.69L1061.29 68.386L1061.33 68.4115L1061.37 68.435L1062.35 66.69ZM1042.97 66.69L1043.94 68.435L1043.97 68.4204L1043.99 68.405L1042.97 66.69ZM1036.34 73.49L1038.1 74.4382L1038.1 74.4382L1036.34 73.49ZM1036.34 93.89L1034.56 94.8106L1034.57 94.8245L1034.57 94.8382L1036.34 93.89ZM1042.97 100.86L1041.94 102.575L1041.96 102.59L1041.99 102.605L1042.97 100.86ZM1052.66 126.87V124.87C1044.46 124.87 1037.08 123.07 1030.49 119.501L1029.54 121.26L1028.58 123.019C1035.81 126.93 1043.85 128.87 1052.66 128.87V126.87ZM1029.54 121.26L1030.52 119.52C1024.01 115.833 1018.88 110.86 1015.1 104.587L1013.39 105.62L1011.67 106.653C1015.82 113.526 1021.46 118.981 1028.55 123L1029.54 121.26ZM1013.39 105.62L1015.1 104.587C1011.33 98.345 1009.44 91.3396 1009.44 83.52H1007.44H1005.44C1005.44 92.0204 1007.51 99.7484 1011.67 106.653L1013.39 105.62ZM1007.44 83.52H1009.44C1009.44 75.7001 1011.33 68.7576 1015.09 62.6365L1013.39 61.59L1011.68 60.5435C1007.51 67.3424 1005.44 75.0199 1005.44 83.52H1007.44ZM1013.39 61.59L1015.09 62.6365C1018.87 56.4793 1024 51.6195 1030.5 48.0424L1029.54 46.29L1028.57 44.5376C1021.48 48.4405 1015.83 53.7807 1011.68 60.5435L1013.39 61.59ZM1029.54 46.29L1030.52 48.03C1036.99 44.3641 1044.35 42.51 1052.66 42.51V40.51V38.51C1043.73 38.51 1035.68 40.5093 1028.55 44.55L1029.54 46.29ZM1052.66 40.51V42.51C1060.97 42.51 1068.34 44.3121 1074.81 47.8724L1075.78 46.12L1076.74 44.3676C1069.61 40.4479 1061.57 38.51 1052.66 38.51V40.51ZM1075.78 46.12L1074.81 47.8724C1081.31 51.4447 1086.43 56.3548 1090.21 62.6233L1091.93 61.59L1093.64 60.5567C1089.49 53.6785 1083.84 48.2753 1076.74 44.3676L1075.78 46.12ZM1091.93 61.59L1090.22 62.6365C1093.98 68.7576 1095.88 75.7001 1095.88 83.52H1097.88H1099.88C1099.88 75.0199 1097.8 67.3424 1093.63 60.5435L1091.93 61.59ZM1097.88 83.52H1095.88C1095.88 91.3396 1093.98 98.345 1090.21 104.587L1091.93 105.62L1093.64 106.653C1097.8 99.7484 1099.88 92.0204 1099.88 83.52H1097.88ZM1091.93 105.62L1090.21 104.587C1086.43 110.86 1081.3 115.833 1074.79 119.52L1075.78 121.26L1076.76 123C1083.85 118.981 1089.49 113.526 1093.64 106.653L1091.93 105.62ZM1075.78 121.26L1074.81 119.508C1068.34 123.068 1060.97 124.87 1052.66 124.87V126.87V128.87C1061.57 128.87 1069.61 126.932 1076.74 123.012L1075.78 121.26ZM1052.66 103.24V105.24C1056.69 105.24 1060.32 104.383 1063.49 102.605L1062.52 100.86L1061.54 99.115C1059.05 100.511 1056.11 101.24 1052.66 101.24V103.24ZM1062.52 100.86L1063.54 102.575C1066.7 100.68 1069.12 98.0724 1070.76 94.7844L1068.98 93.89L1067.19 92.9956C1065.88 95.601 1063.99 97.6401 1061.49 99.145L1062.52 100.86ZM1068.98 93.89L1070.75 94.8106C1072.5 91.434 1073.36 87.6555 1073.36 83.52H1071.36H1069.36C1069.36 87.0912 1068.62 90.226 1067.2 92.9694L1068.98 93.89ZM1071.36 83.52H1073.36C1073.36 79.3885 1072.5 75.6959 1070.72 72.5128L1068.98 73.49L1067.23 74.4672C1068.62 76.9507 1069.36 79.9449 1069.36 83.52H1071.36ZM1068.98 73.49L1070.74 72.5418C1068.98 69.2712 1066.5 66.7233 1063.32 64.945L1062.35 66.69L1061.37 68.435C1063.86 69.83 1065.8 71.8154 1067.21 74.4382L1068.98 73.49ZM1062.35 66.69L1063.41 64.994C1060.32 63.0643 1056.71 62.14 1052.66 62.14V64.14V66.14C1056.08 66.14 1058.93 66.9157 1061.29 68.386L1062.35 66.69ZM1052.66 64.14V62.14C1048.7 62.14 1045.11 63.0706 1041.94 64.975L1042.97 66.69L1043.99 68.405C1046.49 66.9094 1049.35 66.14 1052.66 66.14V64.14ZM1042.97 66.69L1041.99 64.945C1038.81 66.7233 1036.34 69.2712 1034.57 72.5418L1036.34 73.49L1038.1 74.4382C1039.51 71.8154 1041.45 69.83 1043.94 68.435L1042.97 66.69ZM1036.34 73.49L1034.57 72.5418C1032.81 75.8213 1031.96 79.5562 1031.96 83.69H1033.96H1035.96C1035.96 80.1171 1036.69 77.052 1038.1 74.4382L1036.34 73.49ZM1033.96 83.69H1031.96C1031.96 87.7226 1032.81 91.4424 1034.56 94.8106L1036.34 93.89L1038.11 92.9694C1036.68 90.2176 1035.96 87.1374 1035.96 83.69H1033.96ZM1036.34 93.89L1034.57 94.8382C1036.33 98.0974 1038.79 100.687 1041.94 102.575L1042.97 100.86L1043.99 99.145C1041.47 97.6326 1039.51 95.576 1038.1 92.9418L1036.34 93.89ZM1042.97 100.86L1041.99 102.605C1045.15 104.378 1048.73 105.24 1052.66 105.24V103.24V101.24C1049.33 101.24 1046.44 100.516 1043.94 99.115L1042.97 100.86ZM1126.46 125.17L1125.95 127.102L1125.96 127.105L1126.46 125.17ZM1113.37 119.9L1112.35 121.615L1112.37 121.632L1112.4 121.648L1113.37 119.9ZM1103.17 111.74L1101.75 110.334L1100.41 111.695L1101.71 113.099L1103.17 111.74ZM1117.96 96.78L1119.43 95.4234L1118.01 93.8851L1116.54 95.3739L1117.96 96.78ZM1127.65 103.75L1126.83 105.571L1126.85 105.581L1126.87 105.591L1127.65 103.75ZM1146.86 104.77L1145.92 103.005L1145.9 103.019L1145.87 103.034L1146.86 104.77ZM1146.35 96.44L1145.34 98.1639L1145.4 98.1984L1145.46 98.2289L1146.35 96.44ZM1138.87 93.55L1138.31 95.4676L1138.34 95.4774L1138.37 95.486L1138.87 93.55ZM1119.49 86.41L1120.51 84.6894L1120.51 84.6894L1119.49 86.41ZM1112.01 78.93L1110.29 79.9414L1110.3 79.9548L1110.3 79.968L1112.01 78.93ZM1113.2 52.75L1114.84 53.9034L1114.85 53.8923L1114.85 53.8811L1113.2 52.75ZM1124.76 43.4L1123.94 41.5793L1123.94 41.5793L1124.76 43.4ZM1161.65 43.74L1160.88 45.5819L1160.9 45.5909L1160.92 45.5994L1161.65 43.74ZM1176.27 54.45L1177.7 55.8561L1178.94 54.6015L1177.85 53.2144L1176.27 54.45ZM1161.48 69.41L1159.96 70.7069L1161.37 72.3656L1162.91 70.8161L1161.48 69.41ZM1152.64 62.95L1151.91 64.8115L1151.92 64.8158L1151.94 64.82L1152.64 62.95ZM1136.66 62.44L1137.61 64.2009L1137.66 64.1736L1137.71 64.1433L1136.66 62.44ZM1144.82 72.81L1144.32 74.746L1144.32 74.746L1144.82 72.81ZM1154.51 75.7L1155.15 73.8026L1155.15 73.8026L1154.51 75.7ZM1164.2 80.29L1165.27 78.5975L1165.27 78.5975L1164.2 80.29ZM1171.68 88.11L1169.96 89.1214L1169.97 89.1348L1169.97 89.148L1171.68 88.11ZM1165.39 119.9L1164.17 118.321L1164.16 118.327L1164.15 118.333L1165.39 119.9ZM1140.91 127.04V125.04C1136.21 125.04 1131.57 124.439 1126.97 123.235L1126.46 125.17L1125.96 127.105C1130.88 128.394 1135.87 129.04 1140.91 129.04V127.04ZM1126.46 125.17L1126.98 123.238C1122.49 122.033 1118.28 120.337 1114.35 118.152L1113.37 119.9L1112.4 121.648C1116.63 123.997 1121.15 125.814 1125.95 127.102L1126.46 125.17ZM1113.37 119.9L1114.4 118.185C1110.58 115.892 1107.33 113.288 1104.64 110.381L1103.17 111.74L1101.71 113.099C1104.68 116.312 1108.23 119.148 1112.35 121.615L1113.37 119.9ZM1103.17 111.74L1104.6 113.146L1119.39 98.1861L1117.96 96.78L1116.54 95.3739L1101.75 110.334L1103.17 111.74ZM1117.96 96.78L1116.49 98.1366C1119.4 101.284 1122.85 103.763 1126.83 105.571L1127.65 103.75L1128.48 101.929C1124.98 100.337 1121.97 98.1693 1119.43 95.4234L1117.96 96.78ZM1127.65 103.75L1126.87 105.591C1130.88 107.292 1135.23 108.13 1139.89 108.13V106.13V104.13C1135.72 104.13 1131.91 103.382 1128.44 101.909L1127.65 103.75ZM1139.89 106.13V108.13C1143.09 108.13 1145.83 107.666 1147.86 106.506L1146.86 104.77L1145.87 103.034C1144.73 103.688 1142.81 104.13 1139.89 104.13V106.13ZM1146.86 104.77L1147.81 106.535C1149.99 105.369 1151.41 103.527 1151.41 101.03H1149.41H1147.41C1147.41 101.706 1147.14 102.357 1145.92 103.005L1146.86 104.77ZM1149.41 101.03H1151.41C1151.41 99.66 1151.07 98.3721 1150.31 97.2431C1149.57 96.1266 1148.51 95.2798 1147.25 94.6511L1146.35 96.44L1145.46 98.2289C1146.24 98.6202 1146.71 99.0484 1146.99 99.4619C1147.25 99.8629 1147.41 100.36 1147.41 101.03H1149.41ZM1146.35 96.44L1147.37 94.7161C1145.23 93.4587 1142.55 92.4363 1139.38 91.614L1138.87 93.55L1138.37 95.486C1141.32 96.2503 1143.62 97.1546 1145.34 98.1639L1146.35 96.44ZM1138.87 93.55L1139.44 91.6324C1136.39 90.7264 1133.16 89.7638 1129.76 88.7443L1129.18 90.66L1128.61 92.5757C1132.01 93.5962 1135.24 94.5602 1138.31 95.4676L1138.87 93.55ZM1129.18 90.66L1129.76 88.7443C1126.52 87.7711 1123.43 86.4201 1120.51 84.6894L1119.49 86.41L1118.47 88.1306C1121.67 90.0266 1125.05 91.5089 1128.61 92.5757L1129.18 90.66ZM1119.49 86.41L1120.51 84.6894C1117.75 83.0509 1115.49 80.7973 1113.72 77.892L1112.01 78.93L1110.3 79.968C1112.39 83.4093 1115.12 86.1424 1118.47 88.1306L1119.49 86.41ZM1112.01 78.93L1113.74 77.9186C1112.04 75.0194 1111.12 71.2581 1111.12 66.52H1109.12H1107.12C1107.12 71.7552 1108.14 76.2673 1110.29 79.9414L1112.01 78.93ZM1109.12 66.52H1111.12C1111.12 61.5508 1112.39 57.3765 1114.84 53.9034L1113.2 52.75L1111.57 51.5966C1108.58 55.8301 1107.12 60.8359 1107.12 66.52H1109.12ZM1113.2 52.75L1114.85 53.8811C1117.34 50.2548 1120.89 47.358 1125.59 45.2207L1124.76 43.4L1123.94 41.5793C1118.67 43.9753 1114.51 47.3119 1111.56 51.6189L1113.2 52.75ZM1124.76 43.4L1125.59 45.2207C1130.27 43.0953 1135.81 42 1142.27 42V40V38C1135.36 38 1129.23 39.1714 1123.94 41.5793L1124.76 43.4ZM1142.27 40V42C1149.06 42 1155.25 43.2027 1160.88 45.5819L1161.65 43.74L1162.43 41.8981C1156.27 39.2906 1149.54 38 1142.27 38V40ZM1161.65 43.74L1160.92 45.5994C1166.62 47.8581 1171.2 51.2226 1174.7 55.6856L1176.27 54.45L1177.85 53.2144C1173.87 48.1574 1168.7 44.3819 1162.39 41.8806L1161.65 43.74ZM1176.27 54.45L1174.85 53.0439L1160.06 68.0039L1161.48 69.41L1162.91 70.8161L1177.7 55.8561L1176.27 54.45ZM1161.48 69.41L1163.01 68.1131C1160.21 64.8338 1157 62.4624 1153.35 61.08L1152.64 62.95L1151.94 64.82C1154.86 65.931 1157.54 67.8662 1159.96 70.7069L1161.48 69.41ZM1152.64 62.95L1153.38 61.0885C1150 59.7607 1146.63 59.08 1143.29 59.08V61.08V63.08C1146.08 63.08 1148.95 63.6459 1151.91 64.8115L1152.64 62.95ZM1143.29 61.08V59.08C1140.21 59.08 1137.56 59.5432 1135.62 60.7367L1136.66 62.44L1137.71 64.1433C1138.72 63.5234 1140.49 63.08 1143.29 63.08V61.08ZM1136.66 62.44L1135.72 60.6791C1134.73 61.2093 1133.89 61.9285 1133.31 62.8748C1132.72 63.8267 1132.45 64.8957 1132.45 66.01H1134.45H1136.45C1136.45 65.5376 1136.56 65.2183 1136.71 64.9802C1136.86 64.7365 1137.12 64.4641 1137.61 64.2009L1136.66 62.44ZM1134.45 66.01H1132.45C1132.45 68.6677 1134.04 70.6058 1136.41 71.8576L1137.34 70.09L1138.28 68.3224C1136.79 67.5342 1136.45 66.7522 1136.45 66.01H1134.45ZM1137.34 70.09L1136.41 71.8576C1138.52 72.9749 1141.17 73.9294 1144.32 74.746L1144.82 72.81L1145.33 70.874C1142.36 70.1039 1140.02 69.245 1138.28 68.3224L1137.34 70.09ZM1144.82 72.81L1144.32 74.746C1147.33 75.5266 1150.52 76.4765 1153.88 77.5974L1154.51 75.7L1155.15 73.8026C1151.71 72.6568 1148.44 71.6801 1145.33 70.874L1144.82 72.81ZM1154.51 75.7L1153.88 77.5974C1157.13 78.6795 1160.21 80.1404 1163.14 81.9825L1164.2 80.29L1165.27 78.5975C1162.08 76.5862 1158.7 74.9871 1155.15 73.8026L1154.51 75.7ZM1164.2 80.29L1163.14 81.9825C1165.91 83.7291 1168.19 86.0961 1169.96 89.1214L1171.68 88.11L1173.41 87.0986C1171.33 83.5505 1168.62 80.7042 1165.27 78.5975L1164.2 80.29ZM1171.68 88.11L1169.97 89.148C1171.65 91.9065 1172.57 95.7016 1172.57 100.69H1174.57H1176.57C1176.57 95.2517 1175.57 90.6602 1173.39 87.072L1171.68 88.11ZM1174.57 100.69H1172.57C1172.57 108.147 1169.78 113.957 1164.17 118.321L1165.39 119.9L1166.62 121.479C1173.25 116.323 1176.57 109.327 1176.57 100.69H1174.57ZM1165.39 119.9L1164.15 118.333C1158.6 122.729 1150.93 125.04 1140.91 125.04V127.04V129.04C1151.52 129.04 1160.17 126.591 1166.64 121.467L1165.39 119.9Z" fill="black" mask="url(#path-1-outside-1_166_10)"/>
</svg>
