<svg width="500" height="264" viewBox="0 0 500 264" fill="none" xmlns="http://www.w3.org/2000/svg">
<mask id="path-1-outside-1_182_76" maskUnits="userSpaceOnUse" x="0" y="0" width="500" height="264" fill="black">
<rect fill="white" width="500" height="264"/>
<path d="M2.2 111V5.1H25.75V111H2.2ZM67.75 111V5.1H91.45V111H67.75ZM16.3 66.75V46.35H75.55V66.75H16.3ZM109.67 111V38.1H132.62V111H109.67ZM121.22 28.05C117.62 28.05 114.62 26.85 112.22 24.45C109.92 21.95 108.77 18.95 108.77 15.45C108.77 11.85 109.92 8.84999 112.22 6.45C114.62 4.05 117.62 2.85 121.22 2.85C124.82 2.85 127.77 4.05 130.07 6.45C132.37 8.84999 133.52 11.85 133.52 15.45C133.52 18.95 132.37 21.95 130.07 24.45C127.77 26.85 124.82 28.05 121.22 28.05ZM148.782 129L159.732 108.6L166.482 106.65C165.782 108.15 164.932 109.4 163.932 110.4C162.932 111.3 161.782 111.75 160.482 111.75C157.582 111.75 154.932 110.55 152.532 108.15C150.132 105.75 148.932 102.75 148.932 99.15C148.932 95.25 150.232 91.9 152.832 89.1C155.532 86.3 158.832 84.9 162.732 84.9C166.432 84.9 169.632 86.3 172.332 89.1C175.132 91.8 176.532 95.15 176.532 99.15C176.532 100.75 176.232 102.6 175.632 104.7C175.032 106.8 173.832 109.55 172.032 112.95L159.882 135.15L148.782 129ZM221.927 111V5.1H245.477V111H221.927ZM322.786 112.5C316.086 112.5 310.086 110.85 304.786 107.55C299.586 104.25 295.436 99.75 292.336 94.05C289.336 88.35 287.836 81.85 287.836 74.55C287.836 67.25 289.336 60.75 292.336 55.05C295.436 49.35 299.586 44.85 304.786 41.55C310.086 38.25 316.086 36.6 322.786 36.6C327.686 36.6 332.086 37.55 335.986 39.45C339.986 41.35 343.236 44 345.736 47.4C348.236 50.7 349.636 54.5 349.936 58.8V90.3C349.636 94.6 348.236 98.45 345.736 101.85C343.336 105.15 340.136 107.75 336.136 109.65C332.136 111.55 327.686 112.5 322.786 112.5ZM327.436 91.8C332.336 91.8 336.286 90.2 339.286 87C342.286 83.7 343.786 79.55 343.786 74.55C343.786 71.15 343.086 68.15 341.686 65.55C340.386 62.95 338.486 60.95 335.986 59.55C333.586 58.05 330.786 57.3 327.586 57.3C324.386 57.3 321.536 58.05 319.036 59.55C316.636 60.95 314.686 62.95 313.186 65.55C311.786 68.15 311.086 71.15 311.086 74.55C311.086 77.85 311.786 80.8 313.186 83.4C314.586 86 316.536 88.05 319.036 89.55C321.536 91.05 324.336 91.8 327.436 91.8ZM342.886 111V91.35L346.336 73.65L342.886 55.95V38.1H365.386V111H342.886ZM381.545 111V38.1H404.495V111H381.545ZM428.195 111V68.4C428.195 64.7 427.045 61.85 424.745 59.85C422.545 57.75 419.795 56.7 416.495 56.7C414.195 56.7 412.145 57.2 410.345 58.2C408.545 59.1 407.095 60.4 405.995 62.1C404.995 63.8 404.495 65.9 404.495 68.4L395.645 64.5C395.645 58.7 396.895 53.75 399.395 49.65C401.895 45.45 405.295 42.25 409.595 40.05C413.895 37.75 418.745 36.6 424.145 36.6C429.245 36.6 433.795 37.75 437.795 40.05C441.895 42.35 445.145 45.55 447.545 49.65C449.945 53.75 451.145 58.65 451.145 64.35V111H428.195ZM474.845 111V68.4C474.845 64.7 473.695 61.85 471.395 59.85C469.195 57.75 466.445 56.7 463.145 56.7C460.845 56.7 458.795 57.2 456.995 58.2C455.195 59.1 453.745 60.4 452.645 62.1C451.645 63.8 451.145 65.9 451.145 68.4L437.945 66.6C438.145 60.4 439.595 55.1 442.295 50.7C445.095 46.2 448.745 42.75 453.245 40.35C457.845 37.85 462.995 36.6 468.695 36.6C474.295 36.6 479.245 37.8 483.545 40.2C487.945 42.5 491.395 45.85 493.895 50.25C496.495 54.55 497.795 59.75 497.795 65.85V111H474.845ZM2.2 260V154.1H19L60.7 219.05H52.15L93.7 154.1H110.65V260H87.1V193.85L91.3 194.9L64.15 237.2H48.55L21.55 194.9L25.6 193.85V260H2.2ZM159.31 261.5C152.61 261.5 146.61 259.85 141.31 256.55C136.11 253.25 131.96 248.75 128.86 243.05C125.86 237.35 124.36 230.85 124.36 223.55C124.36 216.25 125.86 209.75 128.86 204.05C131.96 198.35 136.11 193.85 141.31 190.55C146.61 187.25 152.61 185.6 159.31 185.6C164.21 185.6 168.61 186.55 172.51 188.45C176.51 190.35 179.76 193 182.26 196.4C184.76 199.7 186.16 203.5 186.46 207.8V239.3C186.16 243.6 184.76 247.45 182.26 250.85C179.86 254.15 176.66 256.75 172.66 258.65C168.66 260.55 164.21 261.5 159.31 261.5ZM163.96 240.8C168.86 240.8 172.81 239.2 175.81 236C178.81 232.7 180.31 228.55 180.31 223.55C180.31 220.15 179.61 217.15 178.21 214.55C176.91 211.95 175.01 209.95 172.51 208.55C170.11 207.05 167.31 206.3 164.11 206.3C160.91 206.3 158.06 207.05 155.56 208.55C153.16 209.95 151.21 211.95 149.71 214.55C148.31 217.15 147.61 220.15 147.61 223.55C147.61 226.85 148.31 229.8 149.71 232.4C151.11 235 153.06 237.05 155.56 238.55C158.06 240.05 160.86 240.8 163.96 240.8ZM179.41 260V240.35L182.86 222.65L179.41 204.95V187.1H201.91V260H179.41ZM218.069 260V187.1H241.019V260H218.069ZM241.019 219.95L231.419 212.45C233.319 203.95 236.519 197.35 241.019 192.65C245.519 187.95 251.769 185.6 259.769 185.6C263.269 185.6 266.319 186.15 268.919 187.25C271.619 188.25 273.969 189.85 275.969 192.05L262.319 209.3C261.319 208.2 260.069 207.35 258.569 206.75C257.069 206.15 255.369 205.85 253.469 205.85C249.669 205.85 246.619 207.05 244.319 209.45C242.119 211.75 241.019 215.25 241.019 219.95ZM315.282 261.65C307.782 261.65 300.982 260 294.882 256.7C288.782 253.4 283.982 248.85 280.482 243.05C276.982 237.25 275.232 230.75 275.232 223.55C275.232 216.25 276.982 209.75 280.482 204.05C284.082 198.25 288.932 193.7 295.032 190.4C301.132 187.1 307.982 185.45 315.582 185.45C321.282 185.45 326.482 186.45 331.182 188.45C335.982 190.35 340.232 193.25 343.932 197.15L329.232 211.85C327.532 209.95 325.532 208.55 323.232 207.65C321.032 206.75 318.482 206.3 315.582 206.3C312.282 206.3 309.332 207.05 306.732 208.55C304.232 209.95 302.232 211.95 300.732 214.55C299.332 217.05 298.632 220 298.632 223.4C298.632 226.8 299.332 229.8 300.732 232.4C302.232 235 304.282 237.05 306.882 238.55C309.482 240.05 312.382 240.8 315.582 240.8C318.582 240.8 321.232 240.3 323.532 239.3C325.932 238.2 327.982 236.7 329.682 234.8L344.232 249.5C340.432 253.5 336.132 256.55 331.332 258.65C326.532 260.65 321.182 261.65 315.282 261.65ZM387.788 261.65C380.288 261.65 373.488 260 367.388 256.7C361.388 253.3 356.638 248.7 353.138 242.9C349.638 237.1 347.888 230.6 347.888 223.4C347.888 216.2 349.638 209.75 353.138 204.05C356.638 198.35 361.388 193.85 367.388 190.55C373.388 187.15 380.188 185.45 387.788 185.45C395.388 185.45 402.188 187.1 408.188 190.4C414.188 193.7 418.938 198.25 422.438 204.05C425.938 209.75 427.688 216.2 427.688 223.4C427.688 230.6 425.938 237.1 422.438 242.9C418.938 248.7 414.188 253.3 408.188 256.7C402.188 260 395.388 261.65 387.788 261.65ZM387.788 240.8C391.088 240.8 393.988 240.1 396.488 238.7C398.988 237.2 400.888 235.15 402.188 232.55C403.588 229.85 404.288 226.8 404.288 223.4C404.288 220 403.588 217.05 402.188 214.55C400.788 211.95 398.838 209.95 396.338 208.55C393.938 207.05 391.088 206.3 387.788 206.3C384.588 206.3 381.738 207.05 379.238 208.55C376.738 209.95 374.788 211.95 373.388 214.55C371.988 217.15 371.288 220.15 371.288 223.55C371.288 226.85 371.988 229.85 373.388 232.55C374.788 235.15 376.738 237.2 379.238 238.7C381.738 240.1 384.588 240.8 387.788 240.8ZM465.664 261.8C461.364 261.8 457.114 261.25 452.914 260.15C448.814 259.05 444.964 257.5 441.364 255.5C437.864 253.4 434.864 251 432.364 248.3L445.414 235.1C447.814 237.7 450.664 239.75 453.964 241.25C457.264 242.65 460.864 243.35 464.764 243.35C467.464 243.35 469.514 242.95 470.914 242.15C472.414 241.35 473.164 240.25 473.164 238.85C473.164 237.05 472.264 235.7 470.464 234.8C468.764 233.8 466.564 232.95 463.864 232.25C461.164 231.45 458.314 230.6 455.314 229.7C452.314 228.8 449.464 227.55 446.764 225.95C444.064 224.35 441.864 222.15 440.164 219.35C438.464 216.45 437.614 212.8 437.614 208.4C437.614 203.7 438.814 199.65 441.214 196.25C443.614 192.75 447.014 190 451.414 188C455.814 186 460.964 185 466.864 185C473.064 185 478.764 186.1 483.964 188.3C489.264 190.4 493.564 193.55 496.864 197.75L483.814 210.95C481.514 208.25 478.914 206.35 476.014 205.25C473.214 204.15 470.464 203.6 467.764 203.6C465.164 203.6 463.214 204 461.914 204.8C460.614 205.5 459.964 206.55 459.964 207.95C459.964 209.45 460.814 210.65 462.514 211.55C464.214 212.45 466.414 213.25 469.114 213.95C471.814 214.65 474.664 215.5 477.664 216.5C480.664 217.5 483.514 218.85 486.214 220.55C488.914 222.25 491.114 224.55 492.814 227.45C494.514 230.25 495.364 233.95 495.364 238.55C495.364 245.65 492.664 251.3 487.264 255.5C481.964 259.7 474.764 261.8 465.664 261.8Z"/>
</mask>
<path d="M2.2 111H0.200001V113H2.2V111ZM2.2 5.1V3.1H0.200001V5.1H2.2ZM25.75 5.1H27.75V3.1H25.75V5.1ZM25.75 111V113H27.75V111H25.75ZM67.75 111H65.75V113H67.75V111ZM67.75 5.1V3.1H65.75V5.1H67.75ZM91.45 5.1H93.45V3.1H91.45V5.1ZM91.45 111V113H93.45V111H91.45ZM16.3 66.75H14.3V68.75H16.3V66.75ZM16.3 46.35V44.35H14.3V46.35H16.3ZM75.55 46.35H77.55V44.35H75.55V46.35ZM75.55 66.75V68.75H77.55V66.75H75.55ZM2.2 111H4.2V5.1H2.2H0.200001V111H2.2ZM2.2 5.1V7.1H25.75V5.1V3.1H2.2V5.1ZM25.75 5.1H23.75V111H25.75H27.75V5.1H25.75ZM25.75 111V109H2.2V111V113H25.75V111ZM67.75 111H69.75V5.1H67.75H65.75V111H67.75ZM67.75 5.1V7.1H91.45V5.1V3.1H67.75V5.1ZM91.45 5.1H89.45V111H91.45H93.45V5.1H91.45ZM91.45 111V109H67.75V111V113H91.45V111ZM16.3 66.75H18.3V46.35H16.3H14.3V66.75H16.3ZM16.3 46.35V48.35H75.55V46.35V44.35H16.3V46.35ZM75.55 46.35H73.55V66.75H75.55H77.55V46.35H75.55ZM75.55 66.75V64.75H16.3V66.75V68.75H75.55V66.75ZM109.67 111H107.67V113H109.67V111ZM109.67 38.1V36.1H107.67V38.1H109.67ZM132.62 38.1H134.62V36.1H132.62V38.1ZM132.62 111V113H134.62V111H132.62ZM112.22 24.45L110.748 25.8041L110.777 25.8348L110.806 25.8642L112.22 24.45ZM112.22 6.45L110.806 5.03578L110.791 5.05083L110.776 5.06618L112.22 6.45ZM130.07 24.45L131.514 25.8338L131.528 25.8191L131.542 25.8041L130.07 24.45ZM109.67 111H111.67V38.1H109.67H107.67V111H109.67ZM109.67 38.1V40.1H132.62V38.1V36.1H109.67V38.1ZM132.62 38.1H130.62V111H132.62H134.62V38.1H132.62ZM132.62 111V109H109.67V111V113H132.62V111ZM121.22 28.05V26.05C118.115 26.05 115.635 25.0362 113.635 23.0358L112.22 24.45L110.806 25.8642C113.606 28.6638 117.126 30.05 121.22 30.05V28.05ZM112.22 24.45L113.692 23.0959C111.743 20.9772 110.77 18.4651 110.77 15.45H108.77H106.77C106.77 19.4348 108.098 22.9228 110.748 25.8041L112.22 24.45ZM108.77 15.45H110.77C110.77 12.3188 111.752 9.82892 113.664 7.83381L112.22 6.45L110.776 5.06618C108.088 7.87106 106.77 11.3812 106.77 15.45H108.77ZM112.22 6.45L113.635 7.86421C115.635 5.8638 118.115 4.85 121.22 4.85V2.85V0.849998C117.126 0.849998 113.606 2.23619 110.806 5.03578L112.22 6.45ZM121.22 2.85V4.85C124.325 4.85 126.737 5.8623 128.626 7.83381L130.07 6.45L131.514 5.06618C128.804 2.23769 125.315 0.849998 121.22 0.849998V2.85ZM130.07 6.45L128.626 7.83381C130.538 9.82892 131.52 12.3188 131.52 15.45H133.52H135.52C135.52 11.3812 134.202 7.87106 131.514 5.06618L130.07 6.45ZM133.52 15.45H131.52C131.52 18.4651 130.548 20.9772 128.598 23.0959L130.07 24.45L131.542 25.8041C134.193 22.9228 135.52 19.4348 135.52 15.45H133.52ZM130.07 24.45L128.626 23.0662C126.737 25.0377 124.325 26.05 121.22 26.05V28.05V30.05C125.315 30.05 128.804 28.6623 131.514 25.8338L130.07 24.45ZM148.782 129L147.019 128.054L146.086 129.793L147.812 130.749L148.782 129ZM159.732 108.6L159.177 106.679L158.368 106.912L157.969 107.654L159.732 108.6ZM166.482 106.65L168.294 107.496L170.155 103.507L165.927 104.729L166.482 106.65ZM163.932 110.4L165.27 111.887L165.309 111.851L165.346 111.814L163.932 110.4ZM152.532 108.15L151.117 109.564L151.117 109.564L152.532 108.15ZM152.832 89.1L151.392 87.7117L151.379 87.7253L151.366 87.7391L152.832 89.1ZM172.332 89.1L170.892 90.4883L170.917 90.5144L170.943 90.5397L172.332 89.1ZM175.632 104.7L173.709 104.151L173.709 104.151L175.632 104.7ZM172.032 112.95L173.786 113.91L173.793 113.898L173.799 113.886L172.032 112.95ZM159.882 135.15L158.912 136.899L160.671 137.874L161.636 136.11L159.882 135.15ZM148.782 129L150.544 129.946L161.494 109.546L159.732 108.6L157.969 107.654L147.019 128.054L148.782 129ZM159.732 108.6L160.287 110.521L167.037 108.571L166.482 106.65L165.927 104.729L159.177 106.679L159.732 108.6ZM166.482 106.65L164.669 105.804C164.051 107.128 163.327 108.176 162.517 108.986L163.932 110.4L165.346 111.814C166.536 110.624 167.512 109.172 168.294 107.496L166.482 106.65ZM163.932 110.4L162.594 108.913C161.947 109.496 161.269 109.75 160.482 109.75V111.75V113.75C162.294 113.75 163.916 113.104 165.27 111.887L163.932 110.4ZM160.482 111.75V109.75C158.202 109.75 156.04 108.83 153.946 106.736L152.532 108.15L151.117 109.564C153.824 112.27 156.961 113.75 160.482 113.75V111.75ZM152.532 108.15L153.946 106.736C151.945 104.735 150.932 102.255 150.932 99.15H148.932H146.932C146.932 103.245 148.318 106.765 151.117 109.564L152.532 108.15ZM148.932 99.15H150.932C150.932 95.7433 152.049 92.8826 154.297 90.4609L152.832 89.1L151.366 87.7391C148.415 90.9174 146.932 94.7567 146.932 99.15H148.932ZM152.832 89.1L154.271 90.4883C156.593 88.0803 159.373 86.9 162.732 86.9V84.9V82.9C158.29 82.9 154.47 84.5197 151.392 87.7117L152.832 89.1ZM162.732 84.9V86.9C165.858 86.9 168.547 88.0567 170.892 90.4883L172.332 89.1L173.771 87.7117C170.716 84.5432 167.005 82.9 162.732 82.9V84.9ZM172.332 89.1L170.943 90.5397C173.34 92.8509 174.532 95.6757 174.532 99.15H176.532H178.532C178.532 94.6243 176.923 90.7491 173.72 87.6603L172.332 89.1ZM176.532 99.15H174.532C174.532 100.51 174.275 102.169 173.709 104.151L175.632 104.7L177.555 105.249C178.189 103.031 178.532 100.99 178.532 99.15H176.532ZM175.632 104.7L173.709 104.151C173.165 106.053 172.04 108.659 170.264 112.014L172.032 112.95L173.799 113.886C175.623 110.441 176.898 107.547 177.555 105.249L175.632 104.7ZM172.032 112.95L170.277 111.99L158.127 134.19L159.882 135.15L161.636 136.11L173.786 113.91L172.032 112.95ZM159.882 135.15L160.851 133.401L149.751 127.251L148.782 129L147.812 130.749L158.912 136.899L159.882 135.15ZM221.927 111H219.927V113H221.927V111ZM221.927 5.1V3.1H219.927V5.1H221.927ZM245.477 5.1H247.477V3.1H245.477V5.1ZM245.477 111V113H247.477V111H245.477ZM221.927 111H223.927V5.1H221.927H219.927V111H221.927ZM221.927 5.1V7.1H245.477V5.1V3.1H221.927V5.1ZM245.477 5.1H243.477V111H245.477H247.477V5.1H245.477ZM245.477 111V109H221.927V111V113H245.477V111ZM304.786 107.55L303.715 109.239L303.722 109.243L303.729 109.248L304.786 107.55ZM292.336 94.05L290.566 94.9815L290.573 94.9936L290.579 95.0055L292.336 94.05ZM292.336 55.05L290.579 54.0945L290.573 54.1064L290.566 54.1185L292.336 55.05ZM304.786 41.55L303.729 39.8522L303.722 39.8567L303.715 39.8613L304.786 41.55ZM335.986 39.45L335.11 41.248L335.119 41.2523L335.128 41.2566L335.986 39.45ZM345.736 47.4L344.125 48.5848L344.134 48.5963L344.142 48.6077L345.736 47.4ZM349.936 58.8H351.936V58.7303L351.931 58.6608L349.936 58.8ZM349.936 90.3L351.931 90.4392L351.936 90.3697V90.3H349.936ZM345.736 101.85L344.125 100.665L344.119 100.674L345.736 101.85ZM336.136 109.65L335.278 107.843L336.136 109.65ZM339.286 87L340.745 88.3679L340.756 88.3567L340.766 88.3453L339.286 87ZM341.686 65.55L339.897 66.4444L339.911 66.4715L339.925 66.4982L341.686 65.55ZM335.986 59.55L334.926 61.246L334.967 61.2715L335.009 61.295L335.986 59.55ZM319.036 59.55L320.044 61.2776L320.055 61.2713L320.065 61.265L319.036 59.55ZM313.186 65.55L311.454 64.5506L311.439 64.576L311.425 64.6018L313.186 65.55ZM313.186 83.4L311.425 84.3482L311.425 84.3482L313.186 83.4ZM342.886 111H340.886V113H342.886V111ZM342.886 91.35L340.923 90.9674L340.886 91.1569V91.35H342.886ZM346.336 73.65L348.299 74.0326L348.374 73.65L348.299 73.2674L346.336 73.65ZM342.886 55.95H340.886V56.1431L340.923 56.3326L342.886 55.95ZM342.886 38.1V36.1H340.886V38.1H342.886ZM365.386 38.1H367.386V36.1H365.386V38.1ZM365.386 111V113H367.386V111H365.386ZM322.786 112.5V110.5C316.432 110.5 310.803 108.94 305.843 105.852L304.786 107.55L303.729 109.248C309.37 112.76 315.741 114.5 322.786 114.5V112.5ZM304.786 107.55L305.858 105.861C300.961 102.753 297.04 98.5124 294.093 93.0945L292.336 94.05L290.579 95.0055C293.833 100.988 298.212 105.747 303.715 109.239L304.786 107.55ZM292.336 94.05L294.106 93.1185C291.276 87.7421 289.836 81.5692 289.836 74.55H287.836H285.836C285.836 82.1308 287.396 88.9579 290.566 94.9815L292.336 94.05ZM287.836 74.55H289.836C289.836 67.5308 291.276 61.3579 294.106 55.9815L292.336 55.05L290.566 54.1185C287.396 60.1421 285.836 66.9692 285.836 74.55H287.836ZM292.336 55.05L294.093 56.0055C297.04 50.5876 300.961 46.3467 305.858 43.2387L304.786 41.55L303.715 39.8613C298.212 43.3533 293.833 48.1124 290.579 54.0945L292.336 55.05ZM304.786 41.55L305.843 43.2478C310.803 40.1598 316.432 38.6 322.786 38.6V36.6V34.6C315.741 34.6 309.37 36.3402 303.729 39.8522L304.786 41.55ZM322.786 36.6V38.6C327.422 38.6 331.517 39.4972 335.11 41.248L335.986 39.45L336.862 37.652C332.656 35.6028 327.95 34.6 322.786 34.6V36.6ZM335.986 39.45L335.128 41.2566C338.845 43.022 341.831 45.4644 344.125 48.5848L345.736 47.4L347.348 46.2152C344.642 42.5356 341.128 39.678 336.844 37.6434L335.986 39.45ZM345.736 47.4L344.142 48.6077C346.398 51.5849 347.667 55.0099 347.941 58.9392L349.936 58.8L351.931 58.6608C351.606 53.9901 350.075 49.8151 347.331 46.1923L345.736 47.4ZM349.936 58.8H347.936V90.3H349.936H351.936V58.8H349.936ZM349.936 90.3L347.941 90.1608C347.667 94.0915 346.396 97.5772 344.125 100.665L345.736 101.85L347.348 103.035C350.077 99.3228 351.606 95.1085 351.931 90.4392L349.936 90.3ZM345.736 101.85L344.119 100.674C341.932 103.681 339.003 106.074 335.278 107.843L336.136 109.65L336.994 111.457C341.27 109.426 344.741 106.619 347.354 103.026L345.736 101.85ZM336.136 109.65L335.278 107.843C331.574 109.603 327.421 110.5 322.786 110.5V112.5V114.5C327.951 114.5 332.699 113.497 336.994 111.457L336.136 109.65ZM327.436 91.8V93.8C332.818 93.8 337.321 92.0206 340.745 88.3679L339.286 87L337.827 85.6321C335.252 88.3794 331.855 89.8 327.436 89.8V91.8ZM339.286 87L340.766 88.3453C344.142 84.6318 345.786 79.9826 345.786 74.55H343.786H341.786C341.786 79.1174 340.431 82.7682 337.806 85.6547L339.286 87ZM343.786 74.55H345.786C345.786 70.8695 345.027 67.5347 343.447 64.6018L341.686 65.55L339.925 66.4982C341.146 68.7653 341.786 71.4305 341.786 74.55H343.786ZM341.686 65.55L343.475 64.6556C341.999 61.7027 339.819 59.4038 336.964 57.805L335.986 59.55L335.009 61.295C337.154 62.4962 338.774 64.1973 339.897 66.4444L341.686 65.55ZM335.986 59.55L337.046 57.854C334.288 56.1303 331.111 55.3 327.586 55.3V57.3V59.3C330.462 59.3 332.884 59.9697 334.926 61.246L335.986 59.55ZM327.586 57.3V55.3C324.06 55.3 320.848 56.1306 318.007 57.835L319.036 59.55L320.065 61.265C322.225 59.9694 324.712 59.3 327.586 59.3V57.3ZM319.036 59.55L318.029 57.8224C315.304 59.4119 313.114 61.6739 311.454 64.5506L313.186 65.55L314.919 66.5494C316.259 64.2261 317.969 62.4881 320.044 61.2776L319.036 59.55ZM313.186 65.55L311.425 64.6018C309.846 67.5347 309.086 70.8695 309.086 74.55H311.086H313.086C313.086 71.4305 313.727 68.7653 314.947 66.4982L313.186 65.55ZM311.086 74.55H309.086C309.086 78.1414 309.851 81.4238 311.425 84.3482L313.186 83.4L314.947 82.4518C313.722 80.1762 313.086 77.5586 313.086 74.55H311.086ZM313.186 83.4L311.425 84.3482C312.994 87.2607 315.195 89.5774 318.007 91.265L319.036 89.55L320.065 87.835C317.878 86.5226 316.179 84.7393 314.947 82.4518L313.186 83.4ZM319.036 89.55L318.007 91.265C320.838 92.9634 323.998 93.8 327.436 93.8V91.8V89.8C324.675 89.8 322.235 89.1366 320.065 87.835L319.036 89.55ZM342.886 111H344.886V91.35H342.886H340.886V111H342.886ZM342.886 91.35L344.849 91.7326L348.299 74.0326L346.336 73.65L344.373 73.2674L340.923 90.9674L342.886 91.35ZM346.336 73.65L348.299 73.2674L344.849 55.5674L342.886 55.95L340.923 56.3326L344.373 74.0326L346.336 73.65ZM342.886 55.95H344.886V38.1H342.886H340.886V55.95H342.886ZM342.886 38.1V40.1H365.386V38.1V36.1H342.886V38.1ZM365.386 38.1H363.386V111H365.386H367.386V38.1H365.386ZM365.386 111V109H342.886V111V113H365.386V111ZM381.545 111H379.545V113H381.545V111ZM381.545 38.1V36.1H379.545V38.1H381.545ZM404.495 38.1H406.495V36.1H404.495V38.1ZM404.495 111V113H406.495V111H404.495ZM428.195 111H426.195V113H428.195V111ZM424.745 59.85L423.364 61.2967L423.398 61.3288L423.433 61.3592L424.745 59.85ZM410.345 58.2L411.24 59.9888L411.279 59.9694L411.317 59.9483L410.345 58.2ZM405.995 62.1L404.316 61.0135L404.293 61.0493L404.271 61.086L405.995 62.1ZM404.495 68.4L403.689 70.2302L406.495 71.4669V68.4H404.495ZM395.645 64.5H393.645V65.8042L394.839 66.3302L395.645 64.5ZM399.395 49.65L401.103 50.6912L401.108 50.6821L401.114 50.673L399.395 49.65ZM409.595 40.05L410.506 41.8305L410.523 41.8222L410.539 41.8136L409.595 40.05ZM437.795 40.05L436.798 41.7838L436.808 41.7891L436.817 41.7943L437.795 40.05ZM447.545 49.65L445.819 50.6604L445.819 50.6604L447.545 49.65ZM451.145 111V113H453.145V111H451.145ZM474.845 111H472.845V113H474.845V111ZM471.395 59.85L470.014 61.2967L470.048 61.3288L470.083 61.3592L471.395 59.85ZM456.995 58.2L457.89 59.9889L457.929 59.9694L457.967 59.9483L456.995 58.2ZM452.645 62.1L450.966 61.0135L450.943 61.0493L450.921 61.086L452.645 62.1ZM451.145 68.4L450.875 70.3817L453.145 70.6912V68.4H451.145ZM437.945 66.6L435.946 66.5355L435.888 68.338L437.675 68.5817L437.945 66.6ZM442.295 50.7L440.597 49.6434L440.591 49.654L442.295 50.7ZM453.245 40.35L454.186 42.1147L454.193 42.111L454.2 42.1072L453.245 40.35ZM483.545 40.2L482.571 41.9464L482.595 41.9597L482.619 41.9724L483.545 40.2ZM493.895 50.25L492.156 51.238L492.17 51.2616L492.184 51.2848L493.895 50.25ZM497.795 111V113H499.795V111H497.795ZM381.545 111H383.545V38.1H381.545H379.545V111H381.545ZM381.545 38.1V40.1H404.495V38.1V36.1H381.545V38.1ZM404.495 38.1H402.495V111H404.495H406.495V38.1H404.495ZM404.495 111V109H381.545V111V113H404.495V111ZM428.195 111H430.195V68.4H428.195H426.195V111H428.195ZM428.195 68.4H430.195C430.195 64.2562 428.887 60.8011 426.058 58.3408L424.745 59.85L423.433 61.3592C425.204 62.8989 426.195 65.1438 426.195 68.4H428.195ZM424.745 59.85L426.126 58.4033C423.521 55.9164 420.262 54.7 416.495 54.7V56.7V58.7C419.329 58.7 421.57 59.5836 423.364 61.2967L424.745 59.85ZM416.495 56.7V54.7C413.896 54.7 411.505 55.268 409.374 56.4517L410.345 58.2L411.317 59.9483C412.786 59.132 414.495 58.7 416.495 58.7V56.7ZM410.345 58.2L409.451 56.4111C407.329 57.472 405.609 59.0154 404.316 61.0135L405.995 62.1L407.674 63.1865C408.582 61.7846 409.761 60.728 411.24 59.9888L410.345 58.2ZM405.995 62.1L404.271 61.086C403.048 63.1653 402.495 65.6374 402.495 68.4H404.495H406.495C406.495 66.1626 406.942 64.4347 407.719 63.114L405.995 62.1ZM404.495 68.4L405.302 66.5698L396.452 62.6698L395.645 64.5L394.839 66.3302L403.689 70.2302L404.495 68.4ZM395.645 64.5H397.645C397.645 58.9907 398.83 54.418 401.103 50.6912L399.395 49.65L397.688 48.6088C394.96 53.082 393.645 58.4093 393.645 64.5H395.645ZM399.395 49.65L401.114 50.673C403.424 46.7924 406.546 43.8569 410.506 41.8305L409.595 40.05L408.684 38.2695C404.045 40.6431 400.367 44.1076 397.677 48.627L399.395 49.65ZM409.595 40.05L410.539 41.8136C414.518 39.6849 419.038 38.6 424.145 38.6V36.6V34.6C418.452 34.6 413.272 35.8151 408.652 38.2864L409.595 40.05ZM424.145 36.6V38.6C428.933 38.6 433.133 39.6761 436.798 41.7838L437.795 40.05L438.792 38.3162C434.458 35.8239 429.557 34.6 424.145 34.6V36.6ZM437.795 40.05L436.817 41.7943C440.603 43.9185 443.597 46.8637 445.819 50.6604L447.545 49.65L449.271 48.6396C446.694 44.2363 443.187 40.7815 438.774 38.3057L437.795 40.05ZM447.545 49.65L445.819 50.6604C448.007 54.3978 449.145 58.934 449.145 64.35H451.145H453.145C453.145 58.366 451.884 53.1022 449.271 48.6396L447.545 49.65ZM451.145 64.35H449.145V111H451.145H453.145V64.35H451.145ZM451.145 111V109H428.195V111V113H451.145V111ZM474.845 111H476.845V68.4H474.845H472.845V111H474.845ZM474.845 68.4H476.845C476.845 64.2562 475.537 60.8011 472.708 58.3408L471.395 59.85L470.083 61.3592C471.854 62.8989 472.845 65.1438 472.845 68.4H474.845ZM471.395 59.85L472.776 58.4033C470.171 55.9164 466.912 54.7 463.145 54.7V56.7V58.7C465.979 58.7 468.22 59.5836 470.014 61.2967L471.395 59.85ZM463.145 56.7V54.7C460.546 54.7 458.155 55.268 456.024 56.4517L456.995 58.2L457.967 59.9483C459.436 59.132 461.145 58.7 463.145 58.7V56.7ZM456.995 58.2L456.101 56.4111C453.979 57.472 452.259 59.0154 450.966 61.0135L452.645 62.1L454.324 63.1865C455.232 61.7846 456.411 60.728 457.89 59.9889L456.995 58.2ZM452.645 62.1L450.921 61.086C449.698 63.1653 449.145 65.6374 449.145 68.4H451.145H453.145C453.145 66.1626 453.592 64.4347 454.369 63.114L452.645 62.1ZM451.145 68.4L451.416 66.4183L438.216 64.6183L437.945 66.6L437.675 68.5817L450.875 70.3817L451.145 68.4ZM437.945 66.6L439.944 66.6645C440.135 60.7417 441.515 55.7955 444 51.746L442.295 50.7L440.591 49.654C437.676 54.4045 436.155 60.0583 435.946 66.5355L437.945 66.6ZM442.295 50.7L443.993 51.7566C446.615 47.5428 450.009 44.3426 454.186 42.1147L453.245 40.35L452.304 38.5853C447.482 41.1573 443.575 44.8572 440.597 49.6434L442.295 50.7ZM453.245 40.35L454.2 42.1072C458.482 39.7804 463.299 38.6 468.695 38.6V36.6V34.6C462.692 34.6 457.209 35.9196 452.29 38.5927L453.245 40.35ZM468.695 36.6V38.6C474.002 38.6 478.607 39.7344 482.571 41.9464L483.545 40.2L484.52 38.4536C479.883 35.8656 474.589 34.6 468.695 34.6V36.6ZM483.545 40.2L482.619 41.9724C486.671 44.0908 489.842 47.1653 492.156 51.238L493.895 50.25L495.634 49.262C492.948 44.5347 489.219 40.9092 484.472 38.4275L483.545 40.2ZM493.895 50.25L492.184 51.2848C494.558 55.2119 495.795 60.0366 495.795 65.85H497.795H499.795C499.795 59.4634 498.432 53.8881 495.607 49.2152L493.895 50.25ZM497.795 65.85H495.795V111H497.795H499.795V65.85H497.795ZM497.795 111V109H474.845V111V113H497.795V111ZM2.2 260H0.200001V262H2.2V260ZM2.2 154.1V152.1H0.200001V154.1H2.2ZM19 154.1L20.683 153.019L20.0927 152.1H19V154.1ZM60.7 219.05V221.05H64.3608L62.383 217.969L60.7 219.05ZM52.15 219.05L50.4652 217.972L48.4963 221.05H52.15V219.05ZM93.7 154.1V152.1H92.6052L92.0153 153.022L93.7 154.1ZM110.65 154.1H112.65V152.1H110.65V154.1ZM110.65 260V262H112.65V260H110.65ZM87.1 260H85.1V262H87.1V260ZM87.1 193.85L87.5851 191.91L85.1 191.288V193.85H87.1ZM91.3 194.9L92.9831 195.98L94.4882 193.635L91.7851 192.96L91.3 194.9ZM64.15 237.2V239.2H65.2428L65.8331 238.28L64.15 237.2ZM48.55 237.2L46.8642 238.276L47.4539 239.2H48.55V237.2ZM21.55 194.9L21.0481 192.964L18.3827 193.655L19.8642 195.976L21.55 194.9ZM25.6 193.85H27.6V191.265L25.0981 191.914L25.6 193.85ZM25.6 260V262H27.6V260H25.6ZM2.2 260H4.2V154.1H2.2H0.200001V260H2.2ZM2.2 154.1V156.1H19V154.1V152.1H2.2V154.1ZM19 154.1L17.317 155.181L59.017 220.131L60.7 219.05L62.383 217.969L20.683 153.019L19 154.1ZM60.7 219.05V217.05H52.15V219.05V221.05H60.7V219.05ZM52.15 219.05L53.8348 220.128L95.3848 155.178L93.7 154.1L92.0153 153.022L50.4652 217.972L52.15 219.05ZM93.7 154.1V156.1H110.65V154.1V152.1H93.7V154.1ZM110.65 154.1H108.65V260H110.65H112.65V154.1H110.65ZM110.65 260V258H87.1V260V262H110.65V260ZM87.1 260H89.1V193.85H87.1H85.1V260H87.1ZM87.1 193.85L86.6149 195.79L90.8149 196.84L91.3 194.9L91.7851 192.96L87.5851 191.91L87.1 193.85ZM91.3 194.9L89.6169 193.82L62.4669 236.12L64.15 237.2L65.8331 238.28L92.9831 195.98L91.3 194.9ZM64.15 237.2V235.2H48.55V237.2V239.2H64.15V237.2ZM48.55 237.2L50.2358 236.124L23.2358 193.824L21.55 194.9L19.8642 195.976L46.8642 238.276L48.55 237.2ZM21.55 194.9L22.0519 196.836L26.1019 195.786L25.6 193.85L25.0981 191.914L21.0481 192.964L21.55 194.9ZM25.6 193.85H23.6V260H25.6H27.6V193.85H25.6ZM25.6 260V258H2.2V260V262H25.6V260ZM141.31 256.55L140.238 258.239L140.245 258.243L140.253 258.248L141.31 256.55ZM128.86 243.05L127.09 243.981L127.096 243.994L127.103 244.006L128.86 243.05ZM128.86 204.05L127.103 203.094L127.096 203.106L127.09 203.119L128.86 204.05ZM141.31 190.55L140.253 188.852L140.245 188.857L140.238 188.861L141.31 190.55ZM172.51 188.45L171.634 190.248L171.643 190.252L171.652 190.257L172.51 188.45ZM182.26 196.4L180.648 197.585L180.657 197.596L180.666 197.608L182.26 196.4ZM186.46 207.8H188.46V207.73L188.455 207.661L186.46 207.8ZM186.46 239.3L188.455 239.439L188.46 239.37V239.3H186.46ZM182.26 250.85L180.648 249.665L180.642 249.674L182.26 250.85ZM172.66 258.65L171.802 256.843L172.66 258.65ZM175.81 236L177.269 237.368L177.279 237.357L177.29 237.345L175.81 236ZM178.21 214.55L176.421 215.444L176.434 215.472L176.449 215.498L178.21 214.55ZM172.51 208.55L171.45 210.246L171.491 210.271L171.533 210.295L172.51 208.55ZM155.56 208.55L156.568 210.278L156.578 210.271L156.589 210.265L155.56 208.55ZM149.71 214.55L147.977 213.551L147.963 213.576L147.949 213.602L149.71 214.55ZM149.71 232.4L147.949 233.348L147.949 233.348L149.71 232.4ZM179.41 260H177.41V262H179.41V260ZM179.41 240.35L177.447 239.967L177.41 240.157V240.35H179.41ZM182.86 222.65L184.823 223.033L184.897 222.65L184.823 222.267L182.86 222.65ZM179.41 204.95H177.41V205.143L177.447 205.333L179.41 204.95ZM179.41 187.1V185.1H177.41V187.1H179.41ZM201.91 187.1H203.91V185.1H201.91V187.1ZM201.91 260V262H203.91V260H201.91ZM159.31 261.5V259.5C152.955 259.5 147.326 257.94 142.367 254.852L141.31 256.55L140.253 258.248C145.893 261.76 152.265 263.5 159.31 263.5V261.5ZM141.31 256.55L142.381 254.861C137.484 251.753 133.563 247.512 130.617 242.094L128.86 243.05L127.103 244.006C130.356 249.988 134.736 254.747 140.238 258.239L141.31 256.55ZM128.86 243.05L130.63 242.119C127.8 236.742 126.36 230.569 126.36 223.55H124.36H122.36C122.36 231.131 123.92 237.958 127.09 243.981L128.86 243.05ZM124.36 223.55H126.36C126.36 216.531 127.8 210.358 130.63 204.981L128.86 204.05L127.09 203.119C123.92 209.142 122.36 215.969 122.36 223.55H124.36ZM128.86 204.05L130.617 205.006C133.563 199.588 137.484 195.347 142.381 192.239L141.31 190.55L140.238 188.861C134.736 192.353 130.356 197.112 127.103 203.094L128.86 204.05ZM141.31 190.55L142.367 192.248C147.326 189.16 152.955 187.6 159.31 187.6V185.6V183.6C152.265 183.6 145.893 185.34 140.253 188.852L141.31 190.55ZM159.31 185.6V187.6C163.946 187.6 168.04 188.497 171.634 190.248L172.51 188.45L173.386 186.652C169.179 184.603 164.474 183.6 159.31 183.6V185.6ZM172.51 188.45L171.652 190.257C175.368 192.022 178.354 194.464 180.648 197.585L182.26 196.4L183.871 195.215C181.165 191.536 177.651 188.678 173.368 186.643L172.51 188.45ZM182.26 196.4L180.666 197.608C182.921 200.585 184.19 204.01 184.465 207.939L186.46 207.8L188.455 207.661C188.129 202.99 186.599 198.815 183.854 195.192L182.26 196.4ZM186.46 207.8H184.46V239.3H186.46H188.46V207.8H186.46ZM186.46 239.3L184.465 239.161C184.19 243.092 182.919 246.577 180.648 249.665L182.26 250.85L183.871 252.035C186.6 248.323 188.129 244.108 188.455 239.439L186.46 239.3ZM182.26 250.85L180.642 249.674C178.455 252.681 175.526 255.074 171.802 256.843L172.66 258.65L173.518 260.457C177.793 258.426 181.264 255.619 183.877 252.026L182.26 250.85ZM172.66 258.65L171.802 256.843C168.097 258.603 163.945 259.5 159.31 259.5V261.5V263.5C164.475 263.5 169.222 262.497 173.518 260.457L172.66 258.65ZM163.96 240.8V242.8C169.341 242.8 173.844 241.021 177.269 237.368L175.81 236L174.351 234.632C171.775 237.379 168.378 238.8 163.96 238.8V240.8ZM175.81 236L177.29 237.345C180.666 233.632 182.31 228.983 182.31 223.55H180.31H178.31C178.31 228.117 176.954 231.768 174.33 234.655L175.81 236ZM180.31 223.55H182.31C182.31 219.87 181.55 216.535 179.971 213.602L178.21 214.55L176.449 215.498C177.67 217.765 178.31 220.43 178.31 223.55H180.31ZM178.21 214.55L179.999 213.656C178.522 210.703 176.342 208.404 173.487 206.805L172.51 208.55L171.533 210.295C173.678 211.496 175.297 213.197 176.421 215.444L178.21 214.55ZM172.51 208.55L173.57 206.854C170.812 205.13 167.634 204.3 164.11 204.3V206.3V208.3C166.985 208.3 169.408 208.97 171.45 210.246L172.51 208.55ZM164.11 206.3V204.3C160.584 204.3 157.371 205.131 154.531 206.835L155.56 208.55L156.589 210.265C158.748 208.969 161.236 208.3 164.11 208.3V206.3ZM155.56 208.55L154.552 206.822C151.827 208.412 149.637 210.674 147.977 213.551L149.71 214.55L151.442 215.549C152.783 213.226 154.492 211.488 156.568 210.278L155.56 208.55ZM149.71 214.55L147.949 213.602C146.37 216.535 145.61 219.87 145.61 223.55H147.61H149.61C149.61 220.43 150.25 217.765 151.471 215.498L149.71 214.55ZM147.61 223.55H145.61C145.61 227.141 146.374 230.424 147.949 233.348L149.71 232.4L151.471 231.452C150.245 229.176 149.61 226.559 149.61 223.55H147.61ZM149.71 232.4L147.949 233.348C149.517 236.261 151.718 238.577 154.531 240.265L155.56 238.55L156.589 236.835C154.401 235.523 152.702 233.739 151.471 231.452L149.71 232.4ZM155.56 238.55L154.531 240.265C157.361 241.963 160.521 242.8 163.96 242.8V240.8V238.8C161.198 238.8 158.758 238.137 156.589 236.835L155.56 238.55ZM179.41 260H181.41V240.35H179.41H177.41V260H179.41ZM179.41 240.35L181.373 240.733L184.823 223.033L182.86 222.65L180.897 222.267L177.447 239.967L179.41 240.35ZM182.86 222.65L184.823 222.267L181.373 204.567L179.41 204.95L177.447 205.333L180.897 223.033L182.86 222.65ZM179.41 204.95H181.41V187.1H179.41H177.41V204.95H179.41ZM179.41 187.1V189.1H201.91V187.1V185.1H179.41V187.1ZM201.91 187.1H199.91V260H201.91H203.91V187.1H201.91ZM201.91 260V258H179.41V260V262H201.91V260ZM218.069 260H216.069V262H218.069V260ZM218.069 187.1V185.1H216.069V187.1H218.069ZM241.019 187.1H243.019V185.1H241.019V187.1ZM241.019 260V262H243.019V260H241.019ZM241.019 219.95L239.787 221.526L243.019 224.05V219.95H241.019ZM231.419 212.45L229.467 212.014L229.191 213.248L230.187 214.026L231.419 212.45ZM241.019 192.65L242.463 194.033L241.019 192.65ZM268.919 187.25L268.139 189.092L268.181 189.11L268.224 189.125L268.919 187.25ZM275.969 192.05L277.537 193.291L278.59 191.96L277.449 190.705L275.969 192.05ZM262.319 209.3L260.839 210.645L262.424 212.389L263.887 210.541L262.319 209.3ZM258.569 206.75L257.826 208.607L257.826 208.607L258.569 206.75ZM244.319 209.45L242.875 208.066L242.873 208.068L244.319 209.45ZM218.069 260H220.069V187.1H218.069H216.069V260H218.069ZM218.069 187.1V189.1H241.019V187.1V185.1H218.069V187.1ZM241.019 187.1H239.019V260H241.019H243.019V187.1H241.019ZM241.019 260V258H218.069V260V262H241.019V260ZM241.019 219.95L242.25 218.374L232.65 210.874L231.419 212.45L230.187 214.026L239.787 221.526L241.019 219.95ZM231.419 212.45L233.371 212.886C235.217 204.625 238.287 198.395 242.463 194.033L241.019 192.65L239.574 191.267C234.75 196.305 231.42 203.275 229.467 212.014L231.419 212.45ZM241.019 192.65L242.463 194.033C246.503 189.814 252.18 187.6 259.769 187.6V185.6V183.6C251.357 183.6 244.535 186.086 239.574 191.267L241.019 192.65ZM259.769 185.6V187.6C263.063 187.6 265.838 188.118 268.139 189.092L268.919 187.25L269.698 185.408C266.8 184.182 263.474 183.6 259.769 183.6V185.6ZM268.919 187.25L268.224 189.125C270.614 190.011 272.697 191.424 274.489 193.395L275.969 192.05L277.449 190.705C275.24 188.276 272.624 186.489 269.613 185.375L268.919 187.25ZM275.969 192.05L274.4 190.809L260.75 208.059L262.319 209.3L263.887 210.541L277.537 193.291L275.969 192.05ZM262.319 209.3L263.799 207.955C262.578 206.612 261.068 205.596 259.312 204.893L258.569 206.75L257.826 208.607C259.07 209.104 260.06 209.788 260.839 210.645L262.319 209.3ZM258.569 206.75L259.312 204.893C257.538 204.183 255.579 203.85 253.469 203.85V205.85V207.85C255.158 207.85 256.6 208.117 257.826 208.607L258.569 206.75ZM253.469 205.85V203.85C249.209 203.85 245.607 205.215 242.875 208.066L244.319 209.45L245.763 210.834C247.63 208.885 250.129 207.85 253.469 207.85V205.85ZM244.319 209.45L242.873 208.068C240.179 210.884 239.019 214.977 239.019 219.95H241.019H243.019C243.019 215.523 244.058 212.616 245.764 210.832L244.319 209.45ZM294.882 256.7L295.833 254.941L294.882 256.7ZM280.482 243.05L282.194 242.017L280.482 243.05ZM280.482 204.05L278.782 202.995L278.777 203.003L280.482 204.05ZM295.032 190.4L295.983 192.159L295.983 192.159L295.032 190.4ZM331.182 188.45L330.399 190.29L330.422 190.3L330.446 190.31L331.182 188.45ZM343.932 197.15L345.346 198.564L346.723 197.187L345.383 195.773L343.932 197.15ZM329.232 211.85L327.741 213.184L329.151 214.759L330.646 213.264L329.232 211.85ZM323.232 207.65L322.474 209.501L322.489 209.507L322.503 209.512L323.232 207.65ZM306.732 208.55L307.709 210.295L307.72 210.289L307.731 210.282L306.732 208.55ZM300.732 214.55L298.999 213.551L298.993 213.562L298.987 213.573L300.732 214.55ZM300.732 232.4L298.971 233.348L298.985 233.374L298.999 233.399L300.732 232.4ZM323.532 239.3L324.329 241.134L324.347 241.126L324.365 241.118L323.532 239.3ZM329.682 234.8L331.103 233.393L329.608 231.883L328.191 233.466L329.682 234.8ZM344.232 249.5L345.682 250.877L347.017 249.471L345.653 248.093L344.232 249.5ZM331.332 258.65L332.101 260.496L332.117 260.489L332.133 260.482L331.332 258.65ZM315.282 261.65V259.65C308.086 259.65 301.618 258.07 295.833 254.941L294.882 256.7L293.93 258.459C300.346 261.93 307.477 263.65 315.282 263.65V261.65ZM294.882 256.7L295.833 254.941C290.039 251.806 285.505 247.504 282.194 242.017L280.482 243.05L278.769 244.083C282.458 250.196 287.524 254.994 293.93 258.459L294.882 256.7ZM280.482 243.05L282.194 242.017C278.894 236.548 277.232 230.41 277.232 223.55H275.232H273.232C273.232 231.09 275.069 237.952 278.769 244.083L280.482 243.05ZM275.232 223.55H277.232C277.232 216.585 278.897 210.453 282.186 205.097L280.482 204.05L278.777 203.003C275.066 209.047 273.232 215.915 273.232 223.55H275.232ZM280.482 204.05L282.181 205.105C285.594 199.606 290.184 195.296 295.983 192.159L295.032 190.4L294.08 188.641C287.679 192.104 282.569 196.894 278.782 202.995L280.482 204.05ZM295.032 190.4L295.983 192.159C301.764 189.032 308.281 187.45 315.582 187.45V185.45V183.45C307.682 183.45 300.5 185.168 294.08 188.641L295.032 190.4ZM315.582 185.45V187.45C321.044 187.45 325.973 188.407 330.399 190.29L331.182 188.45L331.965 186.61C326.99 184.493 321.52 183.45 315.582 183.45V185.45ZM331.182 188.45L330.446 190.31C334.964 192.098 338.973 194.829 342.481 198.527L343.932 197.15L345.383 195.773C341.491 191.671 337 188.602 331.918 186.59L331.182 188.45ZM343.932 197.15L342.517 195.736L327.817 210.436L329.232 211.85L330.646 213.264L345.346 198.564L343.932 197.15ZM329.232 211.85L330.722 210.516C328.82 208.391 326.562 206.805 323.96 205.788L323.232 207.65L322.503 209.512C324.501 210.295 326.243 211.509 327.741 213.184L329.232 211.85ZM323.232 207.65L323.989 205.799C321.502 204.782 318.686 204.3 315.582 204.3V206.3V208.3C318.278 208.3 320.561 208.718 322.474 209.501L323.232 207.65ZM315.582 206.3V204.3C311.967 204.3 308.666 205.125 305.732 206.818L306.732 208.55L307.731 210.282C309.998 208.975 312.597 208.3 315.582 208.3V206.3ZM306.732 208.55L305.754 206.805C302.925 208.39 300.67 210.654 298.999 213.551L300.732 214.55L302.464 215.549C303.793 213.246 305.538 211.51 307.709 210.295L306.732 208.55ZM300.732 214.55L298.987 213.573C297.391 216.423 296.632 219.722 296.632 223.4H298.632H300.632C300.632 220.278 301.273 217.677 302.477 215.527L300.732 214.55ZM298.632 223.4H296.632C296.632 227.08 297.391 230.415 298.971 233.348L300.732 232.4L302.493 231.452C301.272 229.185 300.632 226.52 300.632 223.4H298.632ZM300.732 232.4L298.999 233.399C300.675 236.304 302.978 238.607 305.882 240.282L306.882 238.55L307.881 236.818C305.586 235.493 303.788 233.696 302.464 231.401L300.732 232.4ZM306.882 238.55L305.882 240.282C308.806 241.969 312.055 242.8 315.582 242.8V240.8V238.8C312.708 238.8 310.157 238.131 307.881 236.818L306.882 238.55ZM315.582 240.8V242.8C318.803 242.8 321.733 242.263 324.329 241.134L323.532 239.3L322.734 237.466C320.73 238.337 318.36 238.8 315.582 238.8V240.8ZM323.532 239.3L324.365 241.118C327.006 239.908 329.282 238.246 331.172 236.134L329.682 234.8L328.191 233.466C326.681 235.154 324.857 236.492 322.698 237.482L323.532 239.3ZM329.682 234.8L328.26 236.207L342.81 250.907L344.232 249.5L345.653 248.093L331.103 233.393L329.682 234.8ZM344.232 249.5L342.782 248.123C339.155 251.94 335.073 254.83 330.53 256.818L331.332 258.65L332.133 260.482C337.19 258.27 341.708 255.06 345.682 250.877L344.232 249.5ZM331.332 258.65L330.562 256.804C326.037 258.69 320.953 259.65 315.282 259.65V261.65V263.65C321.41 263.65 327.026 262.61 332.101 260.496L331.332 258.65ZM367.388 256.7L366.402 258.44L366.419 258.45L366.436 258.459L367.388 256.7ZM353.138 242.9L354.85 241.867L354.85 241.867L353.138 242.9ZM353.138 204.05L351.434 203.003L351.434 203.003L353.138 204.05ZM367.388 190.55L368.352 192.302L368.363 192.296L368.374 192.29L367.388 190.55ZM422.438 204.05L420.726 205.083L420.73 205.09L420.734 205.097L422.438 204.05ZM422.438 242.9L424.15 243.933L424.15 243.933L422.438 242.9ZM408.188 256.7L409.152 258.452L409.163 258.446L409.174 258.44L408.188 256.7ZM396.488 238.7L397.465 240.445L397.491 240.43L397.517 240.415L396.488 238.7ZM402.188 232.55L400.412 231.629L400.406 231.642L400.399 231.656L402.188 232.55ZM402.188 214.55L400.427 215.498L400.435 215.513L400.443 215.527L402.188 214.55ZM396.338 208.55L395.278 210.246L395.319 210.271L395.361 210.295L396.338 208.55ZM379.238 208.55L380.215 210.295L380.241 210.28L380.267 210.265L379.238 208.55ZM373.388 214.55L375.149 215.498L375.149 215.498L373.388 214.55ZM373.388 232.55L371.612 233.471L371.62 233.484L371.627 233.498L373.388 232.55ZM379.238 238.7L378.209 240.415L378.235 240.43L378.261 240.445L379.238 238.7ZM387.788 261.65V259.65C380.592 259.65 374.124 258.07 368.34 254.941L367.388 256.7L366.436 258.459C372.852 261.93 379.983 263.65 387.788 263.65V261.65ZM367.388 256.7L368.374 254.96C362.667 251.726 358.17 247.367 354.85 241.867L353.138 242.9L351.426 243.933C355.106 250.033 360.109 254.874 366.402 258.44L367.388 256.7ZM353.138 242.9L354.85 241.867C351.55 236.398 349.888 230.26 349.888 223.4H347.888H345.888C345.888 230.94 347.725 237.802 351.426 243.933L353.138 242.9ZM347.888 223.4H349.888C349.888 216.54 351.55 210.458 354.842 205.097L353.138 204.05L351.434 203.003C347.725 209.042 345.888 215.86 345.888 223.4H347.888ZM353.138 204.05L354.842 205.097C358.156 199.699 362.648 195.439 368.352 192.302L367.388 190.55L366.424 188.798C360.128 192.261 355.119 197.001 351.434 203.003L353.138 204.05ZM367.388 190.55L368.374 192.29C374.043 189.077 380.497 187.45 387.788 187.45V185.45V183.45C379.878 183.45 372.733 185.223 366.402 188.81L367.388 190.55ZM387.788 185.45V187.45C395.089 187.45 401.551 189.032 407.224 192.152L408.188 190.4L409.152 188.648C402.825 185.168 395.687 183.45 387.788 183.45V185.45ZM408.188 190.4L407.224 192.152C412.919 195.285 417.409 199.588 420.726 205.083L422.438 204.05L424.15 203.017C420.466 196.912 415.457 192.115 409.152 188.648L408.188 190.4ZM422.438 204.05L420.734 205.097C424.025 210.458 425.688 216.54 425.688 223.4H427.688H429.688C429.688 215.86 427.85 209.042 424.142 203.003L422.438 204.05ZM427.688 223.4H425.688C425.688 230.26 424.025 236.398 420.726 241.867L422.438 242.9L424.15 243.933C427.85 237.802 429.688 230.94 429.688 223.4H427.688ZM422.438 242.9L420.726 241.867C417.406 247.367 412.909 251.726 407.202 254.96L408.188 256.7L409.174 258.44C415.467 254.874 420.47 250.033 424.15 243.933L422.438 242.9ZM408.188 256.7L407.224 254.948C401.551 258.068 395.089 259.65 387.788 259.65V261.65V263.65C395.687 263.65 402.825 261.932 409.152 258.452L408.188 256.7ZM387.788 240.8V242.8C391.378 242.8 394.624 242.036 397.465 240.445L396.488 238.7L395.511 236.955C393.352 238.164 390.798 238.8 387.788 238.8V240.8ZM396.488 238.7L397.517 240.415C400.342 238.72 402.506 236.386 403.977 233.444L402.188 232.55L400.399 231.656C399.27 233.914 397.634 235.68 395.459 236.985L396.488 238.7ZM402.188 232.55L403.963 233.471C405.528 230.454 406.288 227.082 406.288 223.4H404.288H402.288C402.288 226.518 401.648 229.246 400.412 231.629L402.188 232.55ZM404.288 223.4H406.288C406.288 219.722 405.529 216.423 403.933 213.573L402.188 214.55L400.443 215.527C401.647 217.677 402.288 220.278 402.288 223.4H404.288ZM402.188 214.55L403.949 213.602C402.374 210.678 400.157 208.397 397.315 206.805L396.338 208.55L395.361 210.295C397.518 211.503 399.201 213.222 400.427 215.498L402.188 214.55ZM396.338 208.55L397.398 206.854C394.63 205.124 391.399 204.3 387.788 204.3V206.3V208.3C390.776 208.3 393.245 208.976 395.278 210.246L396.338 208.55ZM387.788 206.3V204.3C384.262 204.3 381.05 205.131 378.209 206.835L379.238 208.55L380.267 210.265C382.426 208.969 384.914 208.3 387.788 208.3V206.3ZM379.238 208.55L378.261 206.805C375.418 208.397 373.201 210.678 371.627 213.602L373.388 214.55L375.149 215.498C376.374 213.222 378.057 211.503 380.215 210.295L379.238 208.55ZM373.388 214.55L371.627 213.602C370.048 216.535 369.288 219.87 369.288 223.55H371.288H373.288C373.288 220.43 373.928 217.765 375.149 215.498L373.388 214.55ZM371.288 223.55H369.288C369.288 227.143 370.053 230.462 371.612 233.471L373.388 232.55L375.163 231.629C373.923 229.238 373.288 226.557 373.288 223.55H371.288ZM373.388 232.55L371.627 233.498C373.195 236.411 375.396 238.727 378.209 240.415L379.238 238.7L380.267 236.985C378.08 235.673 376.381 233.889 375.149 231.602L373.388 232.55ZM379.238 238.7L378.261 240.445C381.093 242.031 384.286 242.8 387.788 242.8V240.8V238.8C384.889 238.8 382.383 238.169 380.215 236.955L379.238 238.7ZM452.914 260.15L452.395 262.082L452.407 262.085L452.914 260.15ZM441.364 255.5L440.335 257.215L440.363 257.232L440.392 257.248L441.364 255.5ZM432.364 248.3L430.941 246.894L429.596 248.255L430.896 249.659L432.364 248.3ZM445.414 235.1L446.883 233.743L445.463 232.205L443.991 233.694L445.414 235.1ZM453.964 241.25L453.136 243.071L453.159 243.081L453.183 243.091L453.964 241.25ZM470.914 242.15L469.972 240.385L469.947 240.399L469.921 240.414L470.914 242.15ZM470.464 234.8L469.45 236.524L469.508 236.558L469.569 236.589L470.464 234.8ZM463.864 232.25L463.295 234.168L463.328 234.177L463.362 234.186L463.864 232.25ZM446.764 225.95L447.783 224.229L447.783 224.229L446.764 225.95ZM440.164 219.35L438.438 220.361L438.446 220.375L438.454 220.388L440.164 219.35ZM441.214 196.25L442.848 197.403L442.855 197.392L442.863 197.381L441.214 196.25ZM451.414 188L450.586 186.179L450.586 186.179L451.414 188ZM483.964 188.3L483.184 190.142L483.206 190.151L483.227 190.159L483.964 188.3ZM496.864 197.75L498.286 199.156L499.526 197.902L498.436 196.514L496.864 197.75ZM483.814 210.95L482.291 212.247L483.704 213.906L485.236 212.356L483.814 210.95ZM476.014 205.25L475.282 207.112L475.293 207.116L475.304 207.12L476.014 205.25ZM461.914 204.8L462.862 206.561L462.913 206.534L462.962 206.503L461.914 204.8ZM469.114 213.95L468.612 215.886L468.612 215.886L469.114 213.95ZM477.664 216.5L478.296 214.603L478.296 214.603L477.664 216.5ZM486.214 220.55L487.279 218.858L487.279 218.858L486.214 220.55ZM492.814 227.45L491.088 228.461L491.096 228.475L491.104 228.488L492.814 227.45ZM487.264 255.5L486.036 253.921L486.029 253.927L486.022 253.933L487.264 255.5ZM465.664 261.8V259.8C461.536 259.8 457.457 259.272 453.42 258.215L452.914 260.15L452.407 262.085C456.771 263.228 461.191 263.8 465.664 263.8V261.8ZM452.914 260.15L453.432 258.218C449.485 257.159 445.788 255.67 442.335 253.752L441.364 255.5L440.392 257.248C444.14 259.33 448.142 260.941 452.395 262.082L452.914 260.15ZM441.364 255.5L442.393 253.785C439.037 251.772 436.189 249.488 433.831 246.941L432.364 248.3L430.896 249.659C433.538 252.512 436.69 255.028 440.335 257.215L441.364 255.5ZM432.364 248.3L433.786 249.706L446.836 236.506L445.414 235.1L443.991 233.694L430.941 246.894L432.364 248.3ZM445.414 235.1L443.944 236.457C446.529 239.257 449.599 241.463 453.136 243.071L453.964 241.25L454.791 239.429C451.728 238.037 449.098 236.143 446.883 233.743L445.414 235.1ZM453.964 241.25L453.183 243.091C456.751 244.605 460.619 245.35 464.764 245.35V243.35V241.35C461.108 241.35 457.777 240.695 454.745 239.409L453.964 241.25ZM464.764 243.35V245.35C467.604 245.35 470.064 244.939 471.906 243.886L470.914 242.15L469.921 240.414C468.964 240.961 467.323 241.35 464.764 241.35V243.35ZM470.914 242.15L471.855 243.915C473.84 242.856 475.164 241.16 475.164 238.85H473.164H471.164C471.164 239.34 470.988 239.844 469.972 240.385L470.914 242.15ZM473.164 238.85H475.164C475.164 237.6 474.845 236.417 474.153 235.378C473.468 234.352 472.495 233.58 471.358 233.011L470.464 234.8L469.569 236.589C470.232 236.92 470.609 237.273 470.825 237.597C471.032 237.908 471.164 238.3 471.164 238.85H473.164ZM470.464 234.8L471.478 233.076C469.567 231.952 467.177 231.043 464.366 230.314L463.864 232.25L463.362 234.186C465.95 234.857 467.961 235.648 469.45 236.524L470.464 234.8ZM463.864 232.25L464.432 230.332C461.734 229.533 458.886 228.684 455.888 227.784L455.314 229.7L454.739 231.616C457.741 232.516 460.593 233.367 463.295 234.168L463.864 232.25ZM455.314 229.7L455.888 227.784C453.044 226.931 450.344 225.747 447.783 224.229L446.764 225.95L445.744 227.671C448.584 229.353 451.583 230.669 454.739 231.616L455.314 229.7ZM446.764 225.95L447.783 224.229C445.378 222.804 443.411 220.844 441.873 218.312L440.164 219.35L438.454 220.388C440.317 223.456 442.749 225.896 445.744 227.671L446.764 225.95ZM440.164 219.35L441.889 218.339C440.416 215.826 439.614 212.551 439.614 208.4H437.614H435.614C435.614 213.049 436.511 217.074 438.438 220.361L440.164 219.35ZM437.614 208.4H439.614C439.614 204.057 440.716 200.423 442.848 197.403L441.214 196.25L439.58 195.097C436.911 198.877 435.614 203.343 435.614 208.4H437.614ZM441.214 196.25L442.863 197.381C445.03 194.221 448.126 191.691 452.241 189.821L451.414 188L450.586 186.179C445.901 188.309 442.198 191.279 439.564 195.119L441.214 196.25ZM451.414 188L452.241 189.821C456.331 187.962 461.188 187 466.864 187V185V183C460.74 183 455.297 184.038 450.586 186.179L451.414 188ZM466.864 185V187C472.822 187 478.254 188.056 483.184 190.142L483.964 188.3L484.743 186.458C479.273 184.144 473.305 183 466.864 183V185ZM483.964 188.3L483.227 190.159C488.221 192.138 492.224 195.083 495.291 198.986L496.864 197.75L498.436 196.514C494.903 192.017 490.306 188.662 484.7 186.441L483.964 188.3ZM496.864 197.75L495.441 196.344L482.391 209.544L483.814 210.95L485.236 212.356L498.286 199.156L496.864 197.75ZM483.814 210.95L485.336 209.653C482.849 206.734 479.981 204.616 476.723 203.38L476.014 205.25L475.304 207.12C477.847 208.084 480.178 209.766 482.291 212.247L483.814 210.95ZM476.014 205.25L476.745 203.388C473.739 202.207 470.741 201.6 467.764 201.6V203.6V205.6C470.186 205.6 472.689 206.093 475.282 207.112L476.014 205.25ZM467.764 203.6V201.6C465.024 201.6 462.632 202.01 460.865 203.097L461.914 204.8L462.962 206.503C463.796 205.99 465.304 205.6 467.764 205.6V203.6ZM461.914 204.8L460.965 203.039C460.067 203.523 459.293 204.183 458.751 205.06C458.205 205.942 457.964 206.929 457.964 207.95H459.964H461.964C461.964 207.571 462.048 207.333 462.152 207.165C462.259 206.992 462.46 206.777 462.862 206.561L461.914 204.8ZM459.964 207.95H457.964C457.964 210.408 459.44 212.186 461.578 213.318L462.514 211.55L463.449 209.782C462.187 209.114 461.964 208.492 461.964 207.95H459.964ZM462.514 211.55L461.578 213.318C463.462 214.315 465.822 215.163 468.612 215.886L469.114 213.95L469.616 212.014C467.005 211.337 464.966 210.585 463.449 209.782L462.514 211.55ZM469.114 213.95L468.612 215.886C471.262 216.573 474.069 217.41 477.031 218.397L477.664 216.5L478.296 214.603C475.259 213.59 472.365 212.727 469.616 212.014L469.114 213.95ZM477.664 216.5L477.031 218.397C479.878 219.346 482.582 220.627 485.148 222.242L486.214 220.55L487.279 218.858C484.445 217.073 481.45 215.654 478.296 214.603L477.664 216.5ZM486.214 220.55L485.148 222.242C487.562 223.762 489.541 225.823 491.088 228.461L492.814 227.45L494.539 226.439C492.686 223.277 490.265 220.738 487.279 218.858L486.214 220.55ZM492.814 227.45L491.104 228.488C492.552 230.873 493.364 234.175 493.364 238.55H495.364H497.364C497.364 233.725 496.475 229.627 494.523 226.412L492.814 227.45ZM495.364 238.55H493.364C493.364 245.06 490.928 250.117 486.036 253.921L487.264 255.5L488.492 257.079C494.4 252.483 497.364 246.24 497.364 238.55H495.364ZM487.264 255.5L486.022 253.933C481.18 257.769 474.468 259.8 465.664 259.8V261.8V263.8C475.059 263.8 482.747 261.631 488.506 257.067L487.264 255.5Z" fill="black" mask="url(#path-1-outside-1_182_76)"/>
</svg>
