<svg width="566" height="466" viewBox="0 0 566 466" fill="none" xmlns="http://www.w3.org/2000/svg">
<mask id="path-1-outside-1_166_12" maskUnits="userSpaceOnUse" x="0" y="0" width="566" height="466" fill="black">
<rect fill="white" width="566" height="466"/>
<path d="M2.56 125V4.97999H29.25V125H2.56ZM76.85 125V4.97999H103.71V125H76.85ZM18.54 74.85V51.73H85.69V74.85H18.54ZM124.36 125V42.38H150.37V125H124.36ZM137.45 30.99C133.37 30.99 129.97 29.63 127.25 26.91C124.643 24.0767 123.34 20.6767 123.34 16.71C123.34 12.63 124.643 9.22999 127.25 6.51C129.97 3.79 133.37 2.43 137.45 2.43C141.53 2.43 144.873 3.79 147.48 6.51C150.086 9.22999 151.39 12.63 151.39 16.71C151.39 20.6767 150.086 24.0767 147.48 26.91C144.873 29.63 141.53 30.99 137.45 30.99ZM168.686 145.4L181.096 122.28L188.746 120.07C187.953 121.77 186.989 123.187 185.856 124.32C184.723 125.34 183.419 125.85 181.946 125.85C178.659 125.85 175.656 124.49 172.936 121.77C170.216 119.05 168.856 115.65 168.856 111.57C168.856 107.15 170.329 103.353 173.276 100.18C176.336 97.0067 180.076 95.42 184.496 95.42C188.689 95.42 192.316 97.0067 195.376 100.18C198.549 103.24 200.136 107.037 200.136 111.57C200.136 113.383 199.796 115.48 199.116 117.86C198.436 120.24 197.076 123.357 195.036 127.21L181.266 152.37L168.686 145.4ZM2.56 293V172.98H29.25V293H2.56ZM116.868 294.7C109.274 294.7 102.474 292.83 96.4677 289.09C90.5744 285.35 85.8711 280.25 82.3577 273.79C78.9577 267.33 77.2577 259.963 77.2577 251.69C77.2577 243.417 78.9577 236.05 82.3577 229.59C85.8711 223.13 90.5744 218.03 96.4677 214.29C102.474 210.55 109.274 208.68 116.868 208.68C122.421 208.68 127.408 209.757 131.828 211.91C136.361 214.063 140.044 217.067 142.878 220.92C145.711 224.66 147.298 228.967 147.638 233.84V269.54C147.298 274.413 145.711 278.777 142.878 282.63C140.158 286.37 136.531 289.317 131.998 291.47C127.464 293.623 122.421 294.7 116.868 294.7ZM122.138 271.24C127.691 271.24 132.168 269.427 135.568 265.8C138.968 262.06 140.668 257.357 140.668 251.69C140.668 247.837 139.874 244.437 138.288 241.49C136.814 238.543 134.661 236.277 131.828 234.69C129.108 232.99 125.934 232.14 122.308 232.14C118.681 232.14 115.451 232.99 112.618 234.69C109.898 236.277 107.688 238.543 105.988 241.49C104.401 244.437 103.608 247.837 103.608 251.69C103.608 255.43 104.401 258.773 105.988 261.72C107.574 264.667 109.784 266.99 112.618 268.69C115.451 270.39 118.624 271.24 122.138 271.24ZM139.648 293V270.73L143.558 250.67L139.648 230.61V210.38H165.148V293H139.648ZM183.461 293V210.38H209.471V293H183.461ZM236.331 293V244.72C236.331 240.527 235.028 237.297 232.421 235.03C229.928 232.65 226.811 231.46 223.071 231.46C220.465 231.46 218.141 232.027 216.101 233.16C214.061 234.18 212.418 235.653 211.171 237.58C210.038 239.507 209.471 241.887 209.471 244.72L199.441 240.3C199.441 233.727 200.858 228.117 203.691 223.47C206.525 218.71 210.378 215.083 215.251 212.59C220.125 209.983 225.621 208.68 231.741 208.68C237.521 208.68 242.678 209.983 247.211 212.59C251.858 215.197 255.541 218.823 258.261 223.47C260.981 228.117 262.341 233.67 262.341 240.13V293H236.331ZM289.201 293V244.72C289.201 240.527 287.898 237.297 285.291 235.03C282.798 232.65 279.681 231.46 275.941 231.46C273.335 231.46 271.011 232.027 268.971 233.16C266.931 234.18 265.288 235.653 264.041 237.58C262.908 239.507 262.341 241.887 262.341 244.72L247.381 242.68C247.608 235.653 249.251 229.647 252.311 224.66C255.485 219.56 259.621 215.65 264.721 212.93C269.935 210.097 275.771 208.68 282.231 208.68C288.578 208.68 294.188 210.04 299.061 212.76C304.048 215.367 307.958 219.163 310.791 224.15C313.738 229.023 315.211 234.917 315.211 241.83V293H289.201ZM2.56 461V340.98H21.6L68.86 414.59H59.17L106.26 340.98H125.47V461H98.78V386.03L103.54 387.22L72.77 435.16H55.09L24.49 387.22L29.08 386.03V461H2.56ZM180.618 462.7C173.024 462.7 166.224 460.83 160.218 457.09C154.324 453.35 149.621 448.25 146.108 441.79C142.708 435.33 141.008 427.963 141.008 419.69C141.008 411.417 142.708 404.05 146.108 397.59C149.621 391.13 154.324 386.03 160.218 382.29C166.224 378.55 173.024 376.68 180.618 376.68C186.171 376.68 191.158 377.757 195.578 379.91C200.111 382.063 203.794 385.067 206.628 388.92C209.461 392.66 211.048 396.967 211.388 401.84V437.54C211.048 442.413 209.461 446.777 206.628 450.63C203.908 454.37 200.281 457.317 195.748 459.47C191.214 461.623 186.171 462.7 180.618 462.7ZM185.888 439.24C191.441 439.24 195.918 437.427 199.318 433.8C202.718 430.06 204.418 425.357 204.418 419.69C204.418 415.837 203.624 412.437 202.038 409.49C200.564 406.543 198.411 404.277 195.578 402.69C192.858 400.99 189.684 400.14 186.058 400.14C182.431 400.14 179.201 400.99 176.368 402.69C173.648 404.277 171.438 406.543 169.738 409.49C168.151 412.437 167.358 415.837 167.358 419.69C167.358 423.43 168.151 426.773 169.738 429.72C171.324 432.667 173.534 434.99 176.368 436.69C179.201 438.39 182.374 439.24 185.888 439.24ZM203.398 461V438.73L207.308 418.67L203.398 398.61V378.38H228.898V461H203.398ZM247.211 461V378.38H273.221V461H247.211ZM273.221 415.61L262.341 407.11C264.495 397.477 268.121 389.997 273.221 384.67C278.321 379.343 285.405 376.68 294.471 376.68C298.438 376.68 301.895 377.303 304.841 378.55C307.901 379.683 310.565 381.497 312.831 383.99L297.361 403.54C296.228 402.293 294.811 401.33 293.111 400.65C291.411 399.97 289.485 399.63 287.331 399.63C283.025 399.63 279.568 400.99 276.961 403.71C274.468 406.317 273.221 410.283 273.221 415.61ZM357.386 462.87C348.886 462.87 341.179 461 334.266 457.26C327.353 453.52 321.913 448.363 317.946 441.79C313.979 435.217 311.996 427.85 311.996 419.69C311.996 411.417 313.979 404.05 317.946 397.59C322.026 391.017 327.523 385.86 334.436 382.12C341.349 378.38 349.113 376.51 357.726 376.51C364.186 376.51 370.079 377.643 375.406 379.91C380.846 382.063 385.663 385.35 389.856 389.77L373.196 406.43C371.269 404.277 369.003 402.69 366.396 401.67C363.903 400.65 361.013 400.14 357.726 400.14C353.986 400.14 350.643 400.99 347.696 402.69C344.863 404.277 342.596 406.543 340.896 409.49C339.309 412.323 338.516 415.667 338.516 419.52C338.516 423.373 339.309 426.773 340.896 429.72C342.596 432.667 344.919 434.99 347.866 436.69C350.813 438.39 354.099 439.24 357.726 439.24C361.126 439.24 364.129 438.673 366.736 437.54C369.456 436.293 371.779 434.593 373.706 432.44L390.196 449.1C385.889 453.633 381.016 457.09 375.576 459.47C370.136 461.737 364.073 462.87 357.386 462.87ZM439.56 462.87C431.06 462.87 423.353 461 416.44 457.26C409.64 453.407 404.256 448.193 400.29 441.62C396.323 435.047 394.34 427.68 394.34 419.52C394.34 411.36 396.323 404.05 400.29 397.59C404.256 391.13 409.64 386.03 416.44 382.29C423.24 378.437 430.946 376.51 439.56 376.51C448.173 376.51 455.88 378.38 462.68 382.12C469.48 385.86 474.863 391.017 478.83 397.59C482.796 404.05 484.78 411.36 484.78 419.52C484.78 427.68 482.796 435.047 478.83 441.62C474.863 448.193 469.48 453.407 462.68 457.26C455.88 461 448.173 462.87 439.56 462.87ZM439.56 439.24C443.3 439.24 446.586 438.447 449.42 436.86C452.253 435.16 454.406 432.837 455.88 429.89C457.466 426.83 458.26 423.373 458.26 419.52C458.26 415.667 457.466 412.323 455.88 409.49C454.293 406.543 452.083 404.277 449.25 402.69C446.53 400.99 443.3 400.14 439.56 400.14C435.933 400.14 432.703 400.99 429.87 402.69C427.036 404.277 424.826 406.543 423.24 409.49C421.653 412.437 420.86 415.837 420.86 419.69C420.86 423.43 421.653 426.83 423.24 429.89C424.826 432.837 427.036 435.16 429.87 436.86C432.703 438.447 435.933 439.24 439.56 439.24ZM527.819 463.04C522.945 463.04 518.129 462.417 513.369 461.17C508.722 459.923 504.359 458.167 500.279 455.9C496.312 453.52 492.912 450.8 490.079 447.74L504.869 432.78C507.589 435.727 510.819 438.05 514.559 439.75C518.299 441.337 522.379 442.13 526.799 442.13C529.859 442.13 532.182 441.677 533.769 440.77C535.469 439.863 536.319 438.617 536.319 437.03C536.319 434.99 535.299 433.46 533.259 432.44C531.332 431.307 528.839 430.343 525.779 429.55C522.719 428.643 519.489 427.68 516.089 426.66C512.689 425.64 509.459 424.223 506.399 422.41C503.339 420.597 500.845 418.103 498.919 414.93C496.992 411.643 496.029 407.507 496.029 402.52C496.029 397.193 497.389 392.603 500.109 388.75C502.829 384.783 506.682 381.667 511.669 379.4C516.655 377.133 522.492 376 529.179 376C536.205 376 542.665 377.247 548.559 379.74C554.565 382.12 559.439 385.69 563.179 390.45L548.389 405.41C545.782 402.35 542.835 400.197 539.549 398.95C536.375 397.703 533.259 397.08 530.199 397.08C527.252 397.08 525.042 397.533 523.569 398.44C522.095 399.233 521.359 400.423 521.359 402.01C521.359 403.71 522.322 405.07 524.249 406.09C526.175 407.11 528.669 408.017 531.729 408.81C534.789 409.603 538.019 410.567 541.419 411.7C544.819 412.833 548.049 414.363 551.109 416.29C554.169 418.217 556.662 420.823 558.589 424.11C560.515 427.283 561.479 431.477 561.479 436.69C561.479 444.737 558.419 451.14 552.299 455.9C546.292 460.66 538.132 463.04 527.819 463.04Z"/>
</mask>
<path d="M2.56 125H0.560001V127H2.56V125ZM2.56 4.97999V2.97999H0.560001V4.97999H2.56ZM29.25 4.97999H31.25V2.97999H29.25V4.97999ZM29.25 125V127H31.25V125H29.25ZM76.85 125H74.85V127H76.85V125ZM76.85 4.97999V2.97999H74.85V4.97999H76.85ZM103.71 4.97999H105.71V2.97999H103.71V4.97999ZM103.71 125V127H105.71V125H103.71ZM18.54 74.85H16.54V76.85H18.54V74.85ZM18.54 51.73V49.73H16.54V51.73H18.54ZM85.69 51.73H87.69V49.73H85.69V51.73ZM85.69 74.85V76.85H87.69V74.85H85.69ZM2.56 125H4.56V4.97999H2.56H0.560001V125H2.56ZM2.56 4.97999V6.97999H29.25V4.97999V2.97999H2.56V4.97999ZM29.25 4.97999H27.25V125H29.25H31.25V4.97999H29.25ZM29.25 125V123H2.56V125V127H29.25V125ZM76.85 125H78.85V4.97999H76.85H74.85V125H76.85ZM76.85 4.97999V6.97999H103.71V4.97999V2.97999H76.85V4.97999ZM103.71 4.97999H101.71V125H103.71H105.71V4.97999H103.71ZM103.71 125V123H76.85V125V127H103.71V125ZM18.54 74.85H20.54V51.73H18.54H16.54V74.85H18.54ZM18.54 51.73V53.73H85.69V51.73V49.73H18.54V51.73ZM85.69 51.73H83.69V74.85H85.69H87.69V51.73H85.69ZM85.69 74.85V72.85H18.54V74.85V76.85H85.69V74.85ZM124.36 125H122.36V127H124.36V125ZM124.36 42.38V40.38H122.36V42.38H124.36ZM150.37 42.38H152.37V40.38H150.37V42.38ZM150.37 125V127H152.37V125H150.37ZM127.25 26.91L125.778 28.2641L125.806 28.2948L125.835 28.3242L127.25 26.91ZM127.25 6.51L125.835 5.09578L125.82 5.11082L125.806 5.12618L127.25 6.51ZM147.48 26.91L148.924 28.2938L148.938 28.2791L148.952 28.2641L147.48 26.91ZM124.36 125H126.36V42.38H124.36H122.36V125H124.36ZM124.36 42.38V44.38H150.37V42.38V40.38H124.36V42.38ZM150.37 42.38H148.37V125H150.37H152.37V42.38H150.37ZM150.37 125V123H124.36V125V127H150.37V125ZM137.45 30.99V28.99C133.864 28.99 130.984 27.8162 128.664 25.4958L127.25 26.91L125.835 28.3242C128.955 31.4438 132.875 32.99 137.45 32.99V30.99ZM127.25 26.91L128.722 25.5559C126.466 23.1039 125.34 20.1918 125.34 16.71H123.34H121.34C121.34 21.1615 122.82 25.0494 125.778 28.2641L127.25 26.91ZM123.34 16.71H125.34C125.34 13.0988 126.475 10.2089 128.694 7.89381L127.25 6.51L125.806 5.12618C122.811 8.25106 121.34 12.1612 121.34 16.71H123.34ZM127.25 6.51L128.664 7.92421C130.984 5.6038 133.864 4.43 137.45 4.43V2.43V0.429997C132.875 0.429997 128.955 1.97619 125.835 5.09578L127.25 6.51ZM137.45 2.43V4.43C141.035 4.43 143.84 5.6023 146.036 7.89381L147.48 6.51L148.924 5.12618C145.906 1.97769 142.025 0.429997 137.45 0.429997V2.43ZM147.48 6.51L146.036 7.89381C148.254 10.2089 149.39 13.0988 149.39 16.71H151.39H153.39C153.39 12.1612 151.918 8.25106 148.924 5.12618L147.48 6.51ZM151.39 16.71H149.39C149.39 20.1918 148.264 23.1039 146.008 25.5559L147.48 26.91L148.952 28.2641C151.909 25.0494 153.39 21.1615 153.39 16.71H151.39ZM147.48 26.91L146.036 25.5262C143.84 27.8177 141.035 28.99 137.45 28.99V30.99V32.99C142.025 32.99 145.906 31.4423 148.924 28.2938L147.48 26.91ZM168.686 145.4L166.924 144.454L165.99 146.193L167.717 147.149L168.686 145.4ZM181.096 122.28L180.541 120.359L179.732 120.592L179.334 121.334L181.096 122.28ZM188.746 120.07L190.558 120.916L192.42 116.927L188.191 118.149L188.746 120.07ZM185.856 124.32L187.194 125.807L187.233 125.771L187.27 125.734L185.856 124.32ZM172.936 121.77L171.522 123.184L171.522 123.184L172.936 121.77ZM173.276 100.18L171.836 98.7917L171.823 98.8053L171.81 98.8191L173.276 100.18ZM195.376 100.18L193.936 101.568L193.961 101.594L193.988 101.62L195.376 100.18ZM199.116 117.86L197.193 117.311L197.193 117.311L199.116 117.86ZM195.036 127.21L196.79 128.17L196.797 128.158L196.803 128.146L195.036 127.21ZM181.266 152.37L180.297 154.119L182.055 155.094L183.02 153.33L181.266 152.37ZM168.686 145.4L170.448 146.346L182.858 123.226L181.096 122.28L179.334 121.334L166.924 144.454L168.686 145.4ZM181.096 122.28L181.651 124.201L189.301 121.991L188.746 120.07L188.191 118.149L180.541 120.359L181.096 122.28ZM188.746 120.07L186.933 119.224C186.222 120.748 185.385 121.963 184.442 122.906L185.856 124.32L187.27 125.734C188.594 124.411 189.683 122.792 190.558 120.916L188.746 120.07ZM185.856 124.32L184.518 122.833C183.738 123.536 182.906 123.85 181.946 123.85V125.85V127.85C183.932 127.85 185.707 127.144 187.194 125.807L185.856 124.32ZM181.946 125.85V123.85C179.28 123.85 176.764 122.77 174.35 120.356L172.936 121.77L171.522 123.184C174.548 126.21 178.039 127.85 181.946 127.85V125.85ZM172.936 121.77L174.35 120.356C172.03 118.035 170.856 115.155 170.856 111.57H168.856H166.856C166.856 116.145 168.402 120.065 171.522 123.184L172.936 121.77ZM168.856 111.57H170.856C170.856 107.643 172.146 104.336 174.741 101.541L173.276 100.18L171.81 98.8191C168.512 102.371 166.856 106.657 166.856 111.57H168.856ZM173.276 100.18L174.716 101.568C177.397 98.787 180.617 97.42 184.496 97.42V95.42V93.42C179.534 93.42 175.274 95.2263 171.836 98.7917L173.276 100.18ZM184.496 95.42V97.42C188.116 97.42 191.231 98.7634 193.936 101.568L195.376 100.18L196.816 98.7917C193.4 95.2499 189.263 93.42 184.496 93.42V95.42ZM195.376 100.18L193.988 101.62C196.758 104.291 198.136 107.562 198.136 111.57H200.136H202.136C202.136 106.511 200.341 102.189 196.764 98.7403L195.376 100.18ZM200.136 111.57H198.136C198.136 113.144 197.839 115.049 197.193 117.311L199.116 117.86L201.039 118.409C201.753 115.911 202.136 113.623 202.136 111.57H200.136ZM199.116 117.86L197.193 117.311C196.569 119.493 195.284 122.466 193.268 126.274L195.036 127.21L196.803 128.146C198.867 124.247 200.302 120.987 201.039 118.409L199.116 117.86ZM195.036 127.21L193.281 126.25L179.511 151.41L181.266 152.37L183.02 153.33L196.79 128.17L195.036 127.21ZM181.266 152.37L182.235 150.621L169.655 143.651L168.686 145.4L167.717 147.149L180.297 154.119L181.266 152.37ZM2.56 293H0.560001V295H2.56V293ZM2.56 172.98V170.98H0.560001V172.98H2.56ZM29.25 172.98H31.25V170.98H29.25V172.98ZM29.25 293V295H31.25V293H29.25ZM2.56 293H4.56V172.98H2.56H0.560001V293H2.56ZM2.56 172.98V174.98H29.25V172.98V170.98H2.56V172.98ZM29.25 172.98H27.25V293H29.25H31.25V172.98H29.25ZM29.25 293V291H2.56V293V295H29.25V293ZM96.4677 289.09L95.3961 290.779L95.4033 290.783L95.4106 290.788L96.4677 289.09ZM82.3577 273.79L80.5879 274.721L80.5943 274.734L80.6008 274.746L82.3577 273.79ZM82.3577 229.59L80.6008 228.634L80.5943 228.646L80.5879 228.659L82.3577 229.59ZM96.4677 214.29L95.4106 212.592L95.4033 212.597L95.3961 212.601L96.4677 214.29ZM131.828 211.91L130.952 213.708L130.961 213.712L130.97 213.717L131.828 211.91ZM142.878 220.92L141.266 222.105L141.275 222.116L141.284 222.128L142.878 220.92ZM147.638 233.84H149.638V233.77L149.633 233.701L147.638 233.84ZM147.638 269.54L149.633 269.679L149.638 269.61V269.54H147.638ZM142.878 282.63L141.266 281.445L141.26 281.454L142.878 282.63ZM131.998 291.47L131.14 289.663L131.14 289.663L131.998 291.47ZM135.568 265.8L137.027 267.168L137.037 267.157L137.048 267.145L135.568 265.8ZM138.288 241.49L136.499 242.384L136.512 242.412L136.527 242.438L138.288 241.49ZM131.828 234.69L130.768 236.386L130.809 236.411L130.851 236.435L131.828 234.69ZM112.618 234.69L113.625 236.418L113.636 236.411L113.647 236.405L112.618 234.69ZM105.988 241.49L104.255 240.491L104.241 240.516L104.227 240.542L105.988 241.49ZM105.988 261.72L104.227 262.668L104.227 262.668L105.988 261.72ZM139.648 293H137.648V295H139.648V293ZM139.648 270.73L137.685 270.347L137.648 270.537V270.73H139.648ZM143.558 250.67L145.521 251.053L145.595 250.67L145.521 250.287L143.558 250.67ZM139.648 230.61H137.648V230.803L137.685 230.993L139.648 230.61ZM139.648 210.38V208.38H137.648V210.38H139.648ZM165.148 210.38H167.148V208.38H165.148V210.38ZM165.148 293V295H167.148V293H165.148ZM116.868 294.7V292.7C109.62 292.7 103.191 290.92 97.5249 287.392L96.4677 289.09L95.4106 290.788C101.758 294.74 108.929 296.7 116.868 296.7V294.7ZM96.4677 289.09L97.5394 287.401C91.9486 283.853 87.4746 279.012 84.1147 272.834L82.3577 273.79L80.6008 274.746C84.2675 281.488 89.2002 286.847 95.3961 290.779L96.4677 289.09ZM82.3577 273.79L84.1276 272.859C80.8979 266.722 79.2577 259.682 79.2577 251.69H77.2577H75.2577C75.2577 260.244 77.0176 267.938 80.5879 274.721L82.3577 273.79ZM77.2577 251.69H79.2577C79.2577 243.698 80.8979 236.658 84.1276 230.521L82.3577 229.59L80.5879 228.659C77.0176 235.442 75.2577 243.136 75.2577 251.69H77.2577ZM82.3577 229.59L84.1147 230.546C87.4746 224.368 91.9486 219.527 97.5394 215.979L96.4677 214.29L95.3961 212.601C89.2002 216.533 84.2675 221.892 80.6008 228.634L82.3577 229.59ZM96.4677 214.29L97.5249 215.988C103.191 212.46 109.62 210.68 116.868 210.68V208.68V206.68C108.929 206.68 101.758 208.64 95.4106 212.592L96.4677 214.29ZM116.868 208.68V210.68C122.157 210.68 126.838 211.704 130.952 213.708L131.828 211.91L132.704 210.112C127.977 207.809 122.685 206.68 116.868 206.68V208.68ZM131.828 211.91L130.97 213.717C135.22 215.735 138.639 218.531 141.266 222.105L142.878 220.92L144.489 219.735C141.45 215.602 137.503 212.391 132.686 210.103L131.828 211.91ZM142.878 220.92L141.284 222.128C143.872 225.545 145.328 229.477 145.643 233.979L147.638 233.84L149.633 233.701C149.267 228.457 147.55 223.775 144.472 219.712L142.878 220.92ZM147.638 233.84H145.638V269.54H147.638H149.638V233.84H147.638ZM147.638 269.54L145.643 269.401C145.328 273.905 143.87 277.904 141.266 281.445L142.878 282.63L144.489 283.815C147.552 279.649 149.267 274.922 149.633 269.679L147.638 269.54ZM142.878 282.63L141.26 281.454C138.753 284.901 135.398 287.641 131.14 289.663L131.998 291.47L132.856 293.277C137.665 290.992 141.562 287.839 144.495 283.806L142.878 282.63ZM131.998 291.47L131.14 289.663C126.902 291.676 122.156 292.7 116.868 292.7V294.7V296.7C122.686 296.7 128.027 295.57 132.856 293.277L131.998 291.47ZM122.138 271.24V273.24C128.172 273.24 133.202 271.247 137.027 267.168L135.568 265.8L134.109 264.432C131.133 267.606 127.21 269.24 122.138 269.24V271.24ZM135.568 265.8L137.048 267.145C140.824 262.992 142.668 257.789 142.668 251.69H140.668H138.668C138.668 256.924 137.112 261.128 134.088 264.455L135.568 265.8ZM140.668 251.69H142.668C142.668 247.556 141.815 243.821 140.049 240.542L138.288 241.49L136.527 242.438C137.934 245.052 138.668 248.117 138.668 251.69H140.668ZM138.288 241.49L140.077 240.596C138.427 237.296 135.993 234.73 132.805 232.945L131.828 234.69L130.851 236.435C133.329 237.823 135.202 239.791 136.499 242.384L138.288 241.49ZM131.828 234.69L132.888 232.994C129.81 231.07 126.259 230.14 122.308 230.14V232.14V234.14C125.61 234.14 128.406 234.91 130.768 236.386L131.828 234.69ZM122.308 232.14V230.14C118.355 230.14 114.763 231.071 111.589 232.975L112.618 234.69L113.647 236.405C116.139 234.909 119.007 234.14 122.308 234.14V232.14ZM112.618 234.69L111.61 232.962C108.565 234.739 106.115 237.267 104.255 240.491L105.988 241.49L107.72 242.489C109.26 239.819 111.23 237.815 113.625 236.418L112.618 234.69ZM105.988 241.49L104.227 240.542C102.461 243.821 101.608 247.556 101.608 251.69H103.608H105.608C105.608 248.117 106.341 245.052 107.749 242.438L105.988 241.49ZM103.608 251.69H101.608C101.608 255.721 102.465 259.397 104.227 262.668L105.988 261.72L107.749 260.772C106.337 258.149 105.608 255.139 105.608 251.69H103.608ZM105.988 261.72L104.227 262.668C105.982 265.927 108.443 268.517 111.589 270.405L112.618 268.69L113.647 266.975C111.126 265.463 109.167 263.406 107.749 260.772L105.988 261.72ZM112.618 268.69L111.589 270.405C114.753 272.303 118.286 273.24 122.138 273.24V271.24V269.24C118.963 269.24 116.149 268.477 113.647 266.975L112.618 268.69ZM139.648 293H141.648V270.73H139.648H137.648V293H139.648ZM139.648 270.73L141.611 271.113L145.521 251.053L143.558 250.67L141.595 250.287L137.685 270.347L139.648 270.73ZM143.558 250.67L145.521 250.287L141.611 230.227L139.648 230.61L137.685 230.993L141.595 251.053L143.558 250.67ZM139.648 230.61H141.648V210.38H139.648H137.648V230.61H139.648ZM139.648 210.38V212.38H165.148V210.38V208.38H139.648V210.38ZM165.148 210.38H163.148V293H165.148H167.148V210.38H165.148ZM165.148 293V291H139.648V293V295H165.148V293ZM183.461 293H181.461V295H183.461V293ZM183.461 210.38V208.38H181.461V210.38H183.461ZM209.471 210.38H211.471V208.38H209.471V210.38ZM209.471 293V295H211.471V293H209.471ZM236.331 293H234.331V295H236.331V293ZM232.421 235.03L231.04 236.477L231.074 236.509L231.109 236.539L232.421 235.03ZM216.101 233.16L216.996 234.949L217.035 234.929L217.073 234.908L216.101 233.16ZM211.171 237.58L209.492 236.493L209.469 236.529L209.447 236.566L211.171 237.58ZM209.471 244.72L208.665 246.55L211.471 247.787V244.72H209.471ZM199.441 240.3H197.441V241.604L198.635 242.13L199.441 240.3ZM203.691 223.47L205.399 224.511L205.404 224.502L205.41 224.493L203.691 223.47ZM215.251 212.59L216.162 214.37L216.178 214.362L216.195 214.354L215.251 212.59ZM247.211 212.59L246.214 214.324L246.224 214.329L246.233 214.334L247.211 212.59ZM258.261 223.47L256.535 224.48L256.535 224.48L258.261 223.47ZM262.341 293V295H264.341V293H262.341ZM289.201 293H287.201V295H289.201V293ZM285.291 235.03L283.91 236.477L283.944 236.509L283.979 236.539L285.291 235.03ZM268.971 233.16L269.866 234.949L269.905 234.929L269.943 234.908L268.971 233.16ZM264.041 237.58L262.362 236.493L262.339 236.529L262.317 236.566L264.041 237.58ZM262.341 244.72L262.071 246.702L264.341 247.011V244.72H262.341ZM247.381 242.68L245.382 242.616L245.324 244.418L247.111 244.662L247.381 242.68ZM252.311 224.66L250.613 223.603L250.607 223.614L252.311 224.66ZM264.721 212.93L265.662 214.695L265.669 214.691L265.676 214.687L264.721 212.93ZM299.061 212.76L298.087 214.506L298.11 214.52L298.135 214.532L299.061 212.76ZM310.791 224.15L309.052 225.138L309.066 225.162L309.08 225.185L310.791 224.15ZM315.211 293V295H317.211V293H315.211ZM183.461 293H185.461V210.38H183.461H181.461V293H183.461ZM183.461 210.38V212.38H209.471V210.38V208.38H183.461V210.38ZM209.471 210.38H207.471V293H209.471H211.471V210.38H209.471ZM209.471 293V291H183.461V293V295H209.471V293ZM236.331 293H238.331V244.72H236.331H234.331V293H236.331ZM236.331 244.72H238.331C238.331 240.083 236.87 236.248 233.734 233.521L232.421 235.03L231.109 236.539C233.186 238.346 234.331 240.97 234.331 244.72H236.331ZM232.421 235.03L233.802 233.583C230.904 230.816 227.278 229.46 223.071 229.46V231.46V233.46C226.345 233.46 228.952 234.484 231.04 236.477L232.421 235.03ZM223.071 231.46V229.46C220.165 229.46 217.501 230.095 215.13 231.412L216.101 233.16L217.073 234.908C218.782 233.959 220.764 233.46 223.071 233.46V231.46ZM216.101 233.16L215.207 231.371C212.845 232.552 210.932 234.269 209.492 236.493L211.171 237.58L212.85 238.667C213.904 237.038 215.277 235.808 216.996 234.949L216.101 233.16ZM211.171 237.58L209.447 236.566C208.091 238.872 207.471 241.624 207.471 244.72H209.471H211.471C211.471 242.149 211.985 240.141 212.895 238.594L211.171 237.58ZM209.471 244.72L210.278 242.89L200.248 238.47L199.441 240.3L198.635 242.13L208.665 246.55L209.471 244.72ZM199.441 240.3H201.441C201.441 234.017 202.793 228.785 205.399 224.511L203.691 223.47L201.984 222.429C198.923 227.449 197.441 233.436 197.441 240.3H199.441ZM203.691 223.47L205.41 224.493C208.053 220.052 211.628 216.69 216.162 214.37L215.251 212.59L214.34 210.81C209.128 213.476 204.996 217.368 201.973 222.447L203.691 223.47ZM215.251 212.59L216.195 214.354C220.748 211.918 225.914 210.68 231.741 210.68V208.68V206.68C225.328 206.68 219.502 208.048 214.308 210.826L215.251 212.59ZM231.741 208.68V210.68C237.209 210.68 242.015 211.909 246.214 214.324L247.211 212.59L248.208 210.856C243.34 208.057 237.833 206.68 231.741 206.68V208.68ZM247.211 212.59L246.233 214.334C250.566 216.765 253.993 220.137 256.535 224.48L258.261 223.47L259.987 222.46C257.09 217.51 253.15 213.628 248.19 210.846L247.211 212.59ZM258.261 223.47L256.535 224.48C259.043 228.764 260.341 233.954 260.341 240.13H262.341H264.341C264.341 233.386 262.919 227.469 259.987 222.46L258.261 223.47ZM262.341 240.13H260.341V293H262.341H264.341V240.13H262.341ZM262.341 293V291H236.331V293V295H262.341V293ZM289.201 293H291.201V244.72H289.201H287.201V293H289.201ZM289.201 244.72H291.201C291.201 240.083 289.74 236.248 286.604 233.521L285.291 235.03L283.979 236.539C286.056 238.346 287.201 240.97 287.201 244.72H289.201ZM285.291 235.03L286.672 233.583C283.774 230.816 280.148 229.46 275.941 229.46V231.46V233.46C279.215 233.46 281.822 234.484 283.91 236.477L285.291 235.03ZM275.941 231.46V229.46C273.035 229.46 270.371 230.095 268 231.412L268.971 233.16L269.943 234.908C271.652 233.959 273.634 233.46 275.941 233.46V231.46ZM268.971 233.16L268.077 231.371C265.715 232.552 263.802 234.269 262.362 236.493L264.041 237.58L265.72 238.667C266.774 237.038 268.147 235.808 269.866 234.949L268.971 233.16ZM264.041 237.58L262.317 236.566C260.961 238.872 260.341 241.624 260.341 244.72H262.341H264.341C264.341 242.149 264.855 240.141 265.765 238.594L264.041 237.58ZM262.341 244.72L262.611 242.738L247.651 240.698L247.381 242.68L247.111 244.662L262.071 246.702L262.341 244.72ZM247.381 242.68L249.38 242.744C249.598 235.995 251.171 230.342 254.016 225.706L252.311 224.66L250.607 223.614C247.332 228.951 245.618 235.312 245.382 242.616L247.381 242.68ZM252.311 224.66L254.009 225.717C257.005 220.903 260.885 217.243 265.662 214.695L264.721 212.93L263.78 211.165C258.357 214.057 253.965 218.217 250.613 223.603L252.311 224.66ZM264.721 212.93L265.676 214.687C270.571 212.027 276.075 210.68 282.231 210.68V208.68V206.68C275.468 206.68 269.298 208.166 263.766 211.173L264.721 212.93ZM282.231 208.68V210.68C288.284 210.68 293.55 211.974 298.087 214.506L299.061 212.76L300.036 211.014C294.826 208.106 288.872 206.68 282.231 206.68V208.68ZM299.061 212.76L298.135 214.532C302.774 216.958 306.405 220.479 309.052 225.138L310.791 224.15L312.53 223.162C309.511 217.848 305.322 213.776 299.988 210.988L299.061 212.76ZM310.791 224.15L309.08 225.185C311.801 229.685 313.211 235.203 313.211 241.83H315.211H317.211C317.211 234.63 315.675 228.361 312.503 223.115L310.791 224.15ZM315.211 241.83H313.211V293H315.211H317.211V241.83H315.211ZM315.211 293V291H289.201V293V295H315.211V293ZM2.56 461H0.560001V463H2.56V461ZM2.56 340.98V338.98H0.560001V340.98H2.56ZM21.6 340.98L23.283 339.899L22.6927 338.98H21.6V340.98ZM68.86 414.59V416.59H72.5208L70.543 413.509L68.86 414.59ZM59.17 414.59L57.4852 413.512L55.5163 416.59H59.17V414.59ZM106.26 340.98V338.98H105.165L104.575 339.902L106.26 340.98ZM125.47 340.98H127.47V338.98H125.47V340.98ZM125.47 461V463H127.47V461H125.47ZM98.78 461H96.78V463H98.78V461ZM98.78 386.03L99.2651 384.09L96.78 383.468V386.03H98.78ZM103.54 387.22L105.223 388.3L106.728 385.955L104.025 385.28L103.54 387.22ZM72.77 435.16V437.16H73.8628L74.4531 436.24L72.77 435.16ZM55.09 435.16L53.4042 436.236L53.9939 437.16H55.09V435.16ZM24.49 387.22L23.9881 385.284L21.3227 385.975L22.8042 388.296L24.49 387.22ZM29.08 386.03H31.08V383.445L28.5781 384.094L29.08 386.03ZM29.08 461V463H31.08V461H29.08ZM2.56 461H4.56V340.98H2.56H0.560001V461H2.56ZM2.56 340.98V342.98H21.6V340.98V338.98H2.56V340.98ZM21.6 340.98L19.917 342.061L67.177 415.671L68.86 414.59L70.543 413.509L23.283 339.899L21.6 340.98ZM68.86 414.59V412.59H59.17V414.59V416.59H68.86V414.59ZM59.17 414.59L60.8548 415.668L107.945 342.058L106.26 340.98L104.575 339.902L57.4852 413.512L59.17 414.59ZM106.26 340.98V342.98H125.47V340.98V338.98H106.26V340.98ZM125.47 340.98H123.47V461H125.47H127.47V340.98H125.47ZM125.47 461V459H98.78V461V463H125.47V461ZM98.78 461H100.78V386.03H98.78H96.78V461H98.78ZM98.78 386.03L98.2949 387.97L103.055 389.16L103.54 387.22L104.025 385.28L99.2651 384.09L98.78 386.03ZM103.54 387.22L101.857 386.14L71.0869 434.08L72.77 435.16L74.4531 436.24L105.223 388.3L103.54 387.22ZM72.77 435.16V433.16H55.09V435.16V437.16H72.77V435.16ZM55.09 435.16L56.7758 434.084L26.1758 386.144L24.49 387.22L22.8042 388.296L53.4042 436.236L55.09 435.16ZM24.49 387.22L24.9919 389.156L29.5819 387.966L29.08 386.03L28.5781 384.094L23.9881 385.284L24.49 387.22ZM29.08 386.03H27.08V461H29.08H31.08V386.03H29.08ZM29.08 461V459H2.56V461V463H29.08V461ZM160.218 457.09L159.146 458.779L159.153 458.783L159.161 458.788L160.218 457.09ZM146.108 441.79L144.338 442.721L144.344 442.734L144.351 442.746L146.108 441.79ZM146.108 397.59L144.351 396.634L144.344 396.646L144.338 396.659L146.108 397.59ZM160.218 382.29L159.161 380.592L159.153 380.597L159.146 380.601L160.218 382.29ZM195.578 379.91L194.702 381.708L194.711 381.712L194.72 381.717L195.578 379.91ZM206.628 388.92L205.016 390.105L205.025 390.116L205.034 390.128L206.628 388.92ZM211.388 401.84H213.388V401.77L213.383 401.701L211.388 401.84ZM211.388 437.54L213.383 437.679L213.388 437.61V437.54H211.388ZM206.628 450.63L205.016 449.445L205.01 449.454L206.628 450.63ZM195.748 459.47L194.89 457.663L194.89 457.663L195.748 459.47ZM199.318 433.8L200.777 435.168L200.787 435.157L200.798 435.145L199.318 433.8ZM202.038 409.49L200.249 410.384L200.262 410.412L200.277 410.438L202.038 409.49ZM195.578 402.69L194.518 404.386L194.559 404.411L194.601 404.435L195.578 402.69ZM176.368 402.69L177.375 404.418L177.386 404.411L177.397 404.405L176.368 402.69ZM169.738 409.49L168.005 408.491L167.991 408.516L167.977 408.542L169.738 409.49ZM169.738 429.72L167.977 430.668L167.977 430.668L169.738 429.72ZM203.398 461H201.398V463H203.398V461ZM203.398 438.73L201.435 438.347L201.398 438.537V438.73H203.398ZM207.308 418.67L209.271 419.053L209.345 418.67L209.271 418.287L207.308 418.67ZM203.398 398.61H201.398V398.803L201.435 398.993L203.398 398.61ZM203.398 378.38V376.38H201.398V378.38H203.398ZM228.898 378.38H230.898V376.38H228.898V378.38ZM228.898 461V463H230.898V461H228.898ZM180.618 462.7V460.7C173.37 460.7 166.941 458.92 161.275 455.392L160.218 457.09L159.161 458.788C165.508 462.74 172.679 464.7 180.618 464.7V462.7ZM160.218 457.09L161.289 455.401C155.699 451.853 151.225 447.012 147.865 440.834L146.108 441.79L144.351 442.746C148.018 449.488 152.95 454.847 159.146 458.779L160.218 457.09ZM146.108 441.79L147.878 440.859C144.648 434.722 143.008 427.682 143.008 419.69H141.008H139.008C139.008 428.244 140.768 435.938 144.338 442.721L146.108 441.79ZM141.008 419.69H143.008C143.008 411.698 144.648 404.658 147.878 398.521L146.108 397.59L144.338 396.659C140.768 403.442 139.008 411.136 139.008 419.69H141.008ZM146.108 397.59L147.865 398.546C151.225 392.368 155.699 387.527 161.289 383.979L160.218 382.29L159.146 380.601C152.95 384.533 148.018 389.892 144.351 396.634L146.108 397.59ZM160.218 382.29L161.275 383.988C166.941 380.46 173.37 378.68 180.618 378.68V376.68V374.68C172.679 374.68 165.508 376.64 159.161 380.592L160.218 382.29ZM180.618 376.68V378.68C185.907 378.68 190.588 379.704 194.702 381.708L195.578 379.91L196.454 378.112C191.727 375.809 186.435 374.68 180.618 374.68V376.68ZM195.578 379.91L194.72 381.717C198.97 383.735 202.389 386.531 205.016 390.105L206.628 388.92L208.239 387.735C205.2 383.602 201.253 380.391 196.436 378.103L195.578 379.91ZM206.628 388.92L205.034 390.128C207.622 393.545 209.078 397.477 209.393 401.979L211.388 401.84L213.383 401.701C213.017 396.457 211.3 391.775 208.222 387.712L206.628 388.92ZM211.388 401.84H209.388V437.54H211.388H213.388V401.84H211.388ZM211.388 437.54L209.393 437.401C209.078 441.905 207.62 445.904 205.016 449.445L206.628 450.63L208.239 451.815C211.302 447.649 213.017 442.922 213.383 437.679L211.388 437.54ZM206.628 450.63L205.01 449.454C202.503 452.901 199.148 455.641 194.89 457.663L195.748 459.47L196.606 461.277C201.415 458.992 205.312 455.839 208.245 451.806L206.628 450.63ZM195.748 459.47L194.89 457.663C190.652 459.676 185.906 460.7 180.618 460.7V462.7V464.7C186.436 464.7 191.777 463.57 196.606 461.277L195.748 459.47ZM185.888 439.24V441.24C191.922 441.24 196.952 439.247 200.777 435.168L199.318 433.8L197.859 432.432C194.883 435.606 190.96 437.24 185.888 437.24V439.24ZM199.318 433.8L200.798 435.145C204.574 430.992 206.418 425.789 206.418 419.69H204.418H202.418C202.418 424.924 200.862 429.128 197.838 432.455L199.318 433.8ZM204.418 419.69H206.418C206.418 415.556 205.565 411.821 203.799 408.542L202.038 409.49L200.277 410.438C201.684 413.052 202.418 416.117 202.418 419.69H204.418ZM202.038 409.49L203.827 408.596C202.177 405.296 199.743 402.73 196.555 400.945L195.578 402.69L194.601 404.435C197.079 405.823 198.952 407.791 200.249 410.384L202.038 409.49ZM195.578 402.69L196.638 400.994C193.56 399.07 190.009 398.14 186.058 398.14V400.14V402.14C189.36 402.14 192.156 402.91 194.518 404.386L195.578 402.69ZM186.058 400.14V398.14C182.105 398.14 178.513 399.071 175.339 400.975L176.368 402.69L177.397 404.405C179.889 402.909 182.757 402.14 186.058 402.14V400.14ZM176.368 402.69L175.36 400.962C172.315 402.739 169.865 405.267 168.005 408.491L169.738 409.49L171.47 410.489C173.01 407.819 174.98 405.815 177.375 404.418L176.368 402.69ZM169.738 409.49L167.977 408.542C166.211 411.821 165.358 415.556 165.358 419.69H167.358H169.358C169.358 416.117 170.091 413.052 171.499 410.438L169.738 409.49ZM167.358 419.69H165.358C165.358 423.721 166.215 427.397 167.977 430.668L169.738 429.72L171.499 428.772C170.087 426.149 169.358 423.139 169.358 419.69H167.358ZM169.738 429.72L167.977 430.668C169.732 433.927 172.193 436.517 175.339 438.405L176.368 436.69L177.397 434.975C174.876 433.463 172.917 431.406 171.499 428.772L169.738 429.72ZM176.368 436.69L175.339 438.405C178.503 440.303 182.036 441.24 185.888 441.24V439.24V437.24C182.713 437.24 179.899 436.477 177.397 434.975L176.368 436.69ZM203.398 461H205.398V438.73H203.398H201.398V461H203.398ZM203.398 438.73L205.361 439.113L209.271 419.053L207.308 418.67L205.345 418.287L201.435 438.347L203.398 438.73ZM207.308 418.67L209.271 418.287L205.361 398.227L203.398 398.61L201.435 398.993L205.345 419.053L207.308 418.67ZM203.398 398.61H205.398V378.38H203.398H201.398V398.61H203.398ZM203.398 378.38V380.38H228.898V378.38V376.38H203.398V378.38ZM228.898 378.38H226.898V461H228.898H230.898V378.38H228.898ZM228.898 461V459H203.398V461V463H228.898V461ZM247.211 461H245.211V463H247.211V461ZM247.211 378.38V376.38H245.211V378.38H247.211ZM273.221 378.38H275.221V376.38H273.221V378.38ZM273.221 461V463H275.221V461H273.221ZM273.221 415.61L271.99 417.186L275.221 419.71V415.61H273.221ZM262.341 407.11L260.389 406.674L260.114 407.908L261.11 408.686L262.341 407.11ZM273.221 384.67L274.666 386.053L273.221 384.67ZM304.841 378.55L304.062 380.392L304.104 380.41L304.147 380.425L304.841 378.55ZM312.831 383.99L314.4 385.231L315.453 383.9L314.311 382.645L312.831 383.99ZM297.361 403.54L295.881 404.885L297.467 406.629L298.93 404.781L297.361 403.54ZM293.111 400.65L292.368 402.507L292.368 402.507L293.111 400.65ZM276.961 403.71L275.517 402.326L275.516 402.328L276.961 403.71ZM247.211 461H249.211V378.38H247.211H245.211V461H247.211ZM247.211 378.38V380.38H273.221V378.38V376.38H247.211V378.38ZM273.221 378.38H271.221V461H273.221H275.221V378.38H273.221ZM273.221 461V459H247.211V461V463H273.221V461ZM273.221 415.61L274.453 414.034L263.573 405.534L262.341 407.11L261.11 408.686L271.99 417.186L273.221 415.61ZM262.341 407.11L264.293 407.546C266.393 398.152 269.89 391.042 274.666 386.053L273.221 384.67L271.777 383.287C266.353 388.952 262.596 396.801 260.389 406.674L262.341 407.11ZM273.221 384.67L274.666 386.053C279.305 381.208 285.816 378.68 294.471 378.68V376.68V374.68C284.993 374.68 277.337 377.479 271.777 383.287L273.221 384.67ZM294.471 376.68V378.68C298.232 378.68 301.413 379.271 304.062 380.392L304.841 378.55L305.621 376.708C302.376 375.335 298.643 374.68 294.471 374.68V376.68ZM304.841 378.55L304.147 380.425C306.896 381.444 309.293 383.071 311.351 385.335L312.831 383.99L314.311 382.645C311.836 379.922 308.906 377.923 305.536 376.674L304.841 378.55ZM312.831 383.99L311.263 382.749L295.793 402.299L297.361 403.54L298.93 404.781L314.4 385.231L312.831 383.99ZM297.361 403.54L298.841 402.195C297.487 400.705 295.81 399.576 293.854 398.793L293.111 400.65L292.368 402.507C293.812 403.084 294.969 403.882 295.881 404.885L297.361 403.54ZM293.111 400.65L293.854 398.793C291.88 398.003 289.695 397.63 287.331 397.63V399.63V401.63C289.274 401.63 290.942 401.937 292.368 402.507L293.111 400.65ZM287.331 399.63V397.63C282.565 397.63 278.556 399.155 275.517 402.326L276.961 403.71L278.405 405.094C280.579 402.825 283.484 401.63 287.331 401.63V399.63ZM276.961 403.71L275.516 402.328C272.528 405.451 271.221 410.011 271.221 415.61H273.221H275.221C275.221 410.556 276.407 407.182 278.407 405.092L276.961 403.71ZM334.266 457.26L335.217 455.501L334.266 457.26ZM317.946 441.79L319.658 440.757L317.946 441.79ZM317.946 397.59L316.247 396.535L316.242 396.543L317.946 397.59ZM334.436 382.12L335.387 383.879L335.387 383.879L334.436 382.12ZM375.406 379.91L374.623 381.75L374.646 381.76L374.67 381.77L375.406 379.91ZM389.856 389.77L391.27 391.184L392.648 389.807L391.307 388.393L389.856 389.77ZM373.196 406.43L371.705 407.764L373.115 409.339L374.61 407.844L373.196 406.43ZM366.396 401.67L365.639 403.521L365.653 403.527L365.667 403.532L366.396 401.67ZM347.696 402.69L348.673 404.435L348.684 404.429L348.695 404.422L347.696 402.69ZM340.896 409.49L339.163 408.491L339.157 408.502L339.151 408.513L340.896 409.49ZM340.896 429.72L339.135 430.668L339.149 430.694L339.163 430.719L340.896 429.72ZM366.736 437.54L367.533 439.374L367.551 439.366L367.569 439.358L366.736 437.54ZM373.706 432.44L375.127 431.033L373.632 429.523L372.215 431.106L373.706 432.44ZM390.196 449.1L391.646 450.477L392.982 449.071L391.617 447.693L390.196 449.1ZM375.576 459.47L376.345 461.316L376.361 461.309L376.378 461.302L375.576 459.47ZM357.386 462.87V460.87C349.19 460.87 341.815 459.07 335.217 455.501L334.266 457.26L333.314 459.019C340.543 462.93 348.581 464.87 357.386 464.87V462.87ZM334.266 457.26L335.217 455.501C328.61 451.926 323.436 447.017 319.658 440.757L317.946 441.79L316.233 442.823C320.389 449.71 326.095 455.114 333.314 459.019L334.266 457.26ZM317.946 441.79L319.658 440.757C315.892 434.515 313.996 427.51 313.996 419.69H311.996H309.996C309.996 428.19 312.067 435.918 316.233 442.823L317.946 441.79ZM311.996 419.69H313.996C313.996 411.751 315.894 404.753 319.65 398.637L317.946 397.59L316.242 396.543C312.064 403.347 309.996 411.082 309.996 419.69H311.996ZM317.946 397.59L319.645 398.645C323.538 392.372 328.775 387.456 335.387 383.879L334.436 382.12L333.484 380.361C326.27 384.264 320.513 389.661 316.247 396.535L317.946 397.59ZM334.436 382.12L335.387 383.879C341.981 380.312 349.412 378.51 357.726 378.51V376.51V374.51C348.813 374.51 340.717 376.448 333.484 380.361L334.436 382.12ZM357.726 376.51V378.51C363.948 378.51 369.571 379.601 374.623 381.75L375.406 379.91L376.189 378.07C370.587 375.686 364.424 374.51 357.726 374.51V376.51ZM375.406 379.91L374.67 381.77C379.828 383.811 384.403 386.929 388.405 391.147L389.856 389.77L391.307 388.393C386.922 383.771 381.864 380.315 376.142 378.05L375.406 379.91ZM389.856 389.77L388.442 388.356L371.782 405.016L373.196 406.43L374.61 407.844L391.27 391.184L389.856 389.77ZM373.196 406.43L374.686 405.096C372.558 402.717 370.033 400.945 367.125 399.808L366.396 401.67L365.667 403.532C367.972 404.435 369.981 405.836 371.705 407.764L373.196 406.43ZM366.396 401.67L367.153 399.819C364.373 398.682 361.217 398.14 357.726 398.14V400.14V402.14C360.808 402.14 363.432 402.618 365.639 403.521L366.396 401.67ZM357.726 400.14V398.14C353.671 398.14 349.977 399.065 346.696 400.958L347.696 402.69L348.695 404.422C351.308 402.915 354.301 402.14 357.726 402.14V400.14ZM347.696 402.69L346.719 400.945C343.556 402.716 341.035 405.247 339.163 408.491L340.896 409.49L342.628 410.489C344.157 407.839 346.169 405.837 348.673 404.435L347.696 402.69ZM340.896 409.49L339.151 408.513C337.368 411.696 336.516 415.388 336.516 419.52H338.516H340.516C340.516 415.945 341.25 412.951 342.641 410.467L340.896 409.49ZM338.516 419.52H336.516C336.516 423.654 337.369 427.389 339.135 430.668L340.896 429.72L342.657 428.772C341.249 426.158 340.516 423.093 340.516 419.52H338.516ZM340.896 429.72L339.163 430.719C341.039 433.971 343.615 436.547 346.866 438.422L347.866 436.69L348.865 434.958C346.223 433.433 344.153 431.363 342.628 428.721L340.896 429.72ZM347.866 436.69L346.866 438.422C350.137 440.309 353.772 441.24 357.726 441.24V439.24V437.24C354.426 437.24 351.488 436.471 348.865 434.958L347.866 436.69ZM357.726 439.24V441.24C361.347 441.24 364.631 440.636 367.533 439.374L366.736 437.54L365.938 435.706C363.628 436.711 360.904 437.24 357.726 437.24V439.24ZM366.736 437.54L367.569 439.358C370.53 438.001 373.08 436.139 375.196 433.774L373.706 432.44L372.215 431.106C370.479 433.047 368.382 434.586 365.903 435.722L366.736 437.54ZM373.706 432.44L372.284 433.847L388.774 450.507L390.196 449.1L391.617 447.693L375.127 431.033L373.706 432.44ZM390.196 449.1L388.746 447.723C384.613 452.073 379.957 455.37 374.774 457.638L375.576 459.47L376.378 461.302C382.075 458.81 387.165 455.194 391.646 450.477L390.196 449.1ZM375.576 459.47L374.807 457.624C369.641 459.776 363.844 460.87 357.386 460.87V462.87V464.87C364.301 464.87 370.631 463.697 376.345 461.316L375.576 459.47ZM416.44 457.26L415.454 459L415.471 459.01L415.488 459.019L416.44 457.26ZM400.29 441.62L402.002 440.587L402.002 440.587L400.29 441.62ZM400.29 397.59L398.585 396.543L398.585 396.543L400.29 397.59ZM416.44 382.29L417.403 384.042L417.415 384.036L417.426 384.03L416.44 382.29ZM478.83 397.59L477.117 398.623L477.121 398.63L477.125 398.637L478.83 397.59ZM478.83 441.62L480.542 442.653L480.542 442.653L478.83 441.62ZM462.68 457.26L463.643 459.012L463.655 459.006L463.666 459L462.68 457.26ZM449.42 436.86L450.397 438.605L450.423 438.59L450.449 438.575L449.42 436.86ZM455.88 429.89L454.104 428.969L454.097 428.982L454.091 428.996L455.88 429.89ZM455.88 409.49L454.119 410.438L454.127 410.453L454.135 410.467L455.88 409.49ZM449.25 402.69L448.19 404.386L448.23 404.411L448.272 404.435L449.25 402.69ZM429.87 402.69L430.847 404.435L430.873 404.42L430.899 404.405L429.87 402.69ZM423.24 409.49L425.001 410.438L425.001 410.438L423.24 409.49ZM423.24 429.89L421.464 430.811L421.471 430.824L421.479 430.838L423.24 429.89ZM429.87 436.86L428.841 438.575L428.866 438.59L428.892 438.605L429.87 436.86ZM439.56 462.87V460.87C431.364 460.87 423.989 459.07 417.391 455.501L416.44 457.26L415.488 459.019C422.717 462.93 430.755 464.87 439.56 464.87V462.87ZM416.44 457.26L417.426 455.52C410.919 451.833 405.788 446.86 402.002 440.587L400.29 441.62L398.577 442.653C402.725 449.526 408.36 454.981 415.454 459L416.44 457.26ZM400.29 441.62L402.002 440.587C398.235 434.345 396.34 427.34 396.34 419.52H394.34H392.34C392.34 428.02 394.41 435.748 398.577 442.653L400.29 441.62ZM394.34 419.52H396.34C396.34 411.7 398.235 404.758 401.994 398.637L400.29 397.59L398.585 396.543C394.41 403.342 392.34 411.02 392.34 419.52H394.34ZM400.29 397.59L401.994 398.637C405.775 392.479 410.9 387.619 417.403 384.042L416.44 382.29L415.476 380.538C408.379 384.441 402.738 389.781 398.585 396.543L400.29 397.59ZM416.44 382.29L417.426 384.03C423.895 380.364 431.256 378.51 439.56 378.51V376.51V374.51C430.637 374.51 422.584 376.509 415.454 380.55L416.44 382.29ZM439.56 376.51V378.51C447.874 378.51 455.242 380.312 461.716 383.872L462.68 382.12L463.643 380.368C456.517 376.448 448.472 374.51 439.56 374.51V376.51ZM462.68 382.12L461.716 383.872C468.211 387.445 473.335 392.355 477.117 398.623L478.83 397.59L480.542 396.557C476.391 389.679 470.748 384.275 463.643 380.368L462.68 382.12ZM478.83 397.59L477.125 398.637C480.884 404.758 482.78 411.7 482.78 419.52H484.78H486.78C486.78 411.02 484.709 403.342 480.534 396.543L478.83 397.59ZM484.78 419.52H482.78C482.78 427.34 480.884 434.345 477.117 440.587L478.83 441.62L480.542 442.653C484.709 435.748 486.78 428.02 486.78 419.52H484.78ZM478.83 441.62L477.117 440.587C473.331 446.86 468.2 451.833 461.694 455.52L462.68 457.26L463.666 459C470.759 454.981 476.395 449.526 480.542 442.653L478.83 441.62ZM462.68 457.26L461.716 455.508C455.242 459.068 447.874 460.87 439.56 460.87V462.87V464.87C448.472 464.87 456.517 462.932 463.643 459.012L462.68 457.26ZM439.56 439.24V441.24C443.589 441.24 447.222 440.383 450.397 438.605L449.42 436.86L448.442 435.115C445.95 436.511 443.01 437.24 439.56 437.24V439.24ZM449.42 436.86L450.449 438.575C453.607 436.68 456.024 434.072 457.668 430.784L455.88 429.89L454.091 428.996C452.788 431.601 450.899 433.64 448.391 435.145L449.42 436.86ZM455.88 429.89L457.655 430.811C459.406 427.434 460.26 423.655 460.26 419.52H458.26H456.26C456.26 423.091 455.527 426.226 454.104 428.969L455.88 429.89ZM458.26 419.52H460.26C460.26 415.388 459.407 411.696 457.625 408.513L455.88 409.49L454.135 410.467C455.525 412.951 456.26 415.945 456.26 419.52H458.26ZM455.88 409.49L457.641 408.542C455.879 405.271 453.402 402.723 450.227 400.945L449.25 402.69L448.272 404.435C450.764 405.83 452.706 407.815 454.119 410.438L455.88 409.49ZM449.25 402.69L450.31 400.994C447.222 399.064 443.611 398.14 439.56 398.14V400.14V402.14C442.988 402.14 445.837 402.916 448.19 404.386L449.25 402.69ZM439.56 400.14V398.14C435.607 398.14 432.015 399.071 428.841 400.975L429.87 402.69L430.899 404.405C433.391 402.909 436.259 402.14 439.56 402.14V400.14ZM429.87 402.69L428.892 400.945C425.717 402.723 423.24 405.271 421.479 408.542L423.24 409.49L425.001 410.438C426.413 407.815 428.356 405.83 430.847 404.435L429.87 402.69ZM423.24 409.49L421.479 408.542C419.713 411.821 418.86 415.556 418.86 419.69H420.86H422.86C422.86 416.117 423.593 413.052 425.001 410.438L423.24 409.49ZM420.86 419.69H418.86C418.86 423.723 419.718 427.442 421.464 430.811L423.24 429.89L425.015 428.969C423.588 426.218 422.86 423.137 422.86 419.69H420.86ZM423.24 429.89L421.479 430.838C423.234 434.097 425.695 436.687 428.841 438.575L429.87 436.86L430.899 435.145C428.378 433.633 426.419 431.576 425.001 428.942L423.24 429.89ZM429.87 436.86L428.892 438.605C432.058 440.378 435.632 441.24 439.56 441.24V439.24V437.24C436.234 437.24 433.348 436.516 430.847 435.115L429.87 436.86ZM513.369 461.17L512.851 463.102L512.862 463.105L513.369 461.17ZM500.279 455.9L499.25 457.615L499.278 457.632L499.308 457.648L500.279 455.9ZM490.079 447.74L488.657 446.334L487.311 447.695L488.611 449.099L490.079 447.74ZM504.869 432.78L506.338 431.423L504.918 429.885L503.447 431.374L504.869 432.78ZM514.559 439.75L513.731 441.571L513.754 441.581L513.778 441.591L514.559 439.75ZM533.769 440.77L532.828 439.005L532.802 439.019L532.777 439.034L533.769 440.77ZM533.259 432.44L532.245 434.164L532.303 434.198L532.364 434.229L533.259 432.44ZM525.779 429.55L525.211 431.468L525.244 431.477L525.277 431.486L525.779 429.55ZM506.399 422.41L507.418 420.689L507.418 420.689L506.399 422.41ZM498.919 414.93L497.193 415.941L497.201 415.955L497.209 415.968L498.919 414.93ZM500.109 388.75L501.743 389.903L501.751 389.892L501.758 389.881L500.109 388.75ZM511.669 379.4L510.841 377.579L510.841 377.579L511.669 379.4ZM548.559 379.74L547.78 381.582L547.801 381.591L547.822 381.599L548.559 379.74ZM563.179 390.45L564.601 391.856L565.841 390.602L564.751 389.214L563.179 390.45ZM548.389 405.41L546.866 406.707L548.279 408.366L549.811 406.816L548.389 405.41ZM539.549 398.95L538.818 400.812L538.828 400.816L538.84 400.82L539.549 398.95ZM523.569 398.44L524.517 400.201L524.568 400.174L524.617 400.143L523.569 398.44ZM531.729 408.81L531.227 410.746L531.227 410.746L531.729 408.81ZM541.419 411.7L542.051 409.803L542.051 409.803L541.419 411.7ZM551.109 416.29L552.174 414.598L552.174 414.598L551.109 416.29ZM558.589 424.11L556.863 425.121L556.871 425.135L556.879 425.148L558.589 424.11ZM552.299 455.9L551.071 454.321L551.064 454.327L551.057 454.333L552.299 455.9ZM527.819 463.04V461.04C523.118 461.04 518.472 460.439 513.876 459.235L513.369 461.17L512.862 463.105C517.786 464.394 522.773 465.04 527.819 465.04V463.04ZM513.369 461.17L513.887 459.238C509.393 458.033 505.183 456.337 501.25 454.152L500.279 455.9L499.308 457.648C503.535 459.997 508.051 461.814 512.851 463.102L513.369 461.17ZM500.279 455.9L501.308 454.185C497.486 451.892 494.238 449.288 491.546 446.381L490.079 447.74L488.611 449.099C491.586 452.312 495.138 455.148 499.25 457.615L500.279 455.9ZM490.079 447.74L491.501 449.146L506.291 434.186L504.869 432.78L503.447 431.374L488.657 446.334L490.079 447.74ZM504.869 432.78L503.399 434.137C506.305 437.284 509.754 439.763 513.731 441.571L514.559 439.75L515.386 437.929C511.883 436.337 508.873 434.169 506.338 431.423L504.869 432.78ZM514.559 439.75L513.778 441.591C517.786 443.292 522.134 444.13 526.799 444.13V442.13V440.13C522.623 440.13 518.812 439.382 515.34 437.909L514.559 439.75ZM526.799 442.13V444.13C529.999 444.13 532.732 443.666 534.761 442.506L533.769 440.77L532.777 439.034C531.632 439.688 529.718 440.13 526.799 440.13V442.13ZM533.769 440.77L534.71 442.535C536.895 441.369 538.319 439.527 538.319 437.03H536.319H534.319C534.319 437.706 534.043 438.357 532.828 439.005L533.769 440.77ZM536.319 437.03H538.319C538.319 435.66 537.971 434.372 537.218 433.243C536.474 432.127 535.411 431.28 534.153 430.651L533.259 432.44L532.364 434.229C533.147 434.62 533.614 435.048 533.89 435.462C534.157 435.863 534.319 436.36 534.319 437.03H536.319ZM533.259 432.44L534.273 430.716C532.135 429.459 529.453 428.436 526.281 427.614L525.779 429.55L525.277 431.486C528.225 432.25 530.529 433.155 532.245 434.164L533.259 432.44ZM525.779 429.55L526.347 427.632C523.289 426.726 520.062 425.764 516.664 424.744L516.089 426.66L515.514 428.576C518.916 429.596 522.148 430.56 525.211 431.468L525.779 429.55ZM516.089 426.66L516.664 424.744C513.42 423.771 510.339 422.42 507.418 420.689L506.399 422.41L505.379 424.131C508.579 426.027 511.958 427.509 515.514 428.576L516.089 426.66ZM506.399 422.41L507.418 420.689C504.654 419.051 502.392 416.797 500.628 413.892L498.919 414.93L497.209 415.968C499.299 419.409 502.024 422.142 505.379 424.131L506.399 422.41ZM498.919 414.93L500.644 413.919C498.945 411.019 498.029 407.258 498.029 402.52H496.029H494.029C494.029 407.755 495.04 412.267 497.193 415.941L498.919 414.93ZM496.029 402.52H498.029C498.029 397.551 499.291 393.377 501.743 389.903L500.109 388.75L498.475 387.597C495.487 391.83 494.029 396.836 494.029 402.52H496.029ZM500.109 388.75L501.758 389.881C504.245 386.255 507.794 383.358 512.496 381.221L511.669 379.4L510.841 377.579C505.57 379.975 501.413 383.312 498.459 387.619L500.109 388.75ZM511.669 379.4L512.496 381.221C517.172 379.095 522.716 378 529.179 378V376V374C522.268 374 516.139 375.171 510.841 377.579L511.669 379.4ZM529.179 376V378C535.964 378 542.156 379.203 547.78 381.582L548.559 379.74L549.338 377.898C543.175 375.291 536.447 374 529.179 374V376ZM548.559 379.74L547.822 381.599C553.523 383.858 558.1 387.223 561.606 391.686L563.179 390.45L564.751 389.214C560.778 384.157 555.608 380.382 549.296 377.881L548.559 379.74ZM563.179 390.45L561.757 389.044L546.967 404.004L548.389 405.41L549.811 406.816L564.601 391.856L563.179 390.45ZM548.389 405.41L549.911 404.113C547.118 400.834 543.903 398.462 540.258 397.08L539.549 398.95L538.84 400.82C541.768 401.931 544.446 403.866 546.866 406.707L548.389 405.41ZM539.549 398.95L540.28 397.088C536.9 395.761 533.536 395.08 530.199 395.08V397.08V399.08C532.982 399.08 535.851 399.646 538.818 400.812L539.549 398.95ZM530.199 397.08V395.08C527.112 395.08 524.46 395.543 522.521 396.737L523.569 398.44L524.617 400.143C525.624 399.523 527.392 399.08 530.199 399.08V397.08ZM523.569 398.44L522.621 396.679C521.636 397.209 520.797 397.928 520.211 398.875C519.622 399.827 519.359 400.896 519.359 402.01H521.359H523.359C523.359 401.538 523.464 401.218 523.612 400.98C523.763 400.737 524.028 400.464 524.517 400.201L523.569 398.44ZM521.359 402.01H519.359C519.359 404.668 520.949 406.606 523.313 407.858L524.249 406.09L525.185 404.322C523.696 403.534 523.359 402.752 523.359 402.01H521.359ZM524.249 406.09L523.313 407.858C525.424 408.975 528.077 409.929 531.227 410.746L531.729 408.81L532.231 406.874C529.26 406.104 526.927 405.245 525.185 404.322L524.249 406.09ZM531.729 408.81L531.227 410.746C534.238 411.527 537.424 412.477 540.786 413.597L541.419 411.7L542.051 409.803C538.614 408.657 535.34 407.68 532.231 406.874L531.729 408.81ZM541.419 411.7L540.786 413.597C544.033 414.68 547.118 416.14 550.043 417.982L551.109 416.29L552.174 414.598C548.98 412.586 545.605 410.987 542.051 409.803L541.419 411.7ZM551.109 416.29L550.043 417.982C552.817 419.729 555.09 422.096 556.863 425.121L558.589 424.11L560.314 423.099C558.234 419.551 555.52 416.704 552.174 414.598L551.109 416.29ZM558.589 424.11L556.879 425.148C558.554 427.907 559.479 431.702 559.479 436.69H561.479H563.479C563.479 431.252 562.477 426.66 560.298 423.072L558.589 424.11ZM561.479 436.69H559.479C559.479 444.147 556.683 449.957 551.071 454.321L552.299 455.9L553.527 457.479C560.155 452.323 563.479 445.327 563.479 436.69H561.479ZM552.299 455.9L551.057 454.333C545.509 458.729 537.837 461.04 527.819 461.04V463.04V465.04C538.428 465.04 547.076 462.591 553.541 457.467L552.299 455.9Z" fill="black" mask="url(#path-1-outside-1_166_12)"/>
</svg>
